<?xml version="1.0" encoding="UTF-8" standalone="no"?>
<!-- Created with Inkscape (http://www.inkscape.org/) -->

<svg
   version="1.1"
   id="svg2"
   width="1000"
   height="430.73734"
   viewBox="0 0 1000 430.73734"
   sodipodi:docname="02.svg"
   inkscape:version="1.2 (dc2aedaf03, 2022-05-15)"
   xmlns:inkscape="http://www.inkscape.org/namespaces/inkscape"
   xmlns:sodipodi="http://sodipodi.sourceforge.net/DTD/sodipodi-0.dtd"
   xmlns="http://www.w3.org/2000/svg"
   xmlns:svg="http://www.w3.org/2000/svg">
  <defs
     id="defs6">
    <clipPath
       clipPathUnits="userSpaceOnUse"
       id="clipPath38">
      <path
         d="m 57.14,195.12 c 0.36,0.02 0.72,0.04 1.08,0.07 v 0 c -0.91,0.11 -1.8,0.3 -2.67,0.57 v 0 c 0.54,-0.18 1.07,-0.4 1.59,-0.64"
         id="path36" />
    </clipPath>
    <linearGradient
       x1="0"
       y1="0"
       x2="1"
       y2="0"
       gradientUnits="userSpaceOnUse"
       gradientTransform="matrix(2.6699829,0,0,-2.6699829,55.549988,195.44)"
       spreadMethod="pad"
       id="linearGradient48">
      <stop
         style="stop-opacity:1;stop-color:#224b6b"
         offset="0"
         id="stop44" />
      <stop
         style="stop-opacity:1;stop-color:#07172e"
         offset="1"
         id="stop46" />
    </linearGradient>
    <clipPath
       clipPathUnits="userSpaceOnUse"
       id="clipPath328">
      <path
         d="m 59.05,323 c -3.81,-0.41 -8.02,-2.67 -10.91,-5.1 v 0 c -5.59,-4.69 -10.49,-7.78 -17.55,-9.961 v 0 C 20.245,304.752 10.446,303.715 0,304.168 v 0 -109.178 c 19.139,-1.598 38.08,-0.958 57.14,0.13 v 0 c 0.36,0.02 0.72,0.04 1.08,0.07 v 0 c 2.55,0.14 5.11,0.3 7.67,0.46 v 0 c 1.43,0.08 2.85,0.17 4.28,0.26 v 0 c 50.84,3.18 101.73,5.19 152.69,4.03 v 0 c 45.45,-1.03 90.62,-4.97 135.96,-7.959 v 0 c 3.43,-0.222 6.86,-0.421 10.28,-0.592 v 0 c 36.329,-1.87 72.329,-0.959 108.73,0.592 v 0 c 32.77,1.408 65.59,2.539 98.32,4.459 v 0 c 24.119,1.421 48.19,3.81 72.31,5.29 v 0 c 18.191,1.11 37.07,2.8 54.81,7.18 v 0 c 12.14,2.99 24.079,7.32 35.41,12.6 v 0 c 3.804,1.772 7.591,3.578 11.32,5.499 v 0 47.563 c -0.014,0.002 -0.027,0.005 -0.04,0.008 v 0 c -5.03,1.06 -9.92,2.99 -15.07,3.43 v 0 c -6.79,0.59 -10.39,-2.08 -16.21,-4.86 v 0 c -2.05,-0.98 -4.319,-2.15 -6.65,-2.021 v 0 c -1.31,0.072 -2.36,0.641 -3.65,0.701 v 0 c -2.81,0.12 -6.17,-1.55 -8.85,-2.22 v 0 c -4.19,-1.04 -8.199,-1.65 -12.53,-1.66 v 0 c -3.92,0 -7.63,0.81 -11.51,1.05 v 0 c -2.38,0.15 -5.71,1.39 -8.03,1 v 0 c -2.27,-0.38 -5.611,-2.92 -7.621,-4.15 v 0 c -4.438,-2.74 -8.259,-6.3 -12.95,-8.69 v 0 c -7.229,-3.689 -14.509,-4.26 -22.469,-3.24 v 0 c -6.54,0.839 -12.939,2.46 -19.54,2.88 v 0 c -6.85,0.44 -13.621,0.08 -20.451,0.91 v 0 c -5.399,0.65 -10.579,1.71 -15.778,3.29 v 0 c -5.051,1.54 -10.08,3.94 -15.431,4.05 v 0 c -7.02,0.15 -13.92,0.91 -21.001,0.95 v 0 c -3.099,0.009 -5.929,0.17 -8.909,-0.93 v 0 c -5.56,-2.06 -11.13,-3.85 -17.001,-4.89 v 0 c -14.799,-2.62 -29.479,2.33 -44.209,2.86 v 0 c -9.06,0.32 -17.44,0.25 -26.45,-0.79 v 0 c -8.721,-1.01 -17.261,-1.24 -26.011,-1.24 v 0 c -4.619,0 -9.579,-0.66 -14.009,0.921 v 0 c -3.37,1.199 -6.45,3.099 -9.7,4.569 v 0 c -6.621,2.991 -13.93,6.39 -20.93,8.3 v 0 c -3.54,0.97 -7.04,1.3 -10.5,2.65 v 0 c -3.39,1.33 -6.18,3.27 -9.38,4.95 v 0 c -3.21,1.7 -6.47,3.31 -9.69,5.01 v 0 c -2.78,1.47 -5.25,3.51 -8.43,3.65 v 0 c -0.41,0.02 -0.82,0.01 -1.23,-0.02 v 0 c -4.3,-0.25 -8.29,-2.74 -12.14,-4.54 v 0 c -3.85,-1.81 -7.679,-2.99 -11.66,-4.45 v 0 c -4.02,-1.47 -7.48,-4.04 -11.48,-5.6 v 0 c -4.45,-1.73 -9.02,-3.3 -13.64,-1.75 v 0 c -2.61,0.88 -5.19,1.75 -7.83,2.53 v 0 c -4.33,1.279 -7.72,4.2 -11.82,5.87 v 0 c -2.58,1.05 -6.15,2.05 -8.95,2 v 0 c -3.16,-0.05 -6.08,-1.15 -9.3,-1.12 v 0 c -7.63,0.07 -13.25,0.83 -19.78,5.08 v 0 c -4.08,2.65 -9.13,3.91 -12.94,6.891 v 0 c -3.83,2.999 -4.99,9.249 -9.46,11.169 v 0 c -0.18,0.081 -0.37,0.161 -0.57,0.22 v 0 c -2.4,0.79 -5.67,-0.751 -8.38,-1.34 v 0 c -9.45,-2.04 -19.929,-3.09 -29.57,-3.029 v 0 c -11.18,0.079 -21.76,-1.211 -32.67,-3.601 v 0 c -4.111,-0.899 -7.919,-2.43 -12.08,-0.76 v 0 c -3.42,1.37 -5.189,4.74 -8.45,6.459 v 0 c -6.52,3.451 -13.111,2.06 -19.97,3.381 v 0 c -7.6,1.469 -12.37,7.37 -18.49,11.6 v 0 c -2.315,1.603 -3.914,3.003 -6.605,3.003 v 0 c -0.298,0 -0.609,-0.017 -0.935,-0.053"
         id="path326" />
    </clipPath>
    <linearGradient
       x1="0"
       y1="0"
       x2="1"
       y2="0"
       gradientUnits="userSpaceOnUse"
       gradientTransform="matrix(826.49408,0,0,-826.49408,-60.422878,256.69818)"
       spreadMethod="pad"
       id="linearGradient338">
      <stop
         style="stop-opacity:1;stop-color:#224b6b"
         offset="0"
         id="stop334" />
      <stop
         style="stop-opacity:1;stop-color:#07172e"
         offset="1"
         id="stop336" />
    </linearGradient>
    <clipPath
       clipPathUnits="userSpaceOnUse"
       id="clipPath348">
      <path
         d="m 194.04,303.03 c 0.23,-1.7 1.82,-4.02 2.73,-5.51 v 0 c 1.4,-2.32 3.44,-3.92 5.28,-5.85 v 0 c 2.2,-2.31 5.16,-6.53 4.62,-9.96 v 0 c -0.74,-4.6 -6.31,-3.04 -9.36,-2.35 v 0 c -4.48,1.01 -9.18,-0.16 -13.63,-0.851 v 0 c -6.54,-0.999 -12.92,-2.659 -17.07,-8.179 v 0 c -1.63,-2.16 -2.61,-4.27 -4.01,-6.51 v 0 c -1.4,-2.239 -4.14,-3.27 -6.2,-4.79 v 0 c -2.73,-2 -5.12,-4.6 -7.7,-6.79 v 0 c -0.44,-0.38 -1.83,-1.45 -1.93,-2.04 v 0 c -0.15,-0.87 0.64,-2.119 0.94,-2.891 v 0 c 0.741,-1.879 1.53,-3.349 2.81,-4.859 v 0 c 0.57,-0.68 2.78,-2.88 2.82,-3.811 v 0 c 0.03,-1.029 -0.56,-1.069 -1.38,-1.569 v 0 c -5.02,-3.07 -10.83,-5.23 -16.69,-3.39 v 0 c -0.98,0.3 -2.201,0.94 -3.27,0.7 v 0 c -1.24,-0.28 -2.41,-1.75 -3.27,-2.61 v 0 c -2.761,-2.751 -5.38,-5.56 -8.85,-7.47 v 0 c -6.331,-3.49 -13.03,-8.251 -20.21,-9.63 v 0 C 90.43,212.9 85.8,204.71 77.95,200.35 v 0 c -3.43,-1.9 -7.709,-3.78 -12.06,-4.7 v 0 c 1.43,0.08 2.85,0.17 4.28,0.26 v 0 c 50.84,3.18 101.73,5.19 152.69,4.03 v 0 c 45.45,-1.03 90.62,-4.97 135.96,-7.959 v 0 c 3.43,-0.222 6.86,-0.421 10.28,-0.592 v 0 c -0.97,1.811 -2.24,3.451 -3.78,5.001 v 0 c -4.31,4.341 -9.869,6.32 -15.441,8.54 v 0 c -5.729,2.3 -10.79,5.7 -15.939,9.07 v 0 c -7.99,5.24 -14.64,12.049 -22.46,17.55 v 0 c -3.37,2.36 -7.37,3.69 -10.68,6.1 v 0 c -2.07,1.511 -4.01,3.26 -6.25,4.55 v 0 c -2.59,1.48 -5.63,2.13 -8.58,2.18 v 0 c -0.63,0.013 -1.3,-0.035 -1.98,-0.083 v 0 c -1.85,-0.131 -3.787,-0.261 -5.27,0.842 v 0 c -0.9,0.661 -2.01,1.78 -1.05,2.831 v 0 c 0.66,0.731 3.1,0.44 4.04,0.721 v 0 c 2.33,0.699 4.15,1.859 6.59,2.329 v 0 c 2.84,0.56 5.76,0.72 8.59,1.291 v 0 c 4.84,0.97 8.061,3.779 12.09,6.359 v 0 c 2.69,1.72 7.63,3.02 9.29,5.971 v 0 c 0.91,1.629 0.28,2.909 -0.12,4.519 v 0 c -0.42,1.71 -0.2,2.041 0.99,3.16 v 0 c 1.84,1.73 4.39,4.58 4.909,7.13 v 0 c 0.441,2.17 0.021,4.62 0.441,6.881 v 0 c 0.3,1.649 0.53,3.229 1.28,4.709 v 0 c -4.3,-0.25 -8.29,-2.74 -12.14,-4.54 v 0 c -3.85,-1.81 -7.679,-2.99 -11.66,-4.45 v 0 c -4.02,-1.47 -7.48,-4.04 -11.48,-5.6 v 0 c -4.45,-1.73 -9.02,-3.3 -13.64,-1.75 v 0 c -2.61,0.88 -5.19,1.75 -7.83,2.53 v 0 c -4.33,1.279 -7.72,4.2 -11.82,5.87 v 0 c -2.58,1.05 -6.15,2.05 -8.95,2 v 0 c -3.16,-0.05 -6.08,-1.15 -9.3,-1.12 v 0 c -7.63,0.07 -13.25,0.83 -19.78,5.08 v 0 c -4.08,2.65 -9.13,3.91 -12.94,6.891 v 0 c -3.83,2.999 -4.99,9.249 -9.46,11.169 v 0 c -1.21,-1.11 -2.98,-2.28 -2.73,-4.09"
         id="path346" />
    </clipPath>
    <linearGradient
       x1="0"
       y1="0"
       x2="1"
       y2="0"
       gradientUnits="userSpaceOnUse"
       gradientTransform="matrix(56.666664,188,188,-56.666664,191.73009,108.04117)"
       spreadMethod="pad"
       id="linearGradient358">
      <stop
         style="stop-opacity:1;stop-color:#224b6b"
         offset="0"
         id="stop354" />
      <stop
         style="stop-opacity:1;stop-color:#07172e"
         offset="1"
         id="stop356" />
    </linearGradient>
    <clipPath
       clipPathUnits="userSpaceOnUse"
       id="clipPath368">
      <path
         d="m 588.8,305.86 c -3.48,-0.69 -6.711,-3.84 -9.48,-5.79 v 0 c -9.95,-7.03 -18.76,-15.48 -28.499,-22.78 v 0 c -2.671,-2 -5.391,-3.87 -7.941,-6.03 v 0 c -2.929,-2.49 -5.05,-5.76 -7.99,-8.17 v 0 c -1.63,-1.34 -3.81,-3.15 -5.871,-3.86 v 0 c -3.679,-1.29 -7.089,-2.03 -10.719,-3.71 v 0 c -3.99,-1.83 -7.979,-3.53 -12.319,-4.31 v 0 c -3.901,-0.7 -6.271,0.08 -9.78,1.77 v 0 c -1.521,0.73 -2.891,2.31 -4.441,2.87 v 0 c -0.546,0.197 -1.1,0.165 -1.651,0.132 v 0 c -0.396,-0.022 -0.791,-0.045 -1.179,0.018 v 0 c -1.81,0.27 -3.02,1.31 -4.88,1.77 v 0 c -1.049,0.259 -2.112,0.187 -3.165,0.116 v 0 c -0.975,-0.067 -1.943,-0.133 -2.885,0.064 v 0 c -1.09,0.23 -1.91,0.849 -3,1.11 v 0 c -0.31,0.071 -0.655,0.002 -0.997,-0.067 v 0 c -0.33,-0.066 -0.659,-0.132 -0.953,-0.073 v 0 c -2.11,0.44 -3.939,1.65 -5.99,2.32 v 0 c -2.41,0.79 -4.591,0.37 -6.96,0.91 v 0 c -3.081,0.71 -5.171,3.42 -7.801,4.9 v 0 c -2.348,1.32 -5.109,1.76 -7.539,2.95 v 0 c -2.05,1 -4.1,2.07 -6.18,3.01 v 0 c -3.86,1.76 -10.68,1.5 -14.21,-0.88 v 0 c -0.87,-0.58 -0.76,-0.17 -1.401,-1.06 v 0 c -0.359,-0.51 -0.649,-1.91 -0.959,-2.58 v 0 c -0.81,-1.78 -1.529,-2.51 -3.241,-3.24 v 0 c -4.399,-1.91 -8.589,-5.15 -13.519,-6.04 v 0 c -3.31,-0.6 -6.031,0.589 -9.281,0.84 v 0 c -3.479,0.26 -7.12,-0.31 -10.449,-1.28 v 0 c -5.44,-1.58 -10.53,-2.81 -16.27,-2.82 v 0 c -4.49,0 -8.75,1.12 -13.22,1.07 v 0 c -9.72,-0.09 -19.191,0.01 -28.83,0.98 v 0 c -2.28,0.23 -4.46,0.92 -6.75,1.05 v 0 c -0.884,0.054 -1.77,0.004 -2.653,-0.044 v 0 c -0.924,-0.052 -1.848,-0.103 -2.766,-0.036 v 0 c -1.301,0.099 -2.711,0.58 -4.031,0.59 v 0 c -2.04,0 -3.92,-0.779 -6,-0.64 v 0 c -5.169,0.36 -10.9,1.62 -15.781,3.33 v 0 c -3.489,1.21 -6.979,0.951 -10.629,-0.45 v 0 c -9.47,-3.64 -18.2,-7.37 -28.66,-6.87 v 0 c -5.6,0.27 -10.849,2.151 -16.49,2.09 v 0 c -1.162,-0.009 -2.35,0.029 -3.547,0.067 v 0 c -2.748,0.086 -5.545,0.173 -8.192,-0.307 v 0 C 214.411,255.451 207.2,254.99 199.75,255 v 0 c -8.549,0.01 -16.839,2.13 -25.33,2 v 0 c -1.4,-0.02 -3.389,-0.38 -4.739,0.17 v 0 c -1.221,0.51 -1.281,1.23 -2.212,1.87 v 0 c -0.909,0.62 -1.879,1.52 -3.049,1.42 v 0 c -1.33,-0.121 -3.26,-1.84 -4.35,-2.44 v 0 c -1.67,-0.9 -3.39,-1.68 -5.11,-2.47 v 0 c -5.73,-2.619 -10.8,-5.93 -17.13,-6.92 v 0 c -2.63,-0.41 -5.02,-0.72 -7.39,-2 v 0 c -1.62,-0.871 -2.98,-1.94 -4.82,-2.321 v 0 c -0.85,-0.179 -1.75,-0.159 -2.66,-0.108 v 0 c -1.69,0.089 -3.399,0.259 -4.83,-0.63 v 0 c -1.93,-1.201 -2.86,-4.012 -3.31,-6.091 v 0 c -0.97,-4.46 -0.42,-9.49 1.07,-13.77 v 0 c 2.75,-7.91 8.64,-10.91 15.41,-14.91 v 0 c 14.919,-8.819 31.8,-12.42 48.88,-13.87 v 0 c 32.49,-2.76 64.82,-6.899 97.31,-9.68 v 0 c 27.72,-2.36 55.44,-5.02 83.27,-5.769 v 0 c 24.2,-0.661 48.42,-0.391 72.63,-0.682 v 0 c 56.95,-0.659 113.99,-5.04 170.94,-2.728 v 0 c 40.17,1.62 80.37,5.779 120.201,11.579 v 0 c 4.629,0.67 9.249,1.36 13.859,2.081 v 0 c 3.675,0.571 7.602,1.105 11.61,1.715 v 0 60.506 c -4.619,-0.065 -9.23,-0.685 -13.84,-1.562 v 0 c -5.58,-1.06 -10.071,-1.949 -15.71,-1.4 v 0 c -2.46,0.24 -4.1,1.66 -6.4,2.079 v 0 c -2.89,0.531 -6.31,-1.589 -9.05,-2.339 v 0 c -2.68,-0.732 -5.188,-0.722 -7.87,-0.712 v 0 c -0.432,0 -0.867,0.002 -1.309,0.001 v 0 C 691.31,248.009 687.5,245.99 683,245.981 v 0 c -3.57,0 -6.481,0.039 -9.72,1.669 v 0 c -3.24,1.64 -5.97,4.35 -9.03,6.35 v 0 c -2.719,1.78 -4.96,3.69 -7.25,6 v 0 c -2.26,2.29 -4.469,4.97 -6.95,7.02 v 0 c -1.84,1.53 -4.08,2.37 -6.05,3.73 v 0 c -1.79,1.24 -3.06,2.3 -4.54,3.76 v 0 c -2.3,2.271 -4.68,1.51 -7.58,0.95 v 0 c -3.46,-0.66 -7.411,0.55 -9.46,3.53 v 0 c -0.651,0.941 -0.98,2.16 -1.64,3.06 v 0 c -0.72,0.97 -1.5,1.21 -2.31,1.959 v 0 c -3.3,3.081 -6.26,6.181 -9.229,9.772 v 0 C 605.12,298.759 598.78,302.41 593,305.3 v 0 c -0.973,0.483 -1.932,0.688 -2.877,0.688 v 0 c -0.444,0 -0.885,-0.045 -1.323,-0.128"
         id="path366" />
    </clipPath>
    <linearGradient
       x1="0"
       y1="0"
       x2="1"
       y2="0"
       gradientUnits="userSpaceOnUse"
       gradientTransform="matrix(675.49725,0,0,-675.49725,114.33493,240.69575)"
       spreadMethod="pad"
       id="linearGradient378">
      <stop
         style="stop-opacity:1;stop-color:#0f1511"
         offset="0"
         id="stop374" />
      <stop
         style="stop-opacity:1;stop-color:#2b3c29"
         offset="1"
         id="stop376" />
    </linearGradient>
    <clipPath
       clipPathUnits="userSpaceOnUse"
       id="clipPath388">
      <path
         d="m 588.8,305.86 c -0.69,-1.71 -1.18,-3.63 -1.63,-5.36 v 0 c -0.9,-3.48 -1.45,-6.67 -4.51,-8.65 v 0 c -3.31,-2.15 -6.009,-4.64 -8.12,-7.97 v 0 c -1.87,-2.92 -3.8,-6.06 -5.799,-8.89 v 0 c -0.951,-1.33 -2.051,-2.31 -3.281,-3.39 v 0 c -1.229,-1.07 -2.33,-2.5 -3.77,-3.31 v 0 c -2.091,-1.18 -4.33,-1.91 -6.521,-2.77 v 0 c -0.879,-0.34 -1.638,-0.83 -2.499,-1.21 v 0 c -0.76,-0.33 -2.34,-0.43 -2.95,-1.029 v 0 c -2.88,-2.871 3.94,-3.151 4.971,-3.751 v 0 c 1.219,-0.7 2.039,-1.62 3.459,-2.06 v 0 c 1.88,-0.59 3.841,-0.651 5.72,-1.3 v 0 c 1.41,-0.5 2.8,-1.31 4.23,-1.699 v 0 c 1.309,-0.359 2.681,-0.269 4.054,-0.178 v 0 c 1.238,0.081 2.477,0.163 3.676,-0.083 v 0 c 5.871,-1.179 10.44,-5.11 15.83,-7.47 v 0 c 2.95,-1.29 5.77,-2.74 8.87,-3.59 v 0 c 1.76,-0.48 7.41,-1.62 8.44,-3.14 v 0 c 2.04,-2.98 -5.84,-6.439 -7.621,-7.81 v 0 c -1.529,-1.181 -4.859,-2.96 -4.999,-5.18 v 0 c -0.24,-3.56 5.77,-0.01 7.12,0.53 v 0 c 7,2.79 12.01,-2.741 18.03,-5.43 v 0 c 2.99,-1.34 6.139,-2.17 9.19,-3.361 v 0 c 1.17,-0.478 2.34,-0.959 3.51,-1.439 v 0 c 2.439,-0.91 4.8,-1.99 7.09,-3.23 v 0 c 3.339,-1.05 6.979,-1.26 10.36,-2.21 v 0 c 3.57,-0.99 6.89,-2.899 10.41,-4.08 v 0 c 4.671,-1.55 9.4,-0.76 13.999,-2.07 v 0 c 3.101,-0.88 5.241,-2.79 7.931,-4.421 v 0 c 4.89,-2.96 11.63,-4.229 17.1,-5.779 v 0 c 7.79,-2.2 15.44,-4.96 23.04,-7.74 v 0 c 0.13,-0.05 0.27,-0.1 0.401,-0.14 v 0 c 4.629,0.67 9.249,1.36 13.859,2.081 v 0 c 3.675,0.571 7.602,1.105 11.61,1.715 v 0 60.506 c -4.619,-0.065 -9.23,-0.685 -13.84,-1.562 v 0 c -5.58,-1.06 -10.071,-1.949 -15.71,-1.4 v 0 c -2.46,0.24 -4.1,1.66 -6.4,2.079 v 0 c -2.89,0.531 -6.31,-1.589 -9.05,-2.339 v 0 c -2.68,-0.732 -5.188,-0.722 -7.87,-0.712 v 0 c -0.432,0 -0.867,0.002 -1.309,0.001 v 0 C 691.31,248.009 687.5,245.99 683,245.981 v 0 c -3.57,0 -6.481,0.039 -9.72,1.669 v 0 c -3.24,1.64 -5.97,4.35 -9.03,6.35 v 0 c -2.719,1.78 -4.96,3.69 -7.25,6 v 0 c -2.26,2.29 -4.469,4.97 -6.95,7.02 v 0 c -1.84,1.53 -4.08,2.37 -6.05,3.73 v 0 c -1.79,1.24 -3.06,2.3 -4.54,3.76 v 0 c -2.3,2.271 -4.68,1.51 -7.58,0.95 v 0 c -3.46,-0.66 -7.411,0.55 -9.46,3.53 v 0 c -0.651,0.941 -0.98,2.16 -1.64,3.06 v 0 c -0.72,0.97 -1.5,1.21 -2.31,1.959 v 0 c -3.3,3.081 -6.26,6.181 -9.229,9.772 v 0 C 605.12,298.759 598.78,302.41 593,305.3 v 0 c -0.973,0.483 -1.932,0.688 -2.877,0.688 v 0 c -0.444,0 -0.885,-0.045 -1.323,-0.128"
         id="path386" />
    </clipPath>
    <linearGradient
       x1="0"
       y1="0"
       x2="1"
       y2="0"
       gradientUnits="userSpaceOnUse"
       gradientTransform="matrix(240.81621,0,0,-240.81621,549.01599,246.81921)"
       spreadMethod="pad"
       id="linearGradient398">
      <stop
         style="stop-opacity:1;stop-color:#0f1511"
         offset="0"
         id="stop394" />
      <stop
         style="stop-opacity:1;stop-color:#2b3c29"
         offset="1"
         id="stop396" />
    </linearGradient>
    <clipPath
       clipPathUnits="userSpaceOnUse"
       id="clipPath408">
      <path
         d="m 0,197.441 c 3.609,-1.924 7.213,-3.697 10.68,-5.341 v 0 c 31.03,-14.699 62.87,-29.46 95.21,-41.17 v 0 c 1.85,-0.671 3.71,-1.33 5.561,-1.98 v 0 c 48.61,-17.04 99.039,-28.86 150.349,-33.78 v 0 c 58.32,-5.581 117.509,-6.18 176,-3.85 v 0 c 56.03,2.229 112.67,5 168.25,12.72 v 0 c 46.74,6.491 94.19,14.11 140.04,25.42 v 0 c 1.3,0.321 2.603,0.641 3.91,0.965 v 0 60.779 c -8.979,0.528 -17.97,0.972 -26.94,1.396 v 0 c -9.239,0.43 -18.18,1.37 -27.461,1.31 v 0 c -6.389,-0.04 -12.049,-0.111 -18.279,1.429 v 0 c -8.721,2.161 -16.52,7.892 -24.249,12.401 v 0 c -7.401,4.32 -15.341,8.53 -23.001,12.31 v 0 c -6.56,3.219 -12.55,3.82 -19.749,3.85 v 0 c -9.941,0.05 -19.571,-1.481 -29.591,-1.49 v 0 c -13.671,-0.02 -27.091,-1.54 -40.71,-1.49 v 0 c -9.02,0.03 -18.03,-0.01 -27.04,-0.01 v 0 c -3.58,0 -9.75,-1.09 -13.06,0.3 v 0 c -3.65,1.54 -4.99,6.179 -9.26,7.31 v 0 c -5.46,1.451 -13.061,-2.689 -18.04,-4.239 v 0 C 464.6,241.781 457,239.38 448.5,239.41 v 0 c -5.07,0.02 -9.83,-1.41 -14.911,-1.561 v 0 c -3.969,-0.109 -7.979,0.031 -11.959,0.052 v 0 c -1.958,0.014 -3.835,-0.062 -5.664,-0.137 v 0 c -5.635,-0.233 -10.817,-0.466 -16.515,1.937 v 0 c -4.291,1.809 -7.871,3.689 -12.381,5.139 v 0 c -3.681,1.19 -7.11,2.7 -10.68,4.13 v 0 c -4.55,1.84 -7.06,3.44 -10.68,6.561 v 0 c -1.4,1.209 -3.59,2.969 -5.71,3.829 v 0 c -1.29,0.53 -2.55,0.73 -3.59,0.28 v 0 c -1.401,-0.6 -2.42,-2.13 -3.88,-2.84 v 0 c -1.88,-0.93 -3.98,-1.05 -5.94,-1.78 v 0 c -3.1,-1.16 -6.21,-2.58 -9.25,-3.87 v 0 c -9.27,-3.93 -16.57,-13.03 -26.7,-14.57 v 0 c -7.29,-1.1 -13.96,-3.97 -21.12,-5.879 v 0 c -6.98,-1.862 -13.86,-1.761 -21.07,-1.791 v 0 c -7.72,-0.02 -14.56,1.871 -22.169,2.871 v 0 C 237.9,232.88 230.6,231.42 222.439,234.53 v 0 c -2.389,0.91 -4.509,1.36 -6.959,2.05 v 0 c -2.18,0.61 -3.949,2.14 -6.13,2.7 v 0 c -4.69,1.22 -9.2,1.6 -14.17,1.62 v 0 c -5.98,0.041 -11.52,-1.919 -17.39,-3.16 v 0 c -7.43,-1.56 -14.18,-5.37 -21.99,-4.009 v 0 c -9.01,1.559 -15.19,7.249 -22.93,11.679 v 0 c -4.78,2.73 -9.169,4.78 -13.14,8.59 v 0 c -3.41,3.27 -7.21,6.08 -10.879,9.03 v 0 c -6.641,5.35 -13.711,10.64 -19.911,16.46 v 0 c -3.07,2.88 -5.91,5.599 -9.23,8.21 v 0 c -4.3,3.39 -9.32,6.25 -13.38,9.83 v 0 c -6.629,5.83 -10.7,12.001 -19.99,13.61 v 0 c -5.27,0.91 -10.02,-1.02 -15.22,-1.31 v 0 c -8.49,-0.46 -17.3,-0.18 -25.63,1.47 v 0 c -1.682,0.333 -3.565,1.143 -5.49,1.963 v 0 z"
         id="path406" />
    </clipPath>
    <linearGradient
       x1="0"
       y1="0"
       x2="1"
       y2="0"
       gradientUnits="userSpaceOnUse"
       gradientTransform="matrix(310,204.66667,204.66667,-310,265.73224,156.58038)"
       spreadMethod="pad"
       id="linearGradient418">
      <stop
         style="stop-opacity:1;stop-color:#5e790e"
         offset="0"
         id="stop414" />
      <stop
         style="stop-opacity:1;stop-color:#2b3c29"
         offset="1"
         id="stop416" />
    </linearGradient>
    <clipPath
       clipPathUnits="userSpaceOnUse"
       id="clipPath428">
      <path
         d="m 0,197.441 c 3.609,-1.924 7.213,-3.697 10.68,-5.341 v 0 c 31.03,-14.699 62.87,-29.46 95.21,-41.17 v 0 c 1.76,0.26 3.52,0.54 5.27,0.86 v 0 c 8.52,1.55 17.07,3.37 25.29,6.12 v 0 c 10.309,3.45 20.07,8.29 29.82,13.031 v 0 c 13.58,6.609 27.09,14.068 41.589,18.559 v 0 c 11.281,3.491 23.131,4.8 34.751,6.65 v 0 c 7.82,1.251 15.58,3.3 23.14,5.68 v 0 c 3.68,1.16 7.53,2.31 10.86,4.32 v 0 c 2.48,1.501 3.5,4.159 6.031,5.57 v 0 c 2.959,1.681 5.139,0.74 8.359,0.56 v 0 c 3.46,-0.191 5.73,0.91 8.87,2.09 v 0 c 4.57,1.71 9.699,1.42 13.96,4.05 v 0 c 2.78,1.72 4.31,4.78 6.82,6.79 v 0 c 1.93,1.549 4.22,2.89 6.68,3.349 v 0 c 1.665,0.313 3.359,0.143 5.056,-0.026 v 0 c 2.105,-0.211 4.218,-0.422 6.294,0.287 v 0 c 1.57,0.541 2.75,1.05 3.97,2.16 v 0 c 1.16,1.07 2.43,2.39 4.03,2.73 v 0 c 0.503,0.107 1.257,0.02 2.047,-0.067 v 0 c 1.405,-0.156 2.923,-0.312 3.333,0.637 v 0 c 0.73,1.71 -1.24,1.6 -1.91,2.17 v 0 c -0.93,0.78 -1.24,2.241 -2.12,3.07 v 0 c -0.62,0.579 -1.77,1.25 -2.55,1.68 v 0 c -0.658,0.358 -1.101,0.345 -1.612,0.332 v 0 c -0.343,-0.008 -0.718,-0.017 -1.208,0.088 v 0 c -1.43,0.3 -1.34,1.05 -0.67,2.041 v 0 c 0.75,1.108 2.14,1.629 3.33,2.489 v 0 c 2.45,1.779 5.41,2.56 7.16,5 v 0 c 1.87,2.591 4.6,3.959 6.53,6.65 v 0 c 0.39,0.54 0.72,1.06 0.99,1.56 v 0 c -1.29,0.53 -2.55,0.73 -3.59,0.28 v 0 c -1.401,-0.6 -2.42,-2.13 -3.88,-2.84 v 0 c -1.88,-0.93 -3.98,-1.05 -5.94,-1.78 v 0 c -3.1,-1.16 -6.21,-2.58 -9.25,-3.87 v 0 c -9.27,-3.93 -16.57,-13.03 -26.7,-14.57 v 0 c -7.29,-1.1 -13.96,-3.97 -21.12,-5.879 v 0 c -6.98,-1.862 -13.86,-1.761 -21.07,-1.791 v 0 c -7.72,-0.02 -14.56,1.871 -22.169,2.871 v 0 C 237.9,232.88 230.6,231.42 222.439,234.53 v 0 c -2.389,0.91 -4.509,1.36 -6.959,2.05 v 0 c -2.18,0.61 -3.949,2.14 -6.13,2.7 v 0 c -4.69,1.22 -9.2,1.6 -14.17,1.62 v 0 c -5.98,0.041 -11.52,-1.919 -17.39,-3.16 v 0 c -7.43,-1.56 -14.18,-5.37 -21.99,-4.009 v 0 c -9.01,1.559 -15.19,7.249 -22.93,11.679 v 0 c -4.78,2.73 -9.169,4.78 -13.14,8.59 v 0 c -3.41,3.27 -7.21,6.08 -10.879,9.03 v 0 c -6.641,5.35 -13.711,10.64 -19.911,16.46 v 0 c -3.07,2.88 -5.91,5.599 -9.23,8.21 v 0 c -4.3,3.39 -9.32,6.25 -13.38,9.83 v 0 c -6.629,5.83 -10.7,12.001 -19.99,13.61 v 0 c -5.27,0.91 -10.02,-1.02 -15.22,-1.31 v 0 c -8.49,-0.46 -17.3,-0.18 -25.63,1.47 v 0 c -1.682,0.333 -3.565,1.143 -5.49,1.963 v 0 z"
         id="path426" />
    </clipPath>
    <linearGradient
       x1="0"
       y1="0"
       x2="1"
       y2="0"
       gradientUnits="userSpaceOnUse"
       gradientTransform="matrix(410,44.666664,44.666664,-410,-16.427042,226.08405)"
       spreadMethod="pad"
       id="linearGradient438">
      <stop
         style="stop-opacity:1;stop-color:#5e790e"
         offset="0"
         id="stop434" />
      <stop
         style="stop-opacity:1;stop-color:#2b3c29"
         offset="1"
         id="stop436" />
    </linearGradient>
    <clipPath
       clipPathUnits="userSpaceOnUse"
       id="clipPath448">
      <path
         d="M 0,0 H 750 V 222.911 H 0 Z"
         id="path446" />
    </clipPath>
    <linearGradient
       x1="0"
       y1="0"
       x2="1"
       y2="0"
       gradientUnits="userSpaceOnUse"
       gradientTransform="matrix(0,174.2236,174.2236,0,374.34048,85.701752)"
       spreadMethod="pad"
       id="linearGradient458">
      <stop
         style="stop-opacity:1;stop-color:#bddfeb"
         offset="0"
         id="stop454" />
      <stop
         style="stop-opacity:1;stop-color:#028cbb"
         offset="1"
         id="stop456" />
    </linearGradient>
  </defs>
  <sodipodi:namedview
     id="namedview4"
     pagecolor="#ffffff"
     bordercolor="#000000"
     borderopacity="0.25"
     inkscape:showpageshadow="2"
     inkscape:pageopacity="0.0"
     inkscape:pagecheckerboard="0"
     inkscape:deskcolor="#d1d1d1"
     showgrid="false"
     inkscape:zoom="0.98549997"
     inkscape:cx="501.77576"
     inkscape:cy="380.51752"
     inkscape:window-width="1600"
     inkscape:window-height="837"
     inkscape:window-x="-8"
     inkscape:window-y="-8"
     inkscape:window-maximized="1"
     inkscape:current-layer="g10" />
  <g
     id="g10"
     inkscape:groupmode="layer"
     inkscape:label="Page 1"
     transform="matrix(1.3333333,0,0,-1.3333333,0,430.73732)">
    <g
       id="g32">
      <g
         id="g34"
         clip-path="url(#clipPath38)">
        <g
           id="g40">
          <g
             id="g42">
            <path
               d="m 57.14,195.12 c 0.36,0.02 0.72,0.04 1.08,0.07 v 0 c -0.91,0.11 -1.8,0.3 -2.67,0.57 v 0 c 0.54,-0.18 1.07,-0.4 1.59,-0.64"
               style="fill:url(#linearGradient48);stroke:none"
               id="path50" />
          </g>
        </g>
      </g>
    </g>
    <g
       id="g322">
      <g
         id="g324"
         clip-path="url(#clipPath328)">
        <g
           id="g330">
          <g
             id="g332">
            <path
               d="m 59.05,323 c -3.81,-0.41 -8.02,-2.67 -10.91,-5.1 v 0 c -5.59,-4.69 -10.49,-7.78 -17.55,-9.961 v 0 C 20.245,304.752 10.446,303.715 0,304.168 v 0 -109.178 c 19.139,-1.598 38.08,-0.958 57.14,0.13 v 0 c 0.36,0.02 0.72,0.04 1.08,0.07 v 0 c 2.55,0.14 5.11,0.3 7.67,0.46 v 0 c 1.43,0.08 2.85,0.17 4.28,0.26 v 0 c 50.84,3.18 101.73,5.19 152.69,4.03 v 0 c 45.45,-1.03 90.62,-4.97 135.96,-7.959 v 0 c 3.43,-0.222 6.86,-0.421 10.28,-0.592 v 0 c 36.329,-1.87 72.329,-0.959 108.73,0.592 v 0 c 32.77,1.408 65.59,2.539 98.32,4.459 v 0 c 24.119,1.421 48.19,3.81 72.31,5.29 v 0 c 18.191,1.11 37.07,2.8 54.81,7.18 v 0 c 12.14,2.99 24.079,7.32 35.41,12.6 v 0 c 3.804,1.772 7.591,3.578 11.32,5.499 v 0 47.563 c -0.014,0.002 -0.027,0.005 -0.04,0.008 v 0 c -5.03,1.06 -9.92,2.99 -15.07,3.43 v 0 c -6.79,0.59 -10.39,-2.08 -16.21,-4.86 v 0 c -2.05,-0.98 -4.319,-2.15 -6.65,-2.021 v 0 c -1.31,0.072 -2.36,0.641 -3.65,0.701 v 0 c -2.81,0.12 -6.17,-1.55 -8.85,-2.22 v 0 c -4.19,-1.04 -8.199,-1.65 -12.53,-1.66 v 0 c -3.92,0 -7.63,0.81 -11.51,1.05 v 0 c -2.38,0.15 -5.71,1.39 -8.03,1 v 0 c -2.27,-0.38 -5.611,-2.92 -7.621,-4.15 v 0 c -4.438,-2.74 -8.259,-6.3 -12.95,-8.69 v 0 c -7.229,-3.689 -14.509,-4.26 -22.469,-3.24 v 0 c -6.54,0.839 -12.939,2.46 -19.54,2.88 v 0 c -6.85,0.44 -13.621,0.08 -20.451,0.91 v 0 c -5.399,0.65 -10.579,1.71 -15.778,3.29 v 0 c -5.051,1.54 -10.08,3.94 -15.431,4.05 v 0 c -7.02,0.15 -13.92,0.91 -21.001,0.95 v 0 c -3.099,0.009 -5.929,0.17 -8.909,-0.93 v 0 c -5.56,-2.06 -11.13,-3.85 -17.001,-4.89 v 0 c -14.799,-2.62 -29.479,2.33 -44.209,2.86 v 0 c -9.06,0.32 -17.44,0.25 -26.45,-0.79 v 0 c -8.721,-1.01 -17.261,-1.24 -26.011,-1.24 v 0 c -4.619,0 -9.579,-0.66 -14.009,0.921 v 0 c -3.37,1.199 -6.45,3.099 -9.7,4.569 v 0 c -6.621,2.991 -13.93,6.39 -20.93,8.3 v 0 c -3.54,0.97 -7.04,1.3 -10.5,2.65 v 0 c -3.39,1.33 -6.18,3.27 -9.38,4.95 v 0 c -3.21,1.7 -6.47,3.31 -9.69,5.01 v 0 c -2.78,1.47 -5.25,3.51 -8.43,3.65 v 0 c -0.41,0.02 -0.82,0.01 -1.23,-0.02 v 0 c -4.3,-0.25 -8.29,-2.74 -12.14,-4.54 v 0 c -3.85,-1.81 -7.679,-2.99 -11.66,-4.45 v 0 c -4.02,-1.47 -7.48,-4.04 -11.48,-5.6 v 0 c -4.45,-1.73 -9.02,-3.3 -13.64,-1.75 v 0 c -2.61,0.88 -5.19,1.75 -7.83,2.53 v 0 c -4.33,1.279 -7.72,4.2 -11.82,5.87 v 0 c -2.58,1.05 -6.15,2.05 -8.95,2 v 0 c -3.16,-0.05 -6.08,-1.15 -9.3,-1.12 v 0 c -7.63,0.07 -13.25,0.83 -19.78,5.08 v 0 c -4.08,2.65 -9.13,3.91 -12.94,6.891 v 0 c -3.83,2.999 -4.99,9.249 -9.46,11.169 v 0 c -0.18,0.081 -0.37,0.161 -0.57,0.22 v 0 c -2.4,0.79 -5.67,-0.751 -8.38,-1.34 v 0 c -9.45,-2.04 -19.929,-3.09 -29.57,-3.029 v 0 c -11.18,0.079 -21.76,-1.211 -32.67,-3.601 v 0 c -4.111,-0.899 -7.919,-2.43 -12.08,-0.76 v 0 c -3.42,1.37 -5.189,4.74 -8.45,6.459 v 0 c -6.52,3.451 -13.111,2.06 -19.97,3.381 v 0 c -7.6,1.469 -12.37,7.37 -18.49,11.6 v 0 c -2.315,1.603 -3.914,3.003 -6.605,3.003 v 0 c -0.298,0 -0.609,-0.017 -0.935,-0.053"
               style="fill:url(#linearGradient338);stroke:none"
               id="path340" />
          </g>
        </g>
      </g>
    </g>
    <g
       id="g342">
      <g
         id="g344"
         clip-path="url(#clipPath348)">
        <g
           id="g350">
          <g
             id="g352">
            <path
               d="m 194.04,303.03 c 0.23,-1.7 1.82,-4.02 2.73,-5.51 v 0 c 1.4,-2.32 3.44,-3.92 5.28,-5.85 v 0 c 2.2,-2.31 5.16,-6.53 4.62,-9.96 v 0 c -0.74,-4.6 -6.31,-3.04 -9.36,-2.35 v 0 c -4.48,1.01 -9.18,-0.16 -13.63,-0.851 v 0 c -6.54,-0.999 -12.92,-2.659 -17.07,-8.179 v 0 c -1.63,-2.16 -2.61,-4.27 -4.01,-6.51 v 0 c -1.4,-2.239 -4.14,-3.27 -6.2,-4.79 v 0 c -2.73,-2 -5.12,-4.6 -7.7,-6.79 v 0 c -0.44,-0.38 -1.83,-1.45 -1.93,-2.04 v 0 c -0.15,-0.87 0.64,-2.119 0.94,-2.891 v 0 c 0.741,-1.879 1.53,-3.349 2.81,-4.859 v 0 c 0.57,-0.68 2.78,-2.88 2.82,-3.811 v 0 c 0.03,-1.029 -0.56,-1.069 -1.38,-1.569 v 0 c -5.02,-3.07 -10.83,-5.23 -16.69,-3.39 v 0 c -0.98,0.3 -2.201,0.94 -3.27,0.7 v 0 c -1.24,-0.28 -2.41,-1.75 -3.27,-2.61 v 0 c -2.761,-2.751 -5.38,-5.56 -8.85,-7.47 v 0 c -6.331,-3.49 -13.03,-8.251 -20.21,-9.63 v 0 C 90.43,212.9 85.8,204.71 77.95,200.35 v 0 c -3.43,-1.9 -7.709,-3.78 -12.06,-4.7 v 0 c 1.43,0.08 2.85,0.17 4.28,0.26 v 0 c 50.84,3.18 101.73,5.19 152.69,4.03 v 0 c 45.45,-1.03 90.62,-4.97 135.96,-7.959 v 0 c 3.43,-0.222 6.86,-0.421 10.28,-0.592 v 0 c -0.97,1.811 -2.24,3.451 -3.78,5.001 v 0 c -4.31,4.341 -9.869,6.32 -15.441,8.54 v 0 c -5.729,2.3 -10.79,5.7 -15.939,9.07 v 0 c -7.99,5.24 -14.64,12.049 -22.46,17.55 v 0 c -3.37,2.36 -7.37,3.69 -10.68,6.1 v 0 c -2.07,1.511 -4.01,3.26 -6.25,4.55 v 0 c -2.59,1.48 -5.63,2.13 -8.58,2.18 v 0 c -0.63,0.013 -1.3,-0.035 -1.98,-0.083 v 0 c -1.85,-0.131 -3.787,-0.261 -5.27,0.842 v 0 c -0.9,0.661 -2.01,1.78 -1.05,2.831 v 0 c 0.66,0.731 3.1,0.44 4.04,0.721 v 0 c 2.33,0.699 4.15,1.859 6.59,2.329 v 0 c 2.84,0.56 5.76,0.72 8.59,1.291 v 0 c 4.84,0.97 8.061,3.779 12.09,6.359 v 0 c 2.69,1.72 7.63,3.02 9.29,5.971 v 0 c 0.91,1.629 0.28,2.909 -0.12,4.519 v 0 c -0.42,1.71 -0.2,2.041 0.99,3.16 v 0 c 1.84,1.73 4.39,4.58 4.909,7.13 v 0 c 0.441,2.17 0.021,4.62 0.441,6.881 v 0 c 0.3,1.649 0.53,3.229 1.28,4.709 v 0 c -4.3,-0.25 -8.29,-2.74 -12.14,-4.54 v 0 c -3.85,-1.81 -7.679,-2.99 -11.66,-4.45 v 0 c -4.02,-1.47 -7.48,-4.04 -11.48,-5.6 v 0 c -4.45,-1.73 -9.02,-3.3 -13.64,-1.75 v 0 c -2.61,0.88 -5.19,1.75 -7.83,2.53 v 0 c -4.33,1.279 -7.72,4.2 -11.82,5.87 v 0 c -2.58,1.05 -6.15,2.05 -8.95,2 v 0 c -3.16,-0.05 -6.08,-1.15 -9.3,-1.12 v 0 c -7.63,0.07 -13.25,0.83 -19.78,5.08 v 0 c -4.08,2.65 -9.13,3.91 -12.94,6.891 v 0 c -3.83,2.999 -4.99,9.249 -9.46,11.169 v 0 c -1.21,-1.11 -2.98,-2.28 -2.73,-4.09"
               style="fill:url(#linearGradient358);stroke:none"
               id="path360" />
          </g>
        </g>
      </g>
    </g>
    <g
       id="g362">
      <g
         id="g364"
         clip-path="url(#clipPath368)">
        <g
           id="g370">
          <g
             id="g372">
            <path
               d="m 588.8,305.86 c -3.48,-0.69 -6.711,-3.84 -9.48,-5.79 v 0 c -9.95,-7.03 -18.76,-15.48 -28.499,-22.78 v 0 c -2.671,-2 -5.391,-3.87 -7.941,-6.03 v 0 c -2.929,-2.49 -5.05,-5.76 -7.99,-8.17 v 0 c -1.63,-1.34 -3.81,-3.15 -5.871,-3.86 v 0 c -3.679,-1.29 -7.089,-2.03 -10.719,-3.71 v 0 c -3.99,-1.83 -7.979,-3.53 -12.319,-4.31 v 0 c -3.901,-0.7 -6.271,0.08 -9.78,1.77 v 0 c -1.521,0.73 -2.891,2.31 -4.441,2.87 v 0 c -0.546,0.197 -1.1,0.165 -1.651,0.132 v 0 c -0.396,-0.022 -0.791,-0.045 -1.179,0.018 v 0 c -1.81,0.27 -3.02,1.31 -4.88,1.77 v 0 c -1.049,0.259 -2.112,0.187 -3.165,0.116 v 0 c -0.975,-0.067 -1.943,-0.133 -2.885,0.064 v 0 c -1.09,0.23 -1.91,0.849 -3,1.11 v 0 c -0.31,0.071 -0.655,0.002 -0.997,-0.067 v 0 c -0.33,-0.066 -0.659,-0.132 -0.953,-0.073 v 0 c -2.11,0.44 -3.939,1.65 -5.99,2.32 v 0 c -2.41,0.79 -4.591,0.37 -6.96,0.91 v 0 c -3.081,0.71 -5.171,3.42 -7.801,4.9 v 0 c -2.348,1.32 -5.109,1.76 -7.539,2.95 v 0 c -2.05,1 -4.1,2.07 -6.18,3.01 v 0 c -3.86,1.76 -10.68,1.5 -14.21,-0.88 v 0 c -0.87,-0.58 -0.76,-0.17 -1.401,-1.06 v 0 c -0.359,-0.51 -0.649,-1.91 -0.959,-2.58 v 0 c -0.81,-1.78 -1.529,-2.51 -3.241,-3.24 v 0 c -4.399,-1.91 -8.589,-5.15 -13.519,-6.04 v 0 c -3.31,-0.6 -6.031,0.589 -9.281,0.84 v 0 c -3.479,0.26 -7.12,-0.31 -10.449,-1.28 v 0 c -5.44,-1.58 -10.53,-2.81 -16.27,-2.82 v 0 c -4.49,0 -8.75,1.12 -13.22,1.07 v 0 c -9.72,-0.09 -19.191,0.01 -28.83,0.98 v 0 c -2.28,0.23 -4.46,0.92 -6.75,1.05 v 0 c -0.884,0.054 -1.77,0.004 -2.653,-0.044 v 0 c -0.924,-0.052 -1.848,-0.103 -2.766,-0.036 v 0 c -1.301,0.099 -2.711,0.58 -4.031,0.59 v 0 c -2.04,0 -3.92,-0.779 -6,-0.64 v 0 c -5.169,0.36 -10.9,1.62 -15.781,3.33 v 0 c -3.489,1.21 -6.979,0.951 -10.629,-0.45 v 0 c -9.47,-3.64 -18.2,-7.37 -28.66,-6.87 v 0 c -5.6,0.27 -10.849,2.151 -16.49,2.09 v 0 c -1.162,-0.009 -2.35,0.029 -3.547,0.067 v 0 c -2.748,0.086 -5.545,0.173 -8.192,-0.307 v 0 C 214.411,255.451 207.2,254.99 199.75,255 v 0 c -8.549,0.01 -16.839,2.13 -25.33,2 v 0 c -1.4,-0.02 -3.389,-0.38 -4.739,0.17 v 0 c -1.221,0.51 -1.281,1.23 -2.212,1.87 v 0 c -0.909,0.62 -1.879,1.52 -3.049,1.42 v 0 c -1.33,-0.121 -3.26,-1.84 -4.35,-2.44 v 0 c -1.67,-0.9 -3.39,-1.68 -5.11,-2.47 v 0 c -5.73,-2.619 -10.8,-5.93 -17.13,-6.92 v 0 c -2.63,-0.41 -5.02,-0.72 -7.39,-2 v 0 c -1.62,-0.871 -2.98,-1.94 -4.82,-2.321 v 0 c -0.85,-0.179 -1.75,-0.159 -2.66,-0.108 v 0 c -1.69,0.089 -3.399,0.259 -4.83,-0.63 v 0 c -1.93,-1.201 -2.86,-4.012 -3.31,-6.091 v 0 c -0.97,-4.46 -0.42,-9.49 1.07,-13.77 v 0 c 2.75,-7.91 8.64,-10.91 15.41,-14.91 v 0 c 14.919,-8.819 31.8,-12.42 48.88,-13.87 v 0 c 32.49,-2.76 64.82,-6.899 97.31,-9.68 v 0 c 27.72,-2.36 55.44,-5.02 83.27,-5.769 v 0 c 24.2,-0.661 48.42,-0.391 72.63,-0.682 v 0 c 56.95,-0.659 113.99,-5.04 170.94,-2.728 v 0 c 40.17,1.62 80.37,5.779 120.201,11.579 v 0 c 4.629,0.67 9.249,1.36 13.859,2.081 v 0 c 3.675,0.571 7.602,1.105 11.61,1.715 v 0 60.506 c -4.619,-0.065 -9.23,-0.685 -13.84,-1.562 v 0 c -5.58,-1.06 -10.071,-1.949 -15.71,-1.4 v 0 c -2.46,0.24 -4.1,1.66 -6.4,2.079 v 0 c -2.89,0.531 -6.31,-1.589 -9.05,-2.339 v 0 c -2.68,-0.732 -5.188,-0.722 -7.87,-0.712 v 0 c -0.432,0 -0.867,0.002 -1.309,0.001 v 0 C 691.31,248.009 687.5,245.99 683,245.981 v 0 c -3.57,0 -6.481,0.039 -9.72,1.669 v 0 c -3.24,1.64 -5.97,4.35 -9.03,6.35 v 0 c -2.719,1.78 -4.96,3.69 -7.25,6 v 0 c -2.26,2.29 -4.469,4.97 -6.95,7.02 v 0 c -1.84,1.53 -4.08,2.37 -6.05,3.73 v 0 c -1.79,1.24 -3.06,2.3 -4.54,3.76 v 0 c -2.3,2.271 -4.68,1.51 -7.58,0.95 v 0 c -3.46,-0.66 -7.411,0.55 -9.46,3.53 v 0 c -0.651,0.941 -0.98,2.16 -1.64,3.06 v 0 c -0.72,0.97 -1.5,1.21 -2.31,1.959 v 0 c -3.3,3.081 -6.26,6.181 -9.229,9.772 v 0 C 605.12,298.759 598.78,302.41 593,305.3 v 0 c -0.973,0.483 -1.932,0.688 -2.877,0.688 v 0 c -0.444,0 -0.885,-0.045 -1.323,-0.128"
               style="fill:url(#linearGradient378);stroke:none"
               id="path380" />
          </g>
        </g>
      </g>
    </g>
    <g
       id="g382">
      <g
         id="g384"
         clip-path="url(#clipPath388)">
        <g
           id="g390">
          <g
             id="g392">
            <path
               d="m 588.8,305.86 c -0.69,-1.71 -1.18,-3.63 -1.63,-5.36 v 0 c -0.9,-3.48 -1.45,-6.67 -4.51,-8.65 v 0 c -3.31,-2.15 -6.009,-4.64 -8.12,-7.97 v 0 c -1.87,-2.92 -3.8,-6.06 -5.799,-8.89 v 0 c -0.951,-1.33 -2.051,-2.31 -3.281,-3.39 v 0 c -1.229,-1.07 -2.33,-2.5 -3.77,-3.31 v 0 c -2.091,-1.18 -4.33,-1.91 -6.521,-2.77 v 0 c -0.879,-0.34 -1.638,-0.83 -2.499,-1.21 v 0 c -0.76,-0.33 -2.34,-0.43 -2.95,-1.029 v 0 c -2.88,-2.871 3.94,-3.151 4.971,-3.751 v 0 c 1.219,-0.7 2.039,-1.62 3.459,-2.06 v 0 c 1.88,-0.59 3.841,-0.651 5.72,-1.3 v 0 c 1.41,-0.5 2.8,-1.31 4.23,-1.699 v 0 c 1.309,-0.359 2.681,-0.269 4.054,-0.178 v 0 c 1.238,0.081 2.477,0.163 3.676,-0.083 v 0 c 5.871,-1.179 10.44,-5.11 15.83,-7.47 v 0 c 2.95,-1.29 5.77,-2.74 8.87,-3.59 v 0 c 1.76,-0.48 7.41,-1.62 8.44,-3.14 v 0 c 2.04,-2.98 -5.84,-6.439 -7.621,-7.81 v 0 c -1.529,-1.181 -4.859,-2.96 -4.999,-5.18 v 0 c -0.24,-3.56 5.77,-0.01 7.12,0.53 v 0 c 7,2.79 12.01,-2.741 18.03,-5.43 v 0 c 2.99,-1.34 6.139,-2.17 9.19,-3.361 v 0 c 1.17,-0.478 2.34,-0.959 3.51,-1.439 v 0 c 2.439,-0.91 4.8,-1.99 7.09,-3.23 v 0 c 3.339,-1.05 6.979,-1.26 10.36,-2.21 v 0 c 3.57,-0.99 6.89,-2.899 10.41,-4.08 v 0 c 4.671,-1.55 9.4,-0.76 13.999,-2.07 v 0 c 3.101,-0.88 5.241,-2.79 7.931,-4.421 v 0 c 4.89,-2.96 11.63,-4.229 17.1,-5.779 v 0 c 7.79,-2.2 15.44,-4.96 23.04,-7.74 v 0 c 0.13,-0.05 0.27,-0.1 0.401,-0.14 v 0 c 4.629,0.67 9.249,1.36 13.859,2.081 v 0 c 3.675,0.571 7.602,1.105 11.61,1.715 v 0 60.506 c -4.619,-0.065 -9.23,-0.685 -13.84,-1.562 v 0 c -5.58,-1.06 -10.071,-1.949 -15.71,-1.4 v 0 c -2.46,0.24 -4.1,1.66 -6.4,2.079 v 0 c -2.89,0.531 -6.31,-1.589 -9.05,-2.339 v 0 c -2.68,-0.732 -5.188,-0.722 -7.87,-0.712 v 0 c -0.432,0 -0.867,0.002 -1.309,0.001 v 0 C 691.31,248.009 687.5,245.99 683,245.981 v 0 c -3.57,0 -6.481,0.039 -9.72,1.669 v 0 c -3.24,1.64 -5.97,4.35 -9.03,6.35 v 0 c -2.719,1.78 -4.96,3.69 -7.25,6 v 0 c -2.26,2.29 -4.469,4.97 -6.95,7.02 v 0 c -1.84,1.53 -4.08,2.37 -6.05,3.73 v 0 c -1.79,1.24 -3.06,2.3 -4.54,3.76 v 0 c -2.3,2.271 -4.68,1.51 -7.58,0.95 v 0 c -3.46,-0.66 -7.411,0.55 -9.46,3.53 v 0 c -0.651,0.941 -0.98,2.16 -1.64,3.06 v 0 c -0.72,0.97 -1.5,1.21 -2.31,1.959 v 0 c -3.3,3.081 -6.26,6.181 -9.229,9.772 v 0 C 605.12,298.759 598.78,302.41 593,305.3 v 0 c -0.973,0.483 -1.932,0.688 -2.877,0.688 v 0 c -0.444,0 -0.885,-0.045 -1.323,-0.128"
               style="fill:url(#linearGradient398);stroke:none"
               id="path400" />
          </g>
        </g>
      </g>
    </g>
    <g
       id="g402">
      <g
         id="g404"
         clip-path="url(#clipPath408)">
        <g
           id="g410">
          <g
             id="g412">
            <path
               d="m 0,197.441 c 3.609,-1.924 7.213,-3.697 10.68,-5.341 v 0 c 31.03,-14.699 62.87,-29.46 95.21,-41.17 v 0 c 1.85,-0.671 3.71,-1.33 5.561,-1.98 v 0 c 48.61,-17.04 99.039,-28.86 150.349,-33.78 v 0 c 58.32,-5.581 117.509,-6.18 176,-3.85 v 0 c 56.03,2.229 112.67,5 168.25,12.72 v 0 c 46.74,6.491 94.19,14.11 140.04,25.42 v 0 c 1.3,0.321 2.603,0.641 3.91,0.965 v 0 60.779 c -8.979,0.528 -17.97,0.972 -26.94,1.396 v 0 c -9.239,0.43 -18.18,1.37 -27.461,1.31 v 0 c -6.389,-0.04 -12.049,-0.111 -18.279,1.429 v 0 c -8.721,2.161 -16.52,7.892 -24.249,12.401 v 0 c -7.401,4.32 -15.341,8.53 -23.001,12.31 v 0 c -6.56,3.219 -12.55,3.82 -19.749,3.85 v 0 c -9.941,0.05 -19.571,-1.481 -29.591,-1.49 v 0 c -13.671,-0.02 -27.091,-1.54 -40.71,-1.49 v 0 c -9.02,0.03 -18.03,-0.01 -27.04,-0.01 v 0 c -3.58,0 -9.75,-1.09 -13.06,0.3 v 0 c -3.65,1.54 -4.99,6.179 -9.26,7.31 v 0 c -5.46,1.451 -13.061,-2.689 -18.04,-4.239 v 0 C 464.6,241.781 457,239.38 448.5,239.41 v 0 c -5.07,0.02 -9.83,-1.41 -14.911,-1.561 v 0 c -3.969,-0.109 -7.979,0.031 -11.959,0.052 v 0 c -1.958,0.014 -3.835,-0.062 -5.664,-0.137 v 0 c -5.635,-0.233 -10.817,-0.466 -16.515,1.937 v 0 c -4.291,1.809 -7.871,3.689 -12.381,5.139 v 0 c -3.681,1.19 -7.11,2.7 -10.68,4.13 v 0 c -4.55,1.84 -7.06,3.44 -10.68,6.561 v 0 c -1.4,1.209 -3.59,2.969 -5.71,3.829 v 0 c -1.29,0.53 -2.55,0.73 -3.59,0.28 v 0 c -1.401,-0.6 -2.42,-2.13 -3.88,-2.84 v 0 c -1.88,-0.93 -3.98,-1.05 -5.94,-1.78 v 0 c -3.1,-1.16 -6.21,-2.58 -9.25,-3.87 v 0 c -9.27,-3.93 -16.57,-13.03 -26.7,-14.57 v 0 c -7.29,-1.1 -13.96,-3.97 -21.12,-5.879 v 0 c -6.98,-1.862 -13.86,-1.761 -21.07,-1.791 v 0 c -7.72,-0.02 -14.56,1.871 -22.169,2.871 v 0 C 237.9,232.88 230.6,231.42 222.439,234.53 v 0 c -2.389,0.91 -4.509,1.36 -6.959,2.05 v 0 c -2.18,0.61 -3.949,2.14 -6.13,2.7 v 0 c -4.69,1.22 -9.2,1.6 -14.17,1.62 v 0 c -5.98,0.041 -11.52,-1.919 -17.39,-3.16 v 0 c -7.43,-1.56 -14.18,-5.37 -21.99,-4.009 v 0 c -9.01,1.559 -15.19,7.249 -22.93,11.679 v 0 c -4.78,2.73 -9.169,4.78 -13.14,8.59 v 0 c -3.41,3.27 -7.21,6.08 -10.879,9.03 v 0 c -6.641,5.35 -13.711,10.64 -19.911,16.46 v 0 c -3.07,2.88 -5.91,5.599 -9.23,8.21 v 0 c -4.3,3.39 -9.32,6.25 -13.38,9.83 v 0 c -6.629,5.83 -10.7,12.001 -19.99,13.61 v 0 c -5.27,0.91 -10.02,-1.02 -15.22,-1.31 v 0 c -8.49,-0.46 -17.3,-0.18 -25.63,1.47 v 0 c -1.682,0.333 -3.565,1.143 -5.49,1.963 v 0 z"
               style="fill:url(#linearGradient418);stroke:none"
               id="path420" />
          </g>
        </g>
      </g>
    </g>
    <g
       id="g422">
      <g
         id="g424"
         clip-path="url(#clipPath428)">
        <g
           id="g430">
          <g
             id="g432">
            <path
               d="m 0,197.441 c 3.609,-1.924 7.213,-3.697 10.68,-5.341 v 0 c 31.03,-14.699 62.87,-29.46 95.21,-41.17 v 0 c 1.76,0.26 3.52,0.54 5.27,0.86 v 0 c 8.52,1.55 17.07,3.37 25.29,6.12 v 0 c 10.309,3.45 20.07,8.29 29.82,13.031 v 0 c 13.58,6.609 27.09,14.068 41.589,18.559 v 0 c 11.281,3.491 23.131,4.8 34.751,6.65 v 0 c 7.82,1.251 15.58,3.3 23.14,5.68 v 0 c 3.68,1.16 7.53,2.31 10.86,4.32 v 0 c 2.48,1.501 3.5,4.159 6.031,5.57 v 0 c 2.959,1.681 5.139,0.74 8.359,0.56 v 0 c 3.46,-0.191 5.73,0.91 8.87,2.09 v 0 c 4.57,1.71 9.699,1.42 13.96,4.05 v 0 c 2.78,1.72 4.31,4.78 6.82,6.79 v 0 c 1.93,1.549 4.22,2.89 6.68,3.349 v 0 c 1.665,0.313 3.359,0.143 5.056,-0.026 v 0 c 2.105,-0.211 4.218,-0.422 6.294,0.287 v 0 c 1.57,0.541 2.75,1.05 3.97,2.16 v 0 c 1.16,1.07 2.43,2.39 4.03,2.73 v 0 c 0.503,0.107 1.257,0.02 2.047,-0.067 v 0 c 1.405,-0.156 2.923,-0.312 3.333,0.637 v 0 c 0.73,1.71 -1.24,1.6 -1.91,2.17 v 0 c -0.93,0.78 -1.24,2.241 -2.12,3.07 v 0 c -0.62,0.579 -1.77,1.25 -2.55,1.68 v 0 c -0.658,0.358 -1.101,0.345 -1.612,0.332 v 0 c -0.343,-0.008 -0.718,-0.017 -1.208,0.088 v 0 c -1.43,0.3 -1.34,1.05 -0.67,2.041 v 0 c 0.75,1.108 2.14,1.629 3.33,2.489 v 0 c 2.45,1.779 5.41,2.56 7.16,5 v 0 c 1.87,2.591 4.6,3.959 6.53,6.65 v 0 c 0.39,0.54 0.72,1.06 0.99,1.56 v 0 c -1.29,0.53 -2.55,0.73 -3.59,0.28 v 0 c -1.401,-0.6 -2.42,-2.13 -3.88,-2.84 v 0 c -1.88,-0.93 -3.98,-1.05 -5.94,-1.78 v 0 c -3.1,-1.16 -6.21,-2.58 -9.25,-3.87 v 0 c -9.27,-3.93 -16.57,-13.03 -26.7,-14.57 v 0 c -7.29,-1.1 -13.96,-3.97 -21.12,-5.879 v 0 c -6.98,-1.862 -13.86,-1.761 -21.07,-1.791 v 0 c -7.72,-0.02 -14.56,1.871 -22.169,2.871 v 0 C 237.9,232.88 230.6,231.42 222.439,234.53 v 0 c -2.389,0.91 -4.509,1.36 -6.959,2.05 v 0 c -2.18,0.61 -3.949,2.14 -6.13,2.7 v 0 c -4.69,1.22 -9.2,1.6 -14.17,1.62 v 0 c -5.98,0.041 -11.52,-1.919 -17.39,-3.16 v 0 c -7.43,-1.56 -14.18,-5.37 -21.99,-4.009 v 0 c -9.01,1.559 -15.19,7.249 -22.93,11.679 v 0 c -4.78,2.73 -9.169,4.78 -13.14,8.59 v 0 c -3.41,3.27 -7.21,6.08 -10.879,9.03 v 0 c -6.641,5.35 -13.711,10.64 -19.911,16.46 v 0 c -3.07,2.88 -5.91,5.599 -9.23,8.21 v 0 c -4.3,3.39 -9.32,6.25 -13.38,9.83 v 0 c -6.629,5.83 -10.7,12.001 -19.99,13.61 v 0 c -5.27,0.91 -10.02,-1.02 -15.22,-1.31 v 0 c -8.49,-0.46 -17.3,-0.18 -25.63,1.47 v 0 c -1.682,0.333 -3.565,1.143 -5.49,1.963 v 0 z"
               style="fill:url(#linearGradient438);stroke:none"
               id="path440" />
          </g>
        </g>
      </g>
    </g>
    <g
       id="g442">
      <g
         id="g444"
         clip-path="url(#clipPath448)">
        <g
           id="g450">
          <g
             id="g452">
            <path
               d="M 0,0 H 750 V 222.911 H 0 Z"
               style="fill:url(#linearGradient458);stroke:none"
               id="path460" />
          </g>
        </g>
        <path
           d="M 769.57,219.333 H -20.89 v 3.578 h 790.46 z"
           style="fill:#d1dfed;fill-opacity:1;fill-rule:nonzero;stroke:none"
           id="path462" />
      </g>
    </g>
  </g>
</svg>
