<?xml version="1.0" encoding="UTF-8" standalone="no"?>
<!-- Created with Inkscape (http://www.inkscape.org/) -->

<svg
   version="1.1"
   id="svg2"
   width="1000"
   height="297.21469"
   viewBox="0 0 1000 297.21469"
   sodipodi:docname="03.svg"
   inkscape:version="1.2 (dc2aedaf03, 2022-05-15)"
   xmlns:inkscape="http://www.inkscape.org/namespaces/inkscape"
   xmlns:sodipodi="http://sodipodi.sourceforge.net/DTD/sodipodi-0.dtd"
   xmlns="http://www.w3.org/2000/svg"
   xmlns:svg="http://www.w3.org/2000/svg">
  <defs
     id="defs6">
    <clipPath
       clipPathUnits="userSpaceOnUse"
       id="clipPath38">
      <path
         d="m 57.14,195.12 c 0.36,0.02 0.72,0.04 1.08,0.07 v 0 c -0.91,0.11 -1.8,0.3 -2.67,0.57 v 0 c 0.54,-0.18 1.07,-0.4 1.59,-0.64"
         id="path36" />
    </clipPath>
    <linearGradient
       x1="0"
       y1="0"
       x2="1"
       y2="0"
       gradientUnits="userSpaceOnUse"
       gradientTransform="matrix(2.6699829,0,0,-2.6699829,55.549988,195.44)"
       spreadMethod="pad"
       id="linearGradient48">
      <stop
         style="stop-opacity:1;stop-color:#224b6b"
         offset="0"
         id="stop44" />
      <stop
         style="stop-opacity:1;stop-color:#07172e"
         offset="1"
         id="stop46" />
    </linearGradient>
    <clipPath
       clipPathUnits="userSpaceOnUse"
       id="clipPath448">
      <path
         d="M 0,0 H 750 V 222.911 H 0 Z"
         id="path446" />
    </clipPath>
    <linearGradient
       x1="0"
       y1="0"
       x2="1"
       y2="0"
       gradientUnits="userSpaceOnUse"
       gradientTransform="matrix(0,174.2236,174.2236,0,374.34048,85.701752)"
       spreadMethod="pad"
       id="linearGradient458">
      <stop
         style="stop-opacity:1;stop-color:#bddfeb"
         offset="0"
         id="stop454" />
      <stop
         style="stop-opacity:1;stop-color:#028cbb"
         offset="1"
         id="stop456" />
    </linearGradient>
    <clipPath
       clipPathUnits="userSpaceOnUse"
       id="clipPath470">
      <path
         d="M 0,0 H 750 V 222.911 H 0 Z"
         id="path468" />
    </clipPath>
    <clipPath
       clipPathUnits="userSpaceOnUse"
       id="clipPath478">
      <path
         d="M -60.1554,327.654 H 815.747 V -74.063 H -60.1554 Z"
         id="path476" />
    </clipPath>
    <clipPath
       clipPathUnits="userSpaceOnUse"
       id="clipPath482">
      <path
         d="m 29.877,-53.644 c 0.258,0.765 0.49,1.496 0.743,2.07 1.183,2.685 2.918,2.411 5.447,3.016 2.726,0.653 2.943,3.381 4.294,5.398 0.876,1.306 2.157,1.653 2.436,3.297 0.234,1.374 -0.171,2.692 0.419,4.019 0.622,1.402 1.877,2.617 2.838,3.792 1.14,1.395 1.99,3.162 3.798,3.568 1.495,0.336 3.286,0.174 3.966,1.791 1.101,2.614 -0.743,5.599 1.497,7.963 1.853,1.956 3.526,3.425 4.644,5.968 0.946,2.152 1.657,4.057 2.203,6.378 0.693,2.952 1.189,5.811 1.64,8.804 0.451,2.995 1.089,4.608 3.246,6.671 2.034,1.943 4.038,4.541 3.778,7.517 -0.482,5.504 -1.559,11.593 -7.883,13.006 -7.134,1.595 -14.339,-2.29 -21.307,-0.51 -8.338,2.128 -15.994,5.77 -24.775,5.713 C 10.406,34.776 2.52,33.858 -3.429,31.27 -8.967,28.858 -13.725,24.484 -17.707,20.036 c -8.218,-9.181 -11.69,-20.354 -13.372,-32.344 -1.458,-10.387 1.643,-19.463 8.38,-27.436 2.864,-3.391 6.107,-6.402 10.153,-8.299 3.129,-1.468 6.758,-1.637 10.056,-2.603 6.382,-1.868 12.288,-5.377 18.69,-7.335 1.635,-0.501 3.598,-1.102 5.329,-0.882 1.011,0.129 1.872,0.732 2.887,0.825 0.748,0.068 1.551,-0.332 2.298,-0.117 1.715,0.494 2.522,2.611 3.163,4.511"
         id="path480" />
    </clipPath>
    <clipPath
       clipPathUnits="userSpaceOnUse"
       id="clipPath486">
      <path
         d="M -32768,32767 H 32767 V -32768 H -32768 Z"
         id="path484" />
    </clipPath>
    <linearGradient
       x1="0"
       y1="0"
       x2="1"
       y2="0"
       gradientUnits="userSpaceOnUse"
       gradientTransform="matrix(2.7503376,75.609276,-75.609276,2.7503376,17.68338,-56.001259)"
       spreadMethod="pad"
       id="linearGradient492">
      <stop
         style="stop-opacity:1;stop-color:#ffffff"
         offset="0"
         id="stop488" />
      <stop
         style="stop-opacity:0;stop-color:#ffffff"
         offset="1"
         id="stop490" />
    </linearGradient>
    <mask
       maskUnits="userSpaceOnUse"
       x="0"
       y="0"
       width="1"
       height="1"
       id="mask494">
      <g
         id="g504">
        <g
           clip-path="url(#clipPath486)"
           id="g502">
          <g
             id="g500">
            <g
               id="g498">
              <path
                 d="M -32768,32767 H 32767 V -32768 H -32768 Z"
                 style="fill:url(#linearGradient492);stroke:none"
                 id="path496" />
            </g>
          </g>
        </g>
      </g>
    </mask>
    <linearGradient
       x1="0"
       y1="0"
       x2="1"
       y2="0"
       gradientUnits="userSpaceOnUse"
       gradientTransform="matrix(2.7503376,75.609276,-75.609276,2.7503376,17.68338,-56.001259)"
       spreadMethod="pad"
       id="linearGradient510">
      <stop
         style="stop-opacity:1;stop-color:#f7e8e1"
         offset="0"
         id="stop506" />
      <stop
         style="stop-opacity:1;stop-color:#c4b9bd"
         offset="1"
         id="stop508" />
    </linearGradient>
    <clipPath
       clipPathUnits="userSpaceOnUse"
       id="clipPath514">
      <path
         d="m 92.781,66.555 c 2.384,-1.814 5.083,-3.404 7.098,-5.173 1.54,-1.351 3.068,-2.947 4.229,-4.632 1.216,-1.762 1.878,-4.116 4.008,-5.028 2.019,-0.865 5.764,-2.481 7.983,-1.886 2.982,0.799 3.633,5.006 6.16,6.446 0.646,0.368 2.693,1.233 3.325,1.353 1.96,0.374 1.637,0.017 2.971,-0.86 1.928,-1.265 4.022,-3.753 4.379,-6.206 0.408,-2.803 -3.865,-4.217 -5.838,-5.967 -3.337,-2.959 -1.266,-6.529 -3.531,-9.48 -2.005,-2.613 -4.733,-5.115 -6.389,-8.194 -1.321,-2.456 -1.374,-4.291 -0.424,-6.862 0.18,-0.487 1.083,-2.146 1.099,-2.532 0.094,-2.313 -2.41,-4.464 -2.958,-6.531 -0.654,-2.461 0.48,-3.481 2.571,-4.9 2.57,-1.746 4.394,-1.02 7.233,-0.463 3.573,0.701 5.713,-0.447 8.877,1.881 2.888,2.125 5.904,4.836 6.487,8.612 2.474,0.13 2.515,1.57 3.022,3.513 0.674,2.579 2.013,6.753 4.385,8.201 3.11,1.896 5.188,1.026 6.517,5.054 0.546,1.655 0.705,3.198 2.123,4.31 1.082,0.851 2.541,0.773 3.64,1.376 2.287,1.255 2.682,3.541 6.006,2.783 4.925,-1.123 8.049,-7.224 10.224,-11.268 4.11,-7.648 -5.224,-15.728 -11.365,-19.103 -1.673,-0.92 -1.775,-0.651 -2.528,-2.506 -0.763,-1.884 -1.437,-4.241 -1.735,-6.246 -0.198,-1.329 0.06,-1.925 -0.786,-2.954 -0.706,-0.859 -1.695,-1.022 -2.287,-2.029 -1.922,-3.276 -1.253,-8.132 -2.734,-11.59 -0.973,-2.272 -3.37,-2.04 -3.984,-4.231 -0.822,-2.926 1.889,-3.419 3.156,-5.406 1.522,-2.387 2.163,-5.26 3.398,-7.917 1.799,-3.872 5.001,-6.858 6.732,-10.641 1.042,-2.278 0.788,-4.651 0.645,-7.077 -0.208,-3.512 0.138,-6.856 0.812,-10.306 1.103,-5.646 4.946,-11.117 10.364,-13.293 2.991,-1.202 4.767,-1.357 7.057,0.863 1.743,1.69 2.244,2.774 4.742,2.207 1.804,-0.41 3.302,-1.391 5.219,-1.601 2.643,-0.29 4.559,0.401 7.063,1.179 5.586,1.736 11.264,2.837 17.128,2.992 7.813,0.207 12.852,4.126 18.989,8.416 3.42,2.391 7.105,4.381 10.193,7.208 3.815,3.494 6.17,7.382 8.164,12.1 2.495,5.902 4.887,10.964 9.348,15.619 2.015,2.105 4.177,3.784 5.73,6.297 2.592,4.194 2.897,9.06 4.31,13.685 0.979,3.203 2.679,6.316 1.462,9.667 -2.003,5.512 -6.947,10.982 -11.918,13.985 -3.515,2.123 -6.89,2.874 -10.012,5.752 -1.652,1.522 -3.981,3.129 -4.563,5.474 -0.544,2.189 0.396,2.652 1.542,4.167 1.173,1.549 1.533,1.781 1.696,3.905 0.184,2.387 -0.209,4.308 -0.588,6.616 -0.651,3.958 0.612,4.412 3.511,6.417 2.396,1.657 3.962,4.252 6.678,5.466 3.477,1.554 5.699,-1.812 8.906,1.326 3.25,3.179 2.169,8.085 7.915,8.62 2.666,0.249 5.929,-0.842 8.607,-1.13 1.615,-0.174 3.205,-0.657 4.376,-1.801 3.215,-3.14 2.16,-9.924 7.135,-11.52 3.06,-0.981 6.464,1.339 9.257,2.292 3.047,1.039 4.95,1.37 7.201,3.989 1.718,1.999 3.695,3.22 5.781,4.786 4.798,3.604 8.336,6.716 10.387,12.651 0.531,1.537 1.56,3.82 1.484,5.477 -0.077,1.686 -1.032,2.373 -1.951,3.726 -1.945,2.863 -3.586,7.25 -2.46,10.722 3.916,0.024 3.326,3.92 4.556,6.561 1.521,3.268 5.201,3.324 7.267,6.136 1.395,1.898 2.622,4.172 4.416,5.749 2.189,1.923 4.662,2.054 7.421,2.629 3.422,0.712 9.381,2.275 12.829,0.633 3.842,-1.829 2.655,-7.664 3.267,-11.008 0.588,-3.217 0.907,-9.36 3.68,-11.575 2.674,-2.134 5.418,0.278 5.29,-4.659 -0.127,-4.879 -1.72,-10.044 -4.558,-13.938 -2.721,-3.734 -7.005,-7.722 -4.928,-12.761 1.487,-3.607 6.023,-7.233 9.847,-5.87 2.102,0.751 3.879,2.472 5.962,3.306 3.344,1.339 6.677,1.072 9.98,2.787 2.511,1.303 4.94,2.764 7.45,4.075 4.714,2.463 6.996,6.141 9.6,10.646 1.807,3.129 3.563,6.261 5.656,9.195 3.724,5.218 4.947,9.636 5.44,16.189 0.332,4.397 1.163,9.582 0.65,13.926 -0.45,3.816 -5.284,6.165 -8.365,8.065 -6.837,4.22 -15.026,5.567 -22.828,6.931 -12.116,2.118 -24.289,2.598 -36.493,3.886 -28.116,2.968 -55.319,11.754 -83.537,14.212 -14.14,1.232 -28.307,1.959 -42.46,2.994 -14.302,1.045 -27.64,1.988 -41.855,-0.775 -13.389,-2.602 -25.985,-9.335 -38.03,-15.53 -11.25,-5.785 -22.382,-11.899 -32.927,-18.906 -8.428,-5.6 -17.832,-12.65 -24.87,-19.922 -6.573,-6.79 -5.623,-15.059 -3.531,-23.405 0.392,-1.568 0.549,-3.248 1.349,-4.681 1.012,-1.81 2.639,-3.314 4.448,-4.69"
         id="path512" />
    </clipPath>
    <clipPath
       clipPathUnits="userSpaceOnUse"
       id="clipPath518">
      <path
         d="M -32768,32767 H 32767 V -32768 H -32768 Z"
         id="path516" />
    </clipPath>
    <linearGradient
       x1="0"
       y1="0"
       x2="1"
       y2="0"
       gradientUnits="userSpaceOnUse"
       gradientTransform="matrix(6.7770619,186.30757,-186.30757,6.7770619,247.53749,-69.652786)"
       spreadMethod="pad"
       id="linearGradient524">
      <stop
         style="stop-opacity:1;stop-color:#ffffff"
         offset="0"
         id="stop520" />
      <stop
         style="stop-opacity:0;stop-color:#ffffff"
         offset="1"
         id="stop522" />
    </linearGradient>
    <mask
       maskUnits="userSpaceOnUse"
       x="0"
       y="0"
       width="1"
       height="1"
       id="mask526">
      <g
         id="g536">
        <g
           clip-path="url(#clipPath518)"
           id="g534">
          <g
             id="g532">
            <g
               id="g530">
              <path
                 d="M -32768,32767 H 32767 V -32768 H -32768 Z"
                 style="fill:url(#linearGradient524);stroke:none"
                 id="path528" />
            </g>
          </g>
        </g>
      </g>
    </mask>
    <linearGradient
       x1="0"
       y1="0"
       x2="1"
       y2="0"
       gradientUnits="userSpaceOnUse"
       gradientTransform="matrix(6.7770619,186.30757,-186.30757,6.7770619,247.53749,-69.652786)"
       spreadMethod="pad"
       id="linearGradient542">
      <stop
         style="stop-opacity:1;stop-color:#f7e8e1"
         offset="0"
         id="stop538" />
      <stop
         style="stop-opacity:1;stop-color:#c4b9bd"
         offset="1"
         id="stop540" />
    </linearGradient>
    <clipPath
       clipPathUnits="userSpaceOnUse"
       id="clipPath546">
      <path
         d="m 147.762,86.753 c -0.005,-0.454 -0.028,-0.909 -0.082,-1.365 -0.502,-4.187 -0.133,-8.608 4.003,-10.856 1.592,-0.866 3.578,-1.023 5.075,-2.057 1.783,-1.232 2.8,-3.954 4.813,-4.811 1.627,-0.692 3.904,-0.074 5.639,-0.441 2.132,-0.452 4.032,-1.704 6.154,-2.124 1.442,-0.286 2.986,-0.714 4.463,-0.811 1.322,-0.087 2.825,0.171 4.092,-0.234 4.68,-1.496 5.717,-5.916 5.673,-10.115 -0.06,-5.772 6.304,-9.955 6.159,-15.596 -0.068,-2.659 -2.137,-4.039 -2.845,-6.539 -0.648,-2.289 -0.356,-4.9 1.223,-6.713 2.006,-2.304 4.575,-4.27 6.732,-6.443 1.739,-1.751 3.823,-3.575 6.056,-4.715 4.043,-2.065 8.521,-3.162 13.038,-3.213 4.247,-0.048 5.974,2.688 8.296,5.809 2.126,2.858 5.063,4.805 7.809,6.971 3.777,2.98 4.829,8.037 6.268,12.378 1.282,3.867 1.956,7.306 1.603,11.415 -0.223,2.607 -0.22,6.122 -2.847,7.523 -1.229,0.656 -2.693,0.647 -3.984,1.123 -1.157,0.427 -2.354,1.036 -3.392,1.703 -2.241,1.44 -2.521,3.438 -1.94,5.738 0.649,2.576 2.127,4.975 4.604,6.269 1.575,0.825 3.023,0.484 4.424,1.864 1.641,1.614 1.825,5.021 4.312,5.721 2.119,0.596 5.118,-0.791 7.2,-1.392 1.468,-0.424 2.627,-0.99 4.178,-1.021 4.21,-0.084 6.676,1.718 9.89,4.285 3.716,2.967 8.29,6.135 11.432,9.703 4.251,4.824 8.076,12.466 6.258,19.129 -2.477,9.083 -13.099,11.036 -20.739,13.331 -13.156,3.952 -25.528,10.08 -38.83,13.563 -3.614,0.946 -7.222,1.909 -10.954,2.299 -7.902,0.825 -15.47,-0.606 -23.057,-2.629 -3.424,-0.913 -7.025,-1.767 -10.399,-2.913 -4.842,-1.646 -8.684,-4.71 -12.227,-8.298 -4.247,-4.302 -5.244,-9.714 -7.778,-14.968 -1.757,-3.641 -4.07,-6.572 -6.734,-9.549 -1.662,-1.858 -2.951,-4.08 -3.457,-6.538 -0.377,-1.83 -0.109,-3.651 -0.129,-5.483"
         id="path544" />
    </clipPath>
    <clipPath
       clipPathUnits="userSpaceOnUse"
       id="clipPath550">
      <path
         d="M -32768,32767 H 32767 V -32768 H -32768 Z"
         id="path548" />
    </clipPath>
    <linearGradient
       x1="0"
       y1="0"
       x2="1"
       y2="0"
       gradientUnits="userSpaceOnUse"
       gradientTransform="matrix(3.7100403,101.99237,-101.99237,3.7100403,212.10927,14.702104)"
       spreadMethod="pad"
       id="linearGradient556">
      <stop
         style="stop-opacity:1;stop-color:#ffffff"
         offset="0"
         id="stop552" />
      <stop
         style="stop-opacity:0;stop-color:#ffffff"
         offset="1"
         id="stop554" />
    </linearGradient>
    <mask
       maskUnits="userSpaceOnUse"
       x="0"
       y="0"
       width="1"
       height="1"
       id="mask558">
      <g
         id="g568">
        <g
           clip-path="url(#clipPath550)"
           id="g566">
          <g
             id="g564">
            <g
               id="g562">
              <path
                 d="M -32768,32767 H 32767 V -32768 H -32768 Z"
                 style="fill:url(#linearGradient556);stroke:none"
                 id="path560" />
            </g>
          </g>
        </g>
      </g>
    </mask>
    <linearGradient
       x1="0"
       y1="0"
       x2="1"
       y2="0"
       gradientUnits="userSpaceOnUse"
       gradientTransform="matrix(3.7100403,101.99237,-101.99237,3.7100403,212.10927,14.702104)"
       spreadMethod="pad"
       id="linearGradient574">
      <stop
         style="stop-opacity:1;stop-color:#f7e8e1"
         offset="0"
         id="stop570" />
      <stop
         style="stop-opacity:1;stop-color:#c4b9bd"
         offset="1"
         id="stop572" />
    </linearGradient>
    <clipPath
       clipPathUnits="userSpaceOnUse"
       id="clipPath578">
      <path
         d="m 414.907,125.526 c 1.862,-1.192 3.087,-2.818 4.627,-4.463 2.313,-2.47 3.562,-5.214 5.02,-8.305 1.967,-4.168 3.266,-10.811 7.312,-13.575 1.913,-1.308 4.325,-0.979 6.496,-0.993 3.695,-0.023 6.058,-0.242 9.096,-2.452 3.189,-2.319 6.129,-4.45 10.254,-4.332 2.886,0.083 4.525,1.853 6.923,3.205 2.344,1.324 4.067,1.159 6.706,1.043 0.844,-0.037 1.835,-0.255 2.664,-0.132 1.138,0.17 2.169,0.73 3.353,0.779 4.687,0.194 8.621,-3.027 10.789,-7.129 0.99,-1.869 1.092,-3.665 0.295,-5.616 -0.367,-0.898 -0.848,-1.687 -1.436,-2.452 -1.687,-2.195 -2.859,-3.908 -3.805,-6.559 -0.995,-2.788 -1.592,-5.006 -4.035,-6.721 -1.982,-1.389 -4.34,-1.849 -6.378,-3.245 -2.021,-1.386 -1.183,-2.133 -0.58,-4.197 0.438,-1.502 0.248,-1.345 -1.094,-2.7 -1.813,-1.832 -2.39,-3.984 -2.008,-6.676 0.407,-2.864 2.416,-6.199 5.659,-6.274 2.712,-0.062 5.331,0.656 8.121,0.482 2.897,-0.18 5.077,-1.37 7.956,-0.316 1.532,0.562 4.923,2.142 6.554,1.706 1.932,-0.517 3.268,-3.197 4.008,-4.769 2.171,-4.614 2.638,-10.916 -0.51,-15.366 -1.976,-2.792 -5.821,-2.171 -8.156,-4.215 -2.746,-2.404 -2.984,-7.428 -2.58,-10.659 0.649,-5.189 2.933,-9.288 4.871,-14.014 1.338,-3.261 2.181,-6.588 4.327,-9.519 1.998,-2.728 5.045,-6.531 8.525,-7.168 3.671,-0.672 5.408,3.223 8.592,4.196 3.533,1.079 7.737,-1.352 11.305,-1.578 4.752,-0.302 9.235,-1.376 13.89,-2.326 5.199,-1.061 10.349,-2.109 15.491,-3.457 4.153,-1.088 8.061,-0.718 11.981,1.065 2.176,0.991 4.233,2.404 6.132,3.843 2.127,1.61 4,2.66 6.342,3.902 3.736,1.982 7.845,6.196 9.068,10.209 0.905,2.971 1.602,5.457 0.665,8.517 -1.217,3.966 -5.93,6.052 -8.668,8.722 -2.281,2.223 -4.492,5.948 -4.663,9.133 -0.103,1.934 0.452,3.828 0.452,5.731 0,2.396 -0.489,4.139 1.011,6.134 1.932,2.57 2.417,5.203 3.611,8.115 1.316,3.211 2.855,3.044 5.725,4.215 2.414,0.986 4.171,3.096 6.905,3.179 3.544,0.11 5.984,-1.794 8.413,-4.185 1.729,-1.705 2.416,-4.045 4.065,-5.713 1.114,-1.128 4.082,-3.299 5.852,-2.842 1.647,0.426 1.629,2.664 2.041,3.938 0.596,1.84 1.154,3.344 2.872,4.29 2.622,1.446 5.476,0.821 7.649,3.288 1.969,2.235 3.562,5.133 6.31,6.58 2.836,1.492 6.55,1.175 9.638,0.93 4.819,-0.383 8.191,-4.245 10.046,-8.384 1.444,-3.221 2.957,-7.238 1.994,-10.805 -0.794,-2.94 -3.58,-5.113 -4.204,-8.174 -0.572,-2.805 2.3,-5.765 4.894,-6.387 2.882,-0.69 3.267,2.286 5.679,2.464 1.286,0.095 2.641,-0.797 3.833,-1.172 1.567,-0.494 3.157,-0.873 4.786,-1.134 4.345,-0.696 7.874,-0.009 11.288,2.774 2.686,2.189 4.698,4.978 6.97,7.567 3.345,3.814 5.374,8.078 7.817,12.471 1.728,3.102 3.589,5.625 2.402,9.203 -1.155,3.482 -4.542,7.815 -4.119,11.62 0.229,2.058 2.37,2.999 3.942,3.88 3.06,1.718 4.315,5.095 6.237,7.816 2.506,3.547 5.653,7.639 10.225,8.237 4.396,0.574 6.599,-1.834 8.777,-5.217 2.125,-3.301 3.434,-7.099 5.425,-10.516 1.933,-3.316 5.612,-8.12 5.645,-12.048 0.025,-2.833 1.72,-4.54 4.251,-5.921 6.041,-3.295 13.739,-4.021 20.077,-1.133 4.003,1.823 6.55,6.334 8.622,9.937 3.856,6.705 6.301,13.922 8.628,21.258 3.39,10.685 6.129,21.699 0.205,32.152 -3.252,5.739 -8.565,9.807 -13.604,13.858 -11.193,8.999 -23.873,16.003 -37.165,21.438 -13.703,5.604 -27.843,8.097 -42.446,10.108 -15.633,2.151 -31.443,3.421 -47.193,4.314 -33.855,1.921 -67.714,1.041 -101.595,0.794 -25.445,-0.184 -51.072,-1.367 -76.426,-3.581 -5.569,-0.485 -11.16,-0.943 -16.712,-1.578 -7.035,-0.805 -14.615,-1.276 -21.353,-3.613 -6.725,-2.333 -12.61,-6.896 -13.803,-14.321 -0.655,-4.07 -1.334,-9.652 2.249,-12.573 2.058,-1.678 4.344,-3.037 6.63,-4.376 0.118,-0.069 0.233,-0.139 0.345,-0.212"
         id="path576" />
    </clipPath>
    <clipPath
       clipPathUnits="userSpaceOnUse"
       id="clipPath582">
      <path
         d="M -32768,32767 H 32767 V -32768 H -32768 Z"
         id="path580" />
    </clipPath>
    <linearGradient
       x1="0"
       y1="0"
       x2="1"
       y2="0"
       gradientUnits="userSpaceOnUse"
       gradientTransform="matrix(5.6023612,154.01399,-154.01399,5.6023612,587.30426,-18.116877)"
       spreadMethod="pad"
       id="linearGradient588">
      <stop
         style="stop-opacity:1;stop-color:#ffffff"
         offset="0"
         id="stop584" />
      <stop
         style="stop-opacity:0;stop-color:#ffffff"
         offset="1"
         id="stop586" />
    </linearGradient>
    <mask
       maskUnits="userSpaceOnUse"
       x="0"
       y="0"
       width="1"
       height="1"
       id="mask590">
      <g
         id="g600">
        <g
           clip-path="url(#clipPath582)"
           id="g598">
          <g
             id="g596">
            <g
               id="g594">
              <path
                 d="M -32768,32767 H 32767 V -32768 H -32768 Z"
                 style="fill:url(#linearGradient588);stroke:none"
                 id="path592" />
            </g>
          </g>
        </g>
      </g>
    </mask>
    <linearGradient
       x1="0"
       y1="0"
       x2="1"
       y2="0"
       gradientUnits="userSpaceOnUse"
       gradientTransform="matrix(5.6023612,154.01399,-154.01399,5.6023612,587.30426,-18.116877)"
       spreadMethod="pad"
       id="linearGradient606">
      <stop
         style="stop-opacity:1;stop-color:#f7e8e1"
         offset="0"
         id="stop602" />
      <stop
         style="stop-opacity:1;stop-color:#c4b9bd"
         offset="1"
         id="stop604" />
    </linearGradient>
    <clipPath
       clipPathUnits="userSpaceOnUse"
       id="clipPath610">
      <path
         d="m 699.289,115.422 c -0.449,-2.026 -0.812,-4.066 -1.223,-6.099 -0.351,-1.746 -0.794,-3.458 -1.378,-5.142 -0.427,-1.232 -0.912,-2.444 -1.414,-3.647 -0.854,-2.048 -1.821,-4.078 -2.22,-6.277 -0.593,-3.258 0.106,-6.753 -1.266,-9.867 -1.602,-3.638 -7.002,-4.739 -10.191,-6.556 -2.708,-1.542 -5.276,-3.902 -8.613,-3.117 -2.234,0.525 -4.623,2.262 -4.867,4.623 -0.082,0.784 0.225,1.623 0.198,2.414 -0.05,1.53 -0.811,2.851 -1.25,4.282 -0.76,2.483 -0.938,5.832 -3.684,7.201 -0.944,0.471 -2.296,0.429 -3.327,0.874 -1.407,0.606 -2.806,0.967 -4.258,1.454 -3.419,1.148 -6.33,3.46 -9.524,5.127 -2.533,1.324 -5.926,0.255 -8.551,-0.417 -1.617,-0.413 -3.237,-0.822 -4.901,-1.006 -1.9,-0.212 -2.086,-0.008 -3.299,-1.337 -1.559,-1.707 -2.127,-2.572 -2.218,-4.88 -0.134,-3.406 0.071,-5.785 -2.411,-8.318 -2.479,-2.529 -5.751,-4.091 -8.429,-6.383 -2.648,-2.266 -6.497,-4.095 -9.823,-5.008 -3.245,-0.892 -7.629,-0.806 -10.786,0.543 -2.341,1 -2.893,3.963 -3.666,6.13 -1.137,3.191 -2.388,7.451 -4.796,9.979 -3.243,3.405 -7.374,2.114 -11.377,1.333 -3.504,-0.684 -6.014,-0.591 -9.515,0.049 -3.714,0.68 -6.371,-0.277 -9.845,-1.483 -3.766,-1.308 -6.623,-3.867 -10.193,-5.555 -4.243,-2.006 -8.064,0.44 -11.626,2.644 -3.692,2.285 -5.433,5.031 -7.621,8.635 -1.43,2.355 -3.416,4.85 -6.235,5.466 -2.455,0.535 -5.209,0.498 -7.704,0.867 -3.147,0.466 -6.357,0.757 -9.49,1.299 -8.055,1.393 -18.541,5.661 -22.266,13.515 -2.243,4.725 -2.733,10.187 2.529,13.124 3.043,1.699 6.847,1.295 10.154,1.061 5.836,-0.412 11.441,-1.8 17.158,-2.944 10.726,-2.148 21.231,-2.201 31.985,-0.226 17.608,3.234 34.504,8.596 52.519,9.42 8.419,0.385 16.749,1.029 25.154,1.595 10.007,0.673 20.019,-0.026 30.004,1.108 4.767,0.542 9.51,1.27 14.242,2.05 7.349,1.212 14.594,3.111 21.999,3.943 4.785,0.539 9.686,1.121 14.503,0.65 4.328,-0.422 8.033,-0.992 12.371,-0.484 2.848,0.334 3.594,-0.407 2.947,-3.196 -0.939,-4.048 -2.872,-9.318 -6.331,-11.769 -2.144,-1.519 -4.394,-2.964 -6.353,-4.712 -0.869,-0.776 -2.135,-2.233 -2.326,-3.359 -0.104,-0.621 0.298,-0.879 -0.048,-1.63 -0.249,-0.541 -0.84,-0.928 -1.173,-1.42 -0.876,-1.302 -1.174,-2.817 -1.513,-4.321 -0.018,-0.078 -0.035,-0.155 -0.052,-0.233"
         id="path608" />
    </clipPath>
    <clipPath
       clipPathUnits="userSpaceOnUse"
       id="clipPath614">
      <path
         d="M -32768,32767 H 32767 V -32768 H -32768 Z"
         id="path612" />
    </clipPath>
    <linearGradient
       x1="0"
       y1="0"
       x2="1"
       y2="0"
       gradientUnits="userSpaceOnUse"
       gradientTransform="matrix(2.2772157,62.602726,-62.602726,2.2772157,596.48181,75.265396)"
       spreadMethod="pad"
       id="linearGradient620">
      <stop
         style="stop-opacity:1;stop-color:#ffffff"
         offset="0"
         id="stop616" />
      <stop
         style="stop-opacity:0;stop-color:#ffffff"
         offset="1"
         id="stop618" />
    </linearGradient>
    <mask
       maskUnits="userSpaceOnUse"
       x="0"
       y="0"
       width="1"
       height="1"
       id="mask622">
      <g
         id="g632">
        <g
           clip-path="url(#clipPath614)"
           id="g630">
          <g
             id="g628">
            <g
               id="g626">
              <path
                 d="M -32768,32767 H 32767 V -32768 H -32768 Z"
                 style="fill:url(#linearGradient620);stroke:none"
                 id="path624" />
            </g>
          </g>
        </g>
      </g>
    </mask>
    <linearGradient
       x1="0"
       y1="0"
       x2="1"
       y2="0"
       gradientUnits="userSpaceOnUse"
       gradientTransform="matrix(2.2772157,62.602726,-62.602726,2.2772157,596.48181,75.265396)"
       spreadMethod="pad"
       id="linearGradient638">
      <stop
         style="stop-opacity:1;stop-color:#f7e8e1"
         offset="0"
         id="stop634" />
      <stop
         style="stop-opacity:1;stop-color:#c4b9bd"
         offset="1"
         id="stop636" />
    </linearGradient>
    <clipPath
       clipPathUnits="userSpaceOnUse"
       id="clipPath642">
      <path
         d="m 195.576,116.99 c 0.117,-0.337 0.274,-0.644 0.492,-0.899 0.951,-1.112 3.163,-1.707 4.458,-2.575 3.472,-2.327 6.557,-4.594 9.683,-7.425 3.04,-2.752 5.985,-6.713 9.529,-8.808 2.792,-1.652 4.514,1.685 7.383,2.645 5.849,1.956 11.18,4.606 17.429,5.224 7.072,0.701 13.556,-3.172 20.533,-3.425 6.299,-0.23 12.125,3.045 18.448,1.962 5.431,-0.93 11.116,-1.346 16.604,-0.639 7.036,0.905 14.446,-0.026 21.532,-0.283 3.604,-0.131 7.221,-0.168 10.821,-0.357 4.244,-0.222 8.356,-1.218 12.595,-1.524 4.814,-0.35 9.273,-0.501 13.983,-1.704 2.348,-0.6 6.609,-3.105 8.989,-1.997 2.892,1.346 5.007,6.325 7.153,8.637 3.482,3.752 8.497,5.491 12.48,8.55 5.049,3.879 9.999,3.626 15.922,4.652 4.12,0.714 8.702,4.253 12.765,4.186 6.253,-0.105 11.807,-3.834 17.44,-5.969 4.367,-1.654 5.369,0.532 9.198,1.87 4.818,1.685 10.424,1.173 15.489,1.572 2.985,0.235 5.687,0.511 8.636,1.082 3.202,0.62 6.31,0.213 9.508,0.596 7.158,0.858 13.611,-0.34 20.413,-2.888 8.543,-3.201 15.819,-8.476 24.162,-11.981 6.263,-2.631 12.004,-5.398 17.931,-8.68 2.051,-1.136 4.332,-1.709 6.348,-2.808 1.563,-0.852 2.516,-2.319 4.454,-2.388 3.525,-0.124 5.955,3.913 9.18,4.932 3.382,1.067 6.765,0.973 10.102,2.393 4.066,1.732 8.322,3.566 12.256,5.582 7.178,3.679 12.845,10.347 20.929,12.423 3.141,0.806 6.369,0.481 9.563,1.255 3.24,0.785 6.565,1.935 9.828,2.493 5.792,0.993 12.621,-0.284 18.483,-0.498 2.888,-0.104 5.833,-0.062 8.716,-0.272 3.469,-0.254 5.251,-2.195 8.073,-4.073 9.136,-6.08 18.511,-11.081 28.666,-14.857 3.589,-1.334 7.084,-0.563 10.613,0.522 7.273,2.233 14.189,4.36 21.89,4.724 13.889,0.657 27.509,1.807 41.393,0.135 4.045,-0.487 8.076,-1.072 12.134,-1.442 3.782,-0.346 10.458,-1.435 13.911,0.367 6.575,3.429 7.891,11.539 8.578,18.259 1.325,12.968 -1.734,25.901 -7.802,37.408 -9.445,17.911 -26.482,29.98 -44.341,38.601 -12.621,6.092 -27.542,8.582 -41.33,10.675 -15.583,2.364 -31.435,3.446 -47.15,4.476 -43.82,2.873 -87.893,2.723 -131.738,0.86 -69.639,-2.959 -140.228,1.869 -208.548,-14.457 -36.783,-8.789 -73.68,-19.606 -106.197,-39.446 -8.81,-5.376 -16.926,-16.16 -15.704,-27.174 0.601,-5.417 2.03,-10.876 3.492,-16.01 0.284,-0.998 0.246,-2.409 0.625,-3.502"
         id="path640" />
    </clipPath>
    <linearGradient
       x1="0"
       y1="0"
       x2="1"
       y2="0"
       gradientUnits="userSpaceOnUse"
       gradientTransform="matrix(2.8457644,78.232643,-78.232643,2.8457644,490.85019,76.932617)"
       spreadMethod="pad"
       id="linearGradient648">
      <stop
         style="stop-opacity:1;stop-color:#878c9b"
         offset="0"
         id="stop644" />
      <stop
         style="stop-opacity:1;stop-color:#c3cae0"
         offset="1"
         id="stop646" />
    </linearGradient>
    <clipPath
       clipPathUnits="userSpaceOnUse"
       id="clipPath652">
      <path
         d="m -20.759,-28.835 c 1.556,0.123 3.095,0.681 4.54,1.194 1.261,0.449 2.492,0.974 3.744,1.446 2.461,0.926 5.372,2.32 8.014,1.275 1.666,-0.658 2.707,-2.695 4.636,-2.836 1.626,-0.117 3.855,1.235 4.823,2.374 1.004,1.185 1.388,2.274 2.577,3.44 1.594,1.563 3.227,3.204 4.852,4.776 4.849,4.691 10.49,8.465 15.859,12.5 11.323,8.509 21.146,19.234 33.526,26.097 5.415,3.002 11.452,6.897 15.695,11.414 3.14,3.343 7.158,6.625 9.342,10.64 2.182,4.014 5.113,7.457 7.62,11.283 3.211,4.902 7.728,6.202 12.17,9.493 3.709,2.748 6.009,6.891 9.371,10.034 1.179,1.103 2.827,4.109 4.098,4.654 0.952,0.409 2.867,-0.613 3.694,-1.204 2.815,-2.011 5.615,-2.936 9.01,-3.91 0.502,-0.145 2.759,-1.169 3.152,-1.16 1.244,0.027 0.771,0.422 1.719,1.018 1.601,1.007 2.507,2.219 3.783,3.563 2.936,3.089 7.733,5.012 11.109,7.57 6.16,4.671 12.133,8.856 19.009,12.393 6.155,3.166 11.675,7.042 17.997,9.862 5.423,2.419 11.444,4.796 16.235,8.379 3.972,2.97 7.819,6.142 11.793,9.127 3.424,2.571 7.538,5.904 11.537,7.637 6.147,2.665 13.315,1.159 19.775,1.985 5.135,0.657 10.612,-0.163 15.759,-0.351 8.727,-0.317 17.454,-0.634 26.18,-0.952 5.514,-0.2 11.437,0.185 16.881,-0.699 4.067,-0.661 7.71,-1.192 11.863,-1.347 4.214,-0.157 8.429,-0.297 12.643,-0.46 2.915,-0.113 5.262,-0.446 7.884,0.917 2.431,1.263 4.975,2.678 6.281,5.158 0.96,1.824 1.134,4.258 2.897,5.61 3.975,3.047 9.816,0.804 14.586,1.395 2.375,0.295 4.398,0.599 6.793,0.558 1.639,-0.027 3.294,-0.386 4.929,-0.13 2.779,0.435 4.912,1.804 7.865,1.686 2.523,-0.101 4.495,-1.266 6.972,-1.595 2.896,-0.384 5.049,1.252 7.37,3.032 2.629,2.017 5.309,3.986 8.152,5.742 1.761,1.089 3.077,1.456 5.06,1.973 2.678,0.697 4.969,2.517 7.487,3.614 5.446,2.374 14.195,4.298 19.76,1.276 5.388,-2.925 9.798,-9.094 16.749,-7.76 1.927,0.37 3.145,2.169 5.082,2.689 2.786,0.749 6.822,-0.033 9.627,-0.144 11.224,-0.442 22.254,2.313 33.451,1.806 4.282,-0.196 8.682,0.003 12.912,-0.72 5.773,-0.987 11.347,-2.415 17.178,-1.696 6.406,0.79 12.529,0.863 18.958,0.604 5.739,-0.23 12.097,0.333 17.731,-0.841 6.215,-1.294 11.924,-5.002 18.195,-5.488 8.685,-0.674 17.332,-1.192 25.414,-4.865 4.337,-1.971 8.438,-5.474 11.783,-8.823 1.295,-1.294 2.447,-2.267 3.922,-3.339 1.005,-0.73 2.577,-2.612 3.749,-2.936 1.491,-0.414 1.991,0.847 3.235,1.495 2.502,1.307 5.813,0.509 8.527,0.444 4.004,-0.097 7.802,-0.864 11.487,-2.447 3.917,-1.681 8.238,-3.749 12.378,-4.465 3.727,-0.645 5.993,-0.879 9.697,-0.09 3.236,0.688 6.429,0.733 9.668,1.626 6.79,1.871 14.583,2.324 21.621,2.067 4.063,-0.148 7.983,-0.82 12.01,-1.293 7.22,-0.847 14.523,-1.026 21.763,-1.785 3.846,-0.404 7.717,-0.688 11.583,-0.738 5.639,-0.076 13.705,-0.226 18.502,3.334 3.359,2.494 4.932,6.971 6.584,10.627 2.932,6.493 6.01,12.759 9.317,19.075 3.313,6.324 7.421,12.981 6.327,20.524 -1.738,11.99 -9.763,22.024 -18.855,29.502 -13.866,11.404 -32.435,18.683 -49.391,23.758 -26.544,7.945 -55.956,10.192 -83.285,13.196 -32.685,3.593 -65.278,6.903 -97.842,11.561 -39.462,5.644 -78.713,12.364 -118.396,16.333 -14.326,1.007 -28.653,2.013 -42.98,3.02 -31.996,1.945 -64.015,3.347 -96.058,4.208 -31.017,1.193 -61.949,0.104 -92.797,-3.268 -25.77,-3.6 -51.344,-8.265 -76.722,-13.996 -16.457,-3.573 -33.01,-7.064 -49.328,-11.208 -25.279,-6.418 -52.027,-13.58 -74.608,-27.124 -8.458,-5.073 -16.793,-11.378 -23.682,-18.553 -15.211,-15.839 -20.844,-40.177 -23.604,-61.178 -4.293,-32.659 0.044,-65.396 2.402,-98.001 1.216,-16.801 1.887,-32.424 8.506,-48.024 1.574,-3.71 2.621,-7.819 4.482,-11.389 1.75,-3.357 4.338,-5.291 6.598,-8.105 2.147,-2.672 4.223,-5.831 8,-6.075 0.356,-0.022 0.712,-0.017 1.068,0.011"
         id="path650" />
    </clipPath>
    <linearGradient
       x1="0"
       y1="0"
       x2="1"
       y2="0"
       gradientUnits="userSpaceOnUse"
       gradientTransform="matrix(846.39728,-30.788263,30.788263,846.39728,-53.13805,131.46858)"
       spreadMethod="pad"
       id="linearGradient658">
      <stop
         style="stop-opacity:1;stop-color:#86829b"
         offset="0"
         id="stop654" />
      <stop
         style="stop-opacity:1;stop-color:#414664"
         offset="1"
         id="stop656" />
    </linearGradient>
    <clipPath
       clipPathUnits="userSpaceOnUse"
       id="clipPath662">
      <path
         d="m 765.334,180.76 c 0.198,3.785 -1.884,6.523 -4.743,9.068 -2.83,2.525 -6.666,4.085 -9.921,5.944 -3.931,2.236 -7.938,4.332 -11.965,6.39 -11.131,5.689 -22.905,10.449 -34.929,13.879 -17.569,5.021 -36.375,7.397 -54.512,9.168 -24.051,2.355 -48.018,5.619 -72.071,7.915 -32.638,3.108 -65.395,5.431 -98.092,8.031 -36.32,2.872 -72.263,5.09 -108.637,4.542 -3.424,-0.046 -6.859,-0.121 -10.295,-0.216 -45.419,-1.339 -90.702,-3.635 -136.159,-3.012 -50.969,0.693 -101.752,4.552 -152.443,9.577 -1.426,0.142 -2.841,0.284 -4.268,0.416 -2.552,0.253 -5.105,0.506 -7.648,0.739 -0.359,0.043 -0.717,0.076 -1.077,0.109 -19.047,1.783 -37.991,3.113 -57.218,2.201 -11.186,-0.533 -23.874,-0.512 -34.708,-2.89 -9.603,-2.112 -20.756,-4.768 -24.571,-15.287 -2.07,-5.719 -2.41,-12.591 -2.163,-18.464 0.811,-19.802 7.055,-39.061 17.449,-55.911 8.08,-13.082 19.054,-17.574 34.134,-16.741 12.795,0.715 24.29,-0.454 36.444,-4.689 6.976,-2.434 11.76,-5.701 17.176,-10.591 2.8,-2.534 6.925,-4.945 10.717,-5.493 3.265,-0.479 5.01,0.989 7.643,2.674 6.27,4.005 11.251,9.728 18.899,10.92 6.904,1.069 13.439,-0.559 20.08,2.651 3.32,1.601 5.211,4.905 8.679,6.15 4.218,1.517 7.97,-0.151 12.045,-1.199 10.816,-2.786 21.341,-4.459 32.517,-4.786 9.636,-0.29 20.071,-1.72 29.44,-4.102 2.687,-0.689 5.899,-2.347 8.326,-1.645 0.202,0.053 0.395,0.126 0.578,0.2 4.537,1.756 5.923,7.96 9.859,10.819 3.916,2.839 9.009,3.915 13.183,6.415 6.68,4.01 12.324,4.564 19.951,4.357 3.219,-0.087 6.097,-1.292 9.253,-1.457 2.796,-0.152 6.4,0.718 9.017,1.673 4.158,1.521 7.652,4.315 12.026,5.437 2.666,0.683 5.276,1.459 7.916,2.244 4.673,1.381 9.184,-0.355 13.567,-2.245 3.941,-1.704 7.306,-4.399 11.27,-6.014 3.924,-1.603 7.709,-2.922 11.49,-4.871 3.782,-1.938 7.679,-4.572 11.967,-4.978 0.409,-0.044 0.818,-0.07 1.229,-0.065 3.183,0.024 5.725,1.974 8.557,3.342 3.279,1.581 6.595,3.072 9.865,4.654 3.259,1.563 6.118,3.4 9.554,4.606 3.507,1.223 7.017,1.425 10.589,2.266 7.065,1.655 14.494,4.786 21.219,7.534 3.301,1.351 6.448,3.137 9.859,4.214 4.484,1.418 9.417,0.578 14.034,0.41 8.744,-0.318 17.271,-0.858 25.948,-2.184 8.966,-1.367 17.338,-1.741 26.404,-1.751 14.739,-0.006 29.59,4.407 44.284,1.251 5.829,-1.253 11.33,-3.244 16.812,-5.505 2.937,-1.208 5.771,-1.15 8.87,-1.253 7.077,-0.218 14,0.291 21.02,0.186 5.351,-0.084 10.465,2.13 15.568,3.486 5.253,1.39 10.468,2.261 15.888,2.715 6.857,0.581 13.609,-0.026 20.47,0.166 6.611,0.179 13.065,1.565 19.632,2.167 7.992,0.73 15.246,-0.104 22.338,-4.055 4.599,-2.559 8.288,-6.255 12.625,-9.154 1.964,-1.303 5.21,-3.962 7.464,-4.425 2.304,-0.474 5.677,0.644 8.061,0.708 3.886,0.099 7.623,0.773 11.541,0.631 4.326,-0.168 8.312,-0.923 12.461,-2.114 2.654,-0.768 5.951,-2.559 8.764,-2.541 1.291,0.013 2.361,0.544 3.673,0.567 2.333,0.045 4.559,-1.207 6.572,-2.261 5.715,-2.989 9.216,-5.789 16.022,-5.446 5.162,0.253 10.119,2.004 15.185,2.88 2.085,0.365 3.789,0.463 5.842,-0.052 1.309,-0.328 2.537,-0.963 3.905,-0.482 1.439,0.498 2.522,1.659 3.338,3.18 2.273,4.191 2.516,11.136 2.591,14.546 0.104,5.079 1.338,9.827 1.61,14.851"
         id="path660" />
    </clipPath>
    <linearGradient
       x1="0"
       y1="0"
       x2="1"
       y2="0"
       gradientUnits="userSpaceOnUse"
       gradientTransform="matrix(825.94781,-30.044399,30.044399,825.94781,-61.149231,196.04591)"
       spreadMethod="pad"
       id="linearGradient668">
      <stop
         style="stop-opacity:1;stop-color:#224b6b"
         offset="0"
         id="stop664" />
      <stop
         style="stop-opacity:1;stop-color:#07172e"
         offset="1"
         id="stop666" />
    </linearGradient>
    <clipPath
       clipPathUnits="userSpaceOnUse"
       id="clipPath672">
      <path
         d="m 370.464,245.697 c -3.424,-0.046 -6.859,-0.121 -10.295,-0.216 -45.419,-1.339 -90.702,-3.635 -136.159,-3.012 -50.969,0.693 -101.752,4.552 -152.443,9.577 -1.426,0.142 -2.841,0.284 -4.268,0.416 4.314,-1.077 8.523,-3.112 11.882,-5.135 7.686,-4.642 12.015,-12.996 21.185,-15.1 7.125,-1.64 13.647,-6.641 19.846,-10.359 3.398,-2.035 5.914,-4.938 8.573,-7.786 0.828,-0.892 1.944,-2.402 3.173,-2.728 1.061,-0.278 2.303,0.317 3.293,0.582 5.923,1.625 11.651,-0.745 16.556,-3.996 0.801,-0.529 1.389,-0.59 1.322,-1.619 -0.074,-0.927 -2.362,-3.046 -2.957,-3.705 -1.334,-1.462 -2.177,-2.902 -2.985,-4.754 -0.328,-0.758 -1.163,-1.979 -1.044,-2.854 0.078,-0.593 1.429,-1.713 1.855,-2.109 2.498,-2.282 4.792,-4.967 7.448,-7.065 2.003,-1.594 4.704,-2.723 6.021,-5.013 1.318,-2.289 2.22,-4.433 3.771,-6.651 3.947,-5.667 10.262,-7.558 16.762,-8.795 4.421,-0.852 9.076,-2.191 13.589,-1.345 3.074,0.578 8.697,1.935 9.269,-2.688 0.415,-3.448 -2.696,-7.558 -4.979,-9.786 -1.909,-1.862 -4.006,-3.387 -5.489,-5.655 -0.964,-1.456 -2.637,-3.715 -2.929,-5.407 -0.315,-1.799 1.411,-3.033 2.58,-4.186 4.537,1.756 5.923,7.96 9.859,10.819 3.916,2.839 9.009,3.915 13.183,6.415 6.68,4.01 12.324,4.564 19.951,4.357 3.219,-0.087 6.097,-1.292 9.253,-1.457 2.796,-0.152 6.4,0.718 9.017,1.673 4.158,1.521 7.652,4.315 12.026,5.437 2.666,0.683 5.276,1.459 7.916,2.244 4.673,1.381 9.184,-0.355 13.567,-2.245 3.941,-1.704 7.306,-4.399 11.27,-6.014 3.924,-1.603 7.709,-2.922 11.49,-4.871 3.782,-1.938 7.679,-4.572 11.967,-4.978 -0.696,1.506 -0.868,3.093 -1.108,4.753 -0.337,2.274 0.172,4.707 -0.189,6.892 -0.428,2.567 -2.872,5.508 -4.648,7.304 -1.149,1.162 -1.357,1.5 -0.875,3.193 0.459,1.595 1.135,2.852 0.285,4.513 -1.552,3.009 -6.442,4.487 -9.067,6.303 -3.934,2.726 -7.049,5.651 -11.851,6.796 -2.807,0.673 -5.72,0.939 -8.538,1.602 -2.421,0.559 -4.197,1.783 -6.5,2.567 -0.929,0.315 -3.379,0.114 -4.011,0.868 -0.922,1.083 0.228,2.163 1.151,2.789 2.084,1.435 4.933,0.531 7.273,0.496 2.95,-0.057 6.012,0.482 8.654,1.867 2.285,1.207 4.288,2.886 6.411,4.319 3.396,2.288 7.441,3.472 10.895,5.708 8.015,5.212 14.908,11.776 23.083,16.722 5.269,3.181 10.45,6.394 16.259,8.484 5.647,2.017 11.276,3.793 15.74,7.974 1.596,1.493 2.925,3.086 3.96,4.859"
         id="path670" />
    </clipPath>
    <linearGradient
       x1="0"
       y1="0"
       x2="1"
       y2="0"
       gradientUnits="userSpaceOnUse"
       gradientTransform="matrix(49.795113,-189.93567,189.93567,49.795113,196.241,335.43851)"
       spreadMethod="pad"
       id="linearGradient678">
      <stop
         style="stop-opacity:1;stop-color:#224b6b"
         offset="0"
         id="stop674" />
      <stop
         style="stop-opacity:1;stop-color:#07172e"
         offset="1"
         id="stop676" />
    </linearGradient>
    <clipPath
       clipPathUnits="userSpaceOnUse"
       id="clipPath682">
      <path
         d="m 788.494,214.17 c -1.866,5.101 -5.99,7.533 -10.719,9.866 -11.265,5.533 -26.122,7.565 -38.205,9.896 -4.581,0.886 -9.173,1.744 -13.775,2.582 -39.593,7.244 -79.615,12.863 -119.699,15.942 -56.829,4.378 -113.991,2.075 -170.927,3.486 -24.204,0.59 -48.398,1.74 -72.607,1.96 -27.838,0.263 -55.637,-1.388 -83.424,-2.739 -32.57,-1.597 -65.029,-4.559 -97.598,-6.136 -17.122,-0.828 -34.121,-3.812 -49.352,-12.084 -6.911,-3.752 -12.906,-6.535 -15.942,-14.34 -1.644,-4.223 -2.377,-9.23 -1.57,-13.722 0.375,-2.095 1.202,-4.937 3.087,-6.206 1.397,-0.942 3.112,-0.834 4.804,-0.806 0.911,0.018 1.811,0.005 2.654,-0.206 1.825,-0.447 3.145,-1.565 4.733,-2.494 2.321,-1.365 4.698,-1.762 7.312,-2.267 6.29,-1.219 11.236,-4.712 16.867,-7.538 1.69,-0.852 3.381,-1.694 5.017,-2.654 1.067,-0.64 2.933,-2.429 4.258,-2.597 1.166,-0.142 2.168,0.722 3.1,1.308 0.952,0.606 1.039,1.323 2.276,1.789 1.369,0.5 3.345,0.068 4.743,-0.003 8.48,-0.438 16.842,1.379 25.387,1.078 7.445,-0.261 14.633,-0.982 21.87,-2.577 3.773,-0.827 7.897,-0.497 11.724,-0.666 5.634,-0.265 10.949,1.423 16.555,1.489 10.471,0.119 19.06,-3.926 28.391,-7.907 3.597,-1.532 7.075,-1.919 10.607,-0.836 4.939,1.531 10.71,2.582 15.89,2.754 2.084,0.064 3.934,-0.783 5.973,-0.857 1.32,-0.039 2.746,0.389 4.049,0.442 1.803,0.064 3.601,-0.321 5.413,-0.276 2.294,0.045 4.497,0.656 6.784,0.803 9.669,0.619 19.136,0.375 28.847,-0.068 4.465,-0.213 8.763,0.752 13.25,0.588 5.736,-0.218 10.778,-1.633 16.157,-3.409 3.292,-1.091 6.909,-1.792 10.396,-1.66 3.257,0.132 6.019,1.223 9.305,0.502 4.894,-1.068 8.964,-4.458 13.291,-6.527 1.683,-0.791 2.375,-1.547 3.12,-3.355 0.285,-0.681 0.525,-2.091 0.865,-2.614 0.608,-0.912 0.513,-0.499 1.362,-1.11 3.44,-2.507 10.247,-3.015 14.168,-1.396 2.113,0.864 4.2,1.859 6.285,2.784 2.471,1.1 5.246,1.44 7.642,2.673 2.682,1.384 4.87,4.016 7.973,4.614 2.389,0.453 4.552,-0.046 6.989,0.656 2.073,0.596 3.946,1.738 6.071,2.101 0.603,0.098 1.328,-0.329 1.943,-0.211 1.099,0.22 1.94,0.81 3.038,1.001 1.974,0.338 4.016,-0.467 6.053,-0.04 1.875,0.391 3.122,1.386 4.941,1.59 0.935,0.117 1.882,-0.257 2.833,0.047 1.57,0.504 2.996,2.034 4.542,2.707 3.569,1.562 5.966,2.255 9.838,1.413 4.309,-0.936 8.234,-2.781 12.155,-4.754 3.567,-1.811 6.948,-2.674 10.578,-4.097 2.033,-0.785 4.146,-2.673 5.726,-4.071 2.851,-2.516 4.85,-5.861 7.688,-8.456 2.469,-2.25 5.12,-4.218 7.715,-6.314 9.468,-7.649 17.965,-16.414 27.653,-23.801 2.697,-2.05 5.811,-5.315 9.263,-6.131 1.36,-0.309 2.763,-0.251 4.218,0.408 5.881,2.677 12.35,6.094 16.648,10.922 3.098,3.479 6.17,6.469 9.579,9.427 0.837,0.72 1.625,0.932 2.38,1.875 0.692,0.875 1.066,2.082 1.75,2.998 2.157,2.904 6.148,3.969 9.582,3.184 2.878,-0.665 5.228,-1.511 7.61,0.674 1.531,1.405 2.84,2.419 4.673,3.592 2.018,1.288 4.287,2.046 6.182,3.508 2.553,1.958 4.859,4.556 7.201,6.763 2.372,2.225 4.68,4.053 7.463,5.732 3.13,1.888 5.958,4.497 9.254,6.018 3.297,1.511 6.207,1.445 9.775,1.315 4.497,-0.173 8.23,-2.331 12.737,-2.504 3.188,-0.126 6.071,-0.082 9.149,-1.043 2.711,-0.85 6.051,-3.092 8.959,-2.668 2.313,0.337 4.004,1.696 6.47,1.846 5.657,0.345 10.112,-0.708 15.65,-1.97 7.88,-1.798 15.787,-2.836 23.817,-1.587 4.75,0.738 9.019,1.703 13.023,4.5 3.48,2.424 6.886,5.552 9.792,8.67 7.049,7.578 10.383,19.174 6.725,29.194"
         id="path680" />
    </clipPath>
    <linearGradient
       x1="0"
       y1="0"
       x2="1"
       y2="0"
       gradientUnits="userSpaceOnUse"
       gradientTransform="matrix(675.05078,-24.55542,24.55542,675.05078,114.07478,205.68503)"
       spreadMethod="pad"
       id="linearGradient688">
      <stop
         style="stop-opacity:1;stop-color:#0f1511"
         offset="0"
         id="stop684" />
      <stop
         style="stop-opacity:1;stop-color:#2b3c29"
         offset="1"
         id="stop686" />
    </linearGradient>
    <clipPath
       clipPathUnits="userSpaceOnUse"
       id="clipPath692">
      <path
         d="m 788.494,214.17 c -1.866,5.101 -5.99,7.533 -10.719,9.866 -11.265,5.533 -26.122,7.565 -38.205,9.896 -4.581,0.886 -9.173,1.744 -13.775,2.582 -0.132,-0.035 -0.274,-0.08 -0.405,-0.125 -7.696,-2.502 -15.442,-4.982 -23.306,-6.898 -5.522,-1.349 -12.305,-2.374 -17.299,-5.154 -2.748,-1.531 -4.956,-3.362 -8.086,-4.129 -4.644,-1.142 -9.343,-0.181 -14.065,-1.56 -3.561,-1.051 -6.948,-2.839 -10.552,-3.699 -3.412,-0.826 -7.058,-0.904 -10.434,-1.832 -2.333,-1.155 -4.73,-2.149 -7.202,-2.97 -1.186,-0.437 -2.374,-0.874 -3.56,-1.311 -3.091,-1.078 -6.27,-1.793 -9.306,-3.024 -6.114,-2.469 -11.321,-7.813 -18.216,-4.771 -1.329,0.589 -7.206,4.355 -7.095,0.789 0.058,-2.224 3.322,-4.124 4.808,-5.358 1.729,-1.435 9.478,-5.179 7.331,-8.082 -1.085,-1.482 -6.772,-2.416 -8.549,-2.831 -3.129,-0.738 -6,-2.083 -8.995,-3.266 -5.471,-2.162 -10.181,-5.924 -16.091,-6.89 -2.546,-0.427 -5.22,0.611 -7.734,0.022 -1.443,-0.338 -2.861,-1.097 -4.289,-1.545 -1.902,-0.581 -3.863,-0.57 -5.764,-1.092 -1.434,-0.388 -2.287,-1.277 -3.532,-1.933 -1.051,-0.562 -7.877,-0.593 -5.102,-3.566 0.586,-0.622 2.163,-0.779 2.91,-1.137 0.845,-0.411 1.587,-0.928 2.454,-1.299 2.157,-0.94 4.369,-1.75 6.415,-3.006 1.41,-0.862 2.457,-2.331 3.647,-3.445 1.19,-1.124 2.254,-2.143 3.155,-3.506 1.896,-2.902 3.711,-6.11 5.473,-9.096 1.988,-3.404 4.595,-5.99 7.824,-8.26 2.987,-2.09 3.42,-5.298 4.194,-8.808 0.387,-1.746 0.806,-3.682 1.433,-5.416 1.36,-0.309 2.763,-0.251 4.218,0.408 5.881,2.677 12.35,6.094 16.648,10.922 3.098,3.479 6.17,6.469 9.579,9.427 0.837,0.72 1.625,0.932 2.38,1.875 0.692,0.875 1.066,2.082 1.75,2.998 2.157,2.904 6.148,3.969 9.582,3.184 2.878,-0.665 5.228,-1.511 7.61,0.674 1.531,1.405 2.84,2.419 4.673,3.592 2.018,1.288 4.287,2.046 6.182,3.508 2.553,1.958 4.859,4.556 7.201,6.763 2.372,2.225 4.68,4.053 7.463,5.732 3.13,1.888 5.958,4.497 9.254,6.018 3.297,1.511 6.207,1.445 9.775,1.315 4.497,-0.173 8.23,-2.331 12.737,-2.504 3.188,-0.126 6.071,-0.082 9.149,-1.043 2.711,-0.85 6.051,-3.092 8.959,-2.668 2.313,0.337 4.004,1.696 6.47,1.846 5.657,0.345 10.112,-0.708 15.65,-1.97 7.88,-1.798 15.787,-2.836 23.817,-1.587 4.75,0.738 9.019,1.703 13.023,4.5 3.48,2.424 6.886,5.552 9.792,8.67 7.049,7.578 10.383,19.174 6.725,29.194"
         id="path690" />
    </clipPath>
    <linearGradient
       x1="0"
       y1="0"
       x2="1"
       y2="0"
       gradientUnits="userSpaceOnUse"
       gradientTransform="matrix(240.65704,-8.7540598,8.7540598,240.65704,548.24597,183.76425)"
       spreadMethod="pad"
       id="linearGradient698">
      <stop
         style="stop-opacity:1;stop-color:#0f1511"
         offset="0"
         id="stop694" />
      <stop
         style="stop-opacity:1;stop-color:#2b3c29"
         offset="1"
         id="stop696" />
    </linearGradient>
    <clipPath
       clipPathUnits="userSpaceOnUse"
       id="clipPath702">
      <path
         d="m 813.574,239.585 c -2.961,6.352 -9.492,11.943 -15.093,15.329 -15.215,9.179 -32.836,14.153 -49.752,18.981 -45.409,12.969 -92.55,22.309 -139.024,30.494 -55.263,9.736 -111.764,14.563 -167.676,18.828 -58.367,4.454 -117.539,6.007 -176.024,2.55 -51.455,-3.051 -102.281,-13.03 -151.478,-28.292 -1.873,-0.582 -3.756,-1.174 -5.629,-1.777 -32.744,-10.526 -65.099,-24.119 -96.643,-37.681 -15.198,-6.542 -32.991,-15.371 -43.193,-28.729 -11.894,-15.559 -16.82,-42.066 -9.748,-60.836 3.212,-8.532 6.127,-16.984 14.142,-21.679 4.869,-2.848 8.369,-7.308 12.98,-10.408 0.058,-0.043 0.117,-0.085 0.175,-0.117 4.27,-2.827 11.142,2.037 16.124,2.836 8.385,1.347 17.199,1.306 25.667,0.537 5.186,-0.478 9.863,-2.58 15.162,-1.862 9.342,1.271 13.634,7.289 20.472,12.875 4.187,3.429 9.308,6.105 13.728,9.337 3.413,2.487 6.35,5.102 9.523,7.869 6.407,5.591 13.665,10.62 20.495,15.724 3.775,2.816 7.674,5.486 11.2,8.629 4.106,3.663 8.568,5.553 13.444,8.107 7.896,4.145 14.279,9.607 23.34,10.839 7.854,1.075 14.461,-2.978 21.829,-4.807 5.822,-1.452 11.286,-3.612 17.264,-3.79 4.968,-0.16 9.488,0.056 14.22,1.104 2.198,0.48 4.023,1.945 6.224,2.475 2.473,0.601 4.608,0.974 7.03,1.796 8.267,2.812 15.509,1.087 23.924,1.882 7.641,0.722 14.545,2.362 22.26,2.061 7.204,-0.292 14.083,-0.442 20.99,-2.554 7.086,-2.169 13.647,-5.28 20.893,-6.644 10.067,-1.907 17.032,-11.266 26.152,-15.531 2.991,-1.4 6.048,-2.932 9.104,-4.203 1.932,-0.801 4.026,-0.997 5.871,-1.995 1.433,-0.763 2.397,-2.329 3.774,-2.98 1.023,-0.487 2.29,-0.333 3.598,0.15 2.15,0.782 4.402,2.461 5.846,3.62 3.731,2.986 6.297,4.494 10.911,6.167 3.619,1.299 7.102,2.683 10.823,3.739 4.56,1.285 8.206,3.034 12.559,4.686 7.66,2.904 14.243,1.224 22.231,0.994 3.977,-0.125 7.99,-0.131 11.954,-0.385 5.071,-0.335 9.775,-1.938 14.842,-2.102 8.497,-0.278 16.004,-2.953 23.928,-5.743 4.92,-1.73 12.364,-6.143 17.873,-4.893 4.309,0.974 5.817,5.562 9.521,6.968 3.358,1.269 9.484,-0.045 13.061,-0.175 9.004,-0.327 18.007,-0.695 27.023,-0.993 13.612,-0.445 26.968,-2.452 40.629,-2.968 10.012,-0.374 19.581,-2.253 29.515,-2.565 7.197,-0.231 13.204,0.151 19.877,3.13 7.793,3.499 15.881,7.417 23.433,11.465 7.888,4.226 15.891,9.669 24.684,11.511 6.283,1.312 11.936,1.037 18.321,0.764 9.271,-0.397 18.239,0.217 27.489,0.311 12.303,0.133 24.647,0.304 36.949,0.678 13.674,0.413 29.819,-1.135 42.861,3.404 11.22,3.904 15.516,12.784 10.345,23.869"
         id="path700" />
    </clipPath>
    <linearGradient
       x1="0"
       y1="0"
       x2="1"
       y2="0"
       gradientUnits="userSpaceOnUse"
       gradientTransform="matrix(302.35516,-215.8004,215.8004,302.35516,268.42975,284.24127)"
       spreadMethod="pad"
       id="linearGradient708">
      <stop
         style="stop-opacity:1;stop-color:#5e790e"
         offset="0"
         id="stop704" />
      <stop
         style="stop-opacity:1;stop-color:#2b3c29"
         offset="1"
         id="stop706" />
    </linearGradient>
    <clipPath
       clipPathUnits="userSpaceOnUse"
       id="clipPath712">
      <path
         d="m 358.899,178.103 c -0.252,0.509 -0.563,1.041 -0.933,1.595 -1.831,2.758 -4.509,4.227 -6.283,6.883 -1.661,2.502 -4.59,3.389 -6.974,5.257 -1.158,0.902 -2.528,1.473 -3.237,2.609 -0.634,1.014 -0.697,1.767 0.743,2.014 1.229,0.216 1.713,-0.242 2.834,0.317 0.795,0.402 1.969,1.03 2.609,1.587 0.91,0.797 1.273,2.245 2.23,2.99 0.691,0.546 2.655,0.365 1.988,2.1 -0.586,1.502 -3.968,0.414 -5.356,0.765 -1.586,0.398 -2.808,1.763 -3.928,2.875 -1.179,1.153 -2.34,1.706 -3.889,2.302 -3.701,1.416 -7.631,-0.162 -11.333,0.673 -2.441,0.549 -4.681,1.972 -6.554,3.59 -2.435,2.101 -3.853,5.214 -6.568,7.034 -4.162,2.784 -9.299,2.68 -13.804,4.555 -3.095,1.293 -5.323,2.475 -8.788,2.411 -3.224,-0.063 -5.437,-0.923 -8.334,0.863 -2.477,1.501 -3.4,4.197 -5.823,5.786 -3.255,2.129 -7.061,3.419 -10.696,4.712 -7.469,2.653 -15.149,4.984 -22.919,6.517 -11.545,2.272 -23.339,4.011 -34.485,7.909 -14.327,5.014 -27.557,12.961 -40.888,20.06 -9.571,5.091 -19.149,10.283 -29.326,14.105 -8.115,3.047 -16.593,5.177 -25.051,7.035 -1.738,0.384 -3.486,0.728 -5.236,1.051 -32.744,-10.526 -65.099,-24.119 -96.643,-37.681 -15.198,-6.542 -32.991,-15.371 -43.193,-28.729 -11.894,-15.559 -16.82,-42.066 -9.748,-60.836 3.212,-8.532 6.127,-16.984 14.142,-21.679 4.869,-2.848 8.369,-7.308 12.98,-10.408 0.058,-0.043 0.117,-0.085 0.175,-0.117 4.27,-2.827 11.142,2.037 16.124,2.836 8.385,1.347 17.199,1.306 25.667,0.537 5.186,-0.478 9.863,-2.58 15.162,-1.862 9.342,1.271 13.634,7.289 20.472,12.875 4.187,3.429 9.308,6.105 13.728,9.337 3.413,2.487 6.35,5.102 9.523,7.869 6.407,5.591 13.665,10.62 20.495,15.724 3.775,2.816 7.674,5.486 11.2,8.629 4.106,3.663 8.568,5.553 13.444,8.107 7.896,4.145 14.279,9.607 23.34,10.839 7.854,1.075 14.461,-2.978 21.829,-4.807 5.822,-1.452 11.286,-3.612 17.264,-3.79 4.968,-0.16 9.488,0.056 14.22,1.104 2.198,0.48 4.023,1.945 6.224,2.475 2.473,0.601 4.608,0.974 7.03,1.796 8.267,2.812 15.509,1.087 23.924,1.882 7.641,0.722 14.545,2.362 22.26,2.061 7.204,-0.292 14.083,-0.442 20.99,-2.554 7.086,-2.169 13.647,-5.28 20.893,-6.644 10.067,-1.907 17.032,-11.266 26.152,-15.531 2.991,-1.4 6.048,-2.932 9.104,-4.203 1.932,-0.801 4.026,-0.997 5.871,-1.995 1.433,-0.763 2.397,-2.329 3.774,-2.98 1.023,-0.487 2.29,-0.333 3.598,0.15"
         id="path710" />
    </clipPath>
    <linearGradient
       x1="0"
       y1="0"
       x2="1"
       y2="0"
       gradientUnits="userSpaceOnUse"
       gradientTransform="matrix(408.10532,-59.541305,59.541305,408.10532,-16.069605,225.04048)"
       spreadMethod="pad"
       id="linearGradient718">
      <stop
         style="stop-opacity:1;stop-color:#5e790e"
         offset="0"
         id="stop714" />
      <stop
         style="stop-opacity:1;stop-color:#2b3c29"
         offset="1"
         id="stop716" />
    </linearGradient>
  </defs>
  <sodipodi:namedview
     id="namedview4"
     pagecolor="#ffffff"
     bordercolor="#000000"
     borderopacity="0.25"
     inkscape:showpageshadow="2"
     inkscape:pageopacity="0.0"
     inkscape:pagecheckerboard="0"
     inkscape:deskcolor="#d1d1d1"
     showgrid="false"
     inkscape:zoom="0.98549997"
     inkscape:cx="501.77576"
     inkscape:cy="299.34045"
     inkscape:window-width="1600"
     inkscape:window-height="837"
     inkscape:window-x="-8"
     inkscape:window-y="-8"
     inkscape:window-maximized="1"
     inkscape:current-layer="g10" />
  <g
     id="g10"
     inkscape:groupmode="layer"
     inkscape:label="Page 1"
     transform="matrix(1.3333333,0,0,-1.3333333,0,297.21468)">
    <g
       id="g32">
      <g
         id="g34"
         clip-path="url(#clipPath38)">
        <g
           id="g40">
          <g
             id="g42">
            <path
               d="m 57.14,195.12 c 0.36,0.02 0.72,0.04 1.08,0.07 v 0 c -0.91,0.11 -1.8,0.3 -2.67,0.57 v 0 c 0.54,-0.18 1.07,-0.4 1.59,-0.64"
               style="fill:url(#linearGradient48);stroke:none"
               id="path50" />
          </g>
        </g>
      </g>
    </g>
    <g
       id="g442">
      <g
         id="g444"
         clip-path="url(#clipPath448)">
        <g
           id="g450">
          <g
             id="g452">
            <path
               d="M 0,0 H 750 V 222.911 H 0 Z"
               style="fill:url(#linearGradient458);stroke:none"
               id="path460" />
          </g>
        </g>
        <path
           d="M 769.57,219.333 H -20.89 v 3.578 h 790.46 z"
           style="fill:#d1dfed;fill-opacity:1;fill-rule:nonzero;stroke:none"
           id="path462" />
      </g>
    </g>
    <g
       id="g464">
      <g
         id="g466"
         clip-path="url(#clipPath470)">
        <g
           id="g472">
          <g
             id="g474" />
          <g
             id="g872">
            <g
               clip-path="url(#clipPath478)"
               opacity="0.429993"
               id="g870">
              <g
                 id="g732">
                <g
                   clip-path="url(#clipPath482)"
                   id="g730">
                  <g
                     id="g728">
                    <g
                       id="g720" />
                    <g
                       mask="url(#mask494)"
                       id="g726">
                      <g
                         id="g724">
                        <path
                           d="m 29.877,-53.644 c 0.258,0.765 0.49,1.496 0.743,2.07 1.183,2.685 2.918,2.411 5.447,3.016 2.726,0.653 2.943,3.381 4.294,5.398 0.876,1.306 2.157,1.653 2.436,3.297 0.234,1.374 -0.171,2.692 0.419,4.019 0.622,1.402 1.877,2.617 2.838,3.792 1.14,1.395 1.99,3.162 3.798,3.568 1.495,0.336 3.286,0.174 3.966,1.791 1.101,2.614 -0.743,5.599 1.497,7.963 1.853,1.956 3.526,3.425 4.644,5.968 0.946,2.152 1.657,4.057 2.203,6.378 0.693,2.952 1.189,5.811 1.64,8.804 0.451,2.995 1.089,4.608 3.246,6.671 2.034,1.943 4.038,4.541 3.778,7.517 -0.482,5.504 -1.559,11.593 -7.883,13.006 -7.134,1.595 -14.339,-2.29 -21.307,-0.51 -8.338,2.128 -15.994,5.77 -24.775,5.713 C 10.406,34.776 2.52,33.858 -3.429,31.27 -8.967,28.858 -13.725,24.484 -17.707,20.036 c -8.218,-9.181 -11.69,-20.354 -13.372,-32.344 -1.458,-10.387 1.643,-19.463 8.38,-27.436 2.864,-3.391 6.107,-6.402 10.153,-8.299 3.129,-1.468 6.758,-1.637 10.056,-2.603 6.382,-1.868 12.288,-5.377 18.69,-7.335 1.635,-0.501 3.598,-1.102 5.329,-0.882 1.011,0.129 1.872,0.732 2.887,0.825 0.748,0.068 1.551,-0.332 2.298,-0.117 1.715,0.494 2.522,2.611 3.163,4.511"
                           style="fill:url(#linearGradient510);stroke:none"
                           id="path722" />
                      </g>
                    </g>
                  </g>
                </g>
              </g>
              <g
                 id="g746">
                <g
                   clip-path="url(#clipPath514)"
                   id="g744">
                  <g
                     id="g742">
                    <g
                       id="g734" />
                    <g
                       mask="url(#mask526)"
                       id="g740">
                      <g
                         id="g738">
                        <path
                           d="m 92.781,66.555 c 2.384,-1.814 5.083,-3.404 7.098,-5.173 1.54,-1.351 3.068,-2.947 4.229,-4.632 1.216,-1.762 1.878,-4.116 4.008,-5.028 2.019,-0.865 5.764,-2.481 7.983,-1.886 2.982,0.799 3.633,5.006 6.16,6.446 0.646,0.368 2.693,1.233 3.325,1.353 1.96,0.374 1.637,0.017 2.971,-0.86 1.928,-1.265 4.022,-3.753 4.379,-6.206 0.408,-2.803 -3.865,-4.217 -5.838,-5.967 -3.337,-2.959 -1.266,-6.529 -3.531,-9.48 -2.005,-2.613 -4.733,-5.115 -6.389,-8.194 -1.321,-2.456 -1.374,-4.291 -0.424,-6.862 0.18,-0.487 1.083,-2.146 1.099,-2.532 0.094,-2.313 -2.41,-4.464 -2.958,-6.531 -0.654,-2.461 0.48,-3.481 2.571,-4.9 2.57,-1.746 4.394,-1.02 7.233,-0.463 3.573,0.701 5.713,-0.447 8.877,1.881 2.888,2.125 5.904,4.836 6.487,8.612 2.474,0.13 2.515,1.57 3.022,3.513 0.674,2.579 2.013,6.753 4.385,8.201 3.11,1.896 5.188,1.026 6.517,5.054 0.546,1.655 0.705,3.198 2.123,4.31 1.082,0.851 2.541,0.773 3.64,1.376 2.287,1.255 2.682,3.541 6.006,2.783 4.925,-1.123 8.049,-7.224 10.224,-11.268 4.11,-7.648 -5.224,-15.728 -11.365,-19.103 -1.673,-0.92 -1.775,-0.651 -2.528,-2.506 -0.763,-1.884 -1.437,-4.241 -1.735,-6.246 -0.198,-1.329 0.06,-1.925 -0.786,-2.954 -0.706,-0.859 -1.695,-1.022 -2.287,-2.029 -1.922,-3.276 -1.253,-8.132 -2.734,-11.59 -0.973,-2.272 -3.37,-2.04 -3.984,-4.231 -0.822,-2.926 1.889,-3.419 3.156,-5.406 1.522,-2.387 2.163,-5.26 3.398,-7.917 1.799,-3.872 5.001,-6.858 6.732,-10.641 1.042,-2.278 0.788,-4.651 0.645,-7.077 -0.208,-3.512 0.138,-6.856 0.812,-10.306 1.103,-5.646 4.946,-11.117 10.364,-13.293 2.991,-1.202 4.767,-1.357 7.057,0.863 1.743,1.69 2.244,2.774 4.742,2.207 1.804,-0.41 3.302,-1.391 5.219,-1.601 2.643,-0.29 4.559,0.401 7.063,1.179 5.586,1.736 11.264,2.837 17.128,2.992 7.813,0.207 12.852,4.126 18.989,8.416 3.42,2.391 7.105,4.381 10.193,7.208 3.815,3.494 6.17,7.382 8.164,12.1 2.495,5.902 4.887,10.964 9.348,15.619 2.015,2.105 4.177,3.784 5.73,6.297 2.592,4.194 2.897,9.06 4.31,13.685 0.979,3.203 2.679,6.316 1.462,9.667 -2.003,5.512 -6.947,10.982 -11.918,13.985 -3.515,2.123 -6.89,2.874 -10.012,5.752 -1.652,1.522 -3.981,3.129 -4.563,5.474 -0.544,2.189 0.396,2.652 1.542,4.167 1.173,1.549 1.533,1.781 1.696,3.905 0.184,2.387 -0.209,4.308 -0.588,6.616 -0.651,3.958 0.612,4.412 3.511,6.417 2.396,1.657 3.962,4.252 6.678,5.466 3.477,1.554 5.699,-1.812 8.906,1.326 3.25,3.179 2.169,8.085 7.915,8.62 2.666,0.249 5.929,-0.842 8.607,-1.13 1.615,-0.174 3.205,-0.657 4.376,-1.801 3.215,-3.14 2.16,-9.924 7.135,-11.52 3.06,-0.981 6.464,1.339 9.257,2.292 3.047,1.039 4.95,1.37 7.201,3.989 1.718,1.999 3.695,3.22 5.781,4.786 4.798,3.604 8.336,6.716 10.387,12.651 0.531,1.537 1.56,3.82 1.484,5.477 -0.077,1.686 -1.032,2.373 -1.951,3.726 -1.945,2.863 -3.586,7.25 -2.46,10.722 3.916,0.024 3.326,3.92 4.556,6.561 1.521,3.268 5.201,3.324 7.267,6.136 1.395,1.898 2.622,4.172 4.416,5.749 2.189,1.923 4.662,2.054 7.421,2.629 3.422,0.712 9.381,2.275 12.829,0.633 3.842,-1.829 2.655,-7.664 3.267,-11.008 0.588,-3.217 0.907,-9.36 3.68,-11.575 2.674,-2.134 5.418,0.278 5.29,-4.659 -0.127,-4.879 -1.72,-10.044 -4.558,-13.938 -2.721,-3.734 -7.005,-7.722 -4.928,-12.761 1.487,-3.607 6.023,-7.233 9.847,-5.87 2.102,0.751 3.879,2.472 5.962,3.306 3.344,1.339 6.677,1.072 9.98,2.787 2.511,1.303 4.94,2.764 7.45,4.075 4.714,2.463 6.996,6.141 9.6,10.646 1.807,3.129 3.563,6.261 5.656,9.195 3.724,5.218 4.947,9.636 5.44,16.189 0.332,4.397 1.163,9.582 0.65,13.926 -0.45,3.816 -5.284,6.165 -8.365,8.065 -6.837,4.22 -15.026,5.567 -22.828,6.931 -12.116,2.118 -24.289,2.598 -36.493,3.886 -28.116,2.968 -55.319,11.754 -83.537,14.212 -14.14,1.232 -28.307,1.959 -42.46,2.994 -14.302,1.045 -27.64,1.988 -41.855,-0.775 -13.389,-2.602 -25.985,-9.335 -38.03,-15.53 -11.25,-5.785 -22.382,-11.899 -32.927,-18.906 -8.428,-5.6 -17.832,-12.65 -24.87,-19.922 -6.573,-6.79 -5.623,-15.059 -3.531,-23.405 0.392,-1.568 0.549,-3.248 1.349,-4.681 1.012,-1.81 2.639,-3.314 4.448,-4.69"
                           style="fill:url(#linearGradient542);stroke:none"
                           id="path736" />
                      </g>
                    </g>
                  </g>
                </g>
              </g>
              <g
                 id="g760">
                <g
                   clip-path="url(#clipPath546)"
                   id="g758">
                  <g
                     id="g756">
                    <g
                       id="g748" />
                    <g
                       mask="url(#mask558)"
                       id="g754">
                      <g
                         id="g752">
                        <path
                           d="m 147.762,86.753 c -0.005,-0.454 -0.028,-0.909 -0.082,-1.365 -0.502,-4.187 -0.133,-8.608 4.003,-10.856 1.592,-0.866 3.578,-1.023 5.075,-2.057 1.783,-1.232 2.8,-3.954 4.813,-4.811 1.627,-0.692 3.904,-0.074 5.639,-0.441 2.132,-0.452 4.032,-1.704 6.154,-2.124 1.442,-0.286 2.986,-0.714 4.463,-0.811 1.322,-0.087 2.825,0.171 4.092,-0.234 4.68,-1.496 5.717,-5.916 5.673,-10.115 -0.06,-5.772 6.304,-9.955 6.159,-15.596 -0.068,-2.659 -2.137,-4.039 -2.845,-6.539 -0.648,-2.289 -0.356,-4.9 1.223,-6.713 2.006,-2.304 4.575,-4.27 6.732,-6.443 1.739,-1.751 3.823,-3.575 6.056,-4.715 4.043,-2.065 8.521,-3.162 13.038,-3.213 4.247,-0.048 5.974,2.688 8.296,5.809 2.126,2.858 5.063,4.805 7.809,6.971 3.777,2.98 4.829,8.037 6.268,12.378 1.282,3.867 1.956,7.306 1.603,11.415 -0.223,2.607 -0.22,6.122 -2.847,7.523 -1.229,0.656 -2.693,0.647 -3.984,1.123 -1.157,0.427 -2.354,1.036 -3.392,1.703 -2.241,1.44 -2.521,3.438 -1.94,5.738 0.649,2.576 2.127,4.975 4.604,6.269 1.575,0.825 3.023,0.484 4.424,1.864 1.641,1.614 1.825,5.021 4.312,5.721 2.119,0.596 5.118,-0.791 7.2,-1.392 1.468,-0.424 2.627,-0.99 4.178,-1.021 4.21,-0.084 6.676,1.718 9.89,4.285 3.716,2.967 8.29,6.135 11.432,9.703 4.251,4.824 8.076,12.466 6.258,19.129 -2.477,9.083 -13.099,11.036 -20.739,13.331 -13.156,3.952 -25.528,10.08 -38.83,13.563 -3.614,0.946 -7.222,1.909 -10.954,2.299 -7.902,0.825 -15.47,-0.606 -23.057,-2.629 -3.424,-0.913 -7.025,-1.767 -10.399,-2.913 -4.842,-1.646 -8.684,-4.71 -12.227,-8.298 -4.247,-4.302 -5.244,-9.714 -7.778,-14.968 -1.757,-3.641 -4.07,-6.572 -6.734,-9.549 -1.662,-1.858 -2.951,-4.08 -3.457,-6.538 -0.377,-1.83 -0.109,-3.651 -0.129,-5.483"
                           style="fill:url(#linearGradient574);stroke:none"
                           id="path750" />
                      </g>
                    </g>
                  </g>
                </g>
              </g>
              <g
                 id="g774">
                <g
                   clip-path="url(#clipPath578)"
                   id="g772">
                  <g
                     id="g770">
                    <g
                       id="g762" />
                    <g
                       mask="url(#mask590)"
                       id="g768">
                      <g
                         id="g766">
                        <path
                           d="m 414.907,125.526 c 1.862,-1.192 3.087,-2.818 4.627,-4.463 2.313,-2.47 3.562,-5.214 5.02,-8.305 1.967,-4.168 3.266,-10.811 7.312,-13.575 1.913,-1.308 4.325,-0.979 6.496,-0.993 3.695,-0.023 6.058,-0.242 9.096,-2.452 3.189,-2.319 6.129,-4.45 10.254,-4.332 2.886,0.083 4.525,1.853 6.923,3.205 2.344,1.324 4.067,1.159 6.706,1.043 0.844,-0.037 1.835,-0.255 2.664,-0.132 1.138,0.17 2.169,0.73 3.353,0.779 4.687,0.194 8.621,-3.027 10.789,-7.129 0.99,-1.869 1.092,-3.665 0.295,-5.616 -0.367,-0.898 -0.848,-1.687 -1.436,-2.452 -1.687,-2.195 -2.859,-3.908 -3.805,-6.559 -0.995,-2.788 -1.592,-5.006 -4.035,-6.721 -1.982,-1.389 -4.34,-1.849 -6.378,-3.245 -2.021,-1.386 -1.183,-2.133 -0.58,-4.197 0.438,-1.502 0.248,-1.345 -1.094,-2.7 -1.813,-1.832 -2.39,-3.984 -2.008,-6.676 0.407,-2.864 2.416,-6.199 5.659,-6.274 2.712,-0.062 5.331,0.656 8.121,0.482 2.897,-0.18 5.077,-1.37 7.956,-0.316 1.532,0.562 4.923,2.142 6.554,1.706 1.932,-0.517 3.268,-3.197 4.008,-4.769 2.171,-4.614 2.638,-10.916 -0.51,-15.366 -1.976,-2.792 -5.821,-2.171 -8.156,-4.215 -2.746,-2.404 -2.984,-7.428 -2.58,-10.659 0.649,-5.189 2.933,-9.288 4.871,-14.014 1.338,-3.261 2.181,-6.588 4.327,-9.519 1.998,-2.728 5.045,-6.531 8.525,-7.168 3.671,-0.672 5.408,3.223 8.592,4.196 3.533,1.079 7.737,-1.352 11.305,-1.578 4.752,-0.302 9.235,-1.376 13.89,-2.326 5.199,-1.061 10.349,-2.109 15.491,-3.457 4.153,-1.088 8.061,-0.718 11.981,1.065 2.176,0.991 4.233,2.404 6.132,3.843 2.127,1.61 4,2.66 6.342,3.902 3.736,1.982 7.845,6.196 9.068,10.209 0.905,2.971 1.602,5.457 0.665,8.517 -1.217,3.966 -5.93,6.052 -8.668,8.722 -2.281,2.223 -4.492,5.948 -4.663,9.133 -0.103,1.934 0.452,3.828 0.452,5.731 0,2.396 -0.489,4.139 1.011,6.134 1.932,2.57 2.417,5.203 3.611,8.115 1.316,3.211 2.855,3.044 5.725,4.215 2.414,0.986 4.171,3.096 6.905,3.179 3.544,0.11 5.984,-1.794 8.413,-4.185 1.729,-1.705 2.416,-4.045 4.065,-5.713 1.114,-1.128 4.082,-3.299 5.852,-2.842 1.647,0.426 1.629,2.664 2.041,3.938 0.596,1.84 1.154,3.344 2.872,4.29 2.622,1.446 5.476,0.821 7.649,3.288 1.969,2.235 3.562,5.133 6.31,6.58 2.836,1.492 6.55,1.175 9.638,0.93 4.819,-0.383 8.191,-4.245 10.046,-8.384 1.444,-3.221 2.957,-7.238 1.994,-10.805 -0.794,-2.94 -3.58,-5.113 -4.204,-8.174 -0.572,-2.805 2.3,-5.765 4.894,-6.387 2.882,-0.69 3.267,2.286 5.679,2.464 1.286,0.095 2.641,-0.797 3.833,-1.172 1.567,-0.494 3.157,-0.873 4.786,-1.134 4.345,-0.696 7.874,-0.009 11.288,2.774 2.686,2.189 4.698,4.978 6.97,7.567 3.345,3.814 5.374,8.078 7.817,12.471 1.728,3.102 3.589,5.625 2.402,9.203 -1.155,3.482 -4.542,7.815 -4.119,11.62 0.229,2.058 2.37,2.999 3.942,3.88 3.06,1.718 4.315,5.095 6.237,7.816 2.506,3.547 5.653,7.639 10.225,8.237 4.396,0.574 6.599,-1.834 8.777,-5.217 2.125,-3.301 3.434,-7.099 5.425,-10.516 1.933,-3.316 5.612,-8.12 5.645,-12.048 0.025,-2.833 1.72,-4.54 4.251,-5.921 6.041,-3.295 13.739,-4.021 20.077,-1.133 4.003,1.823 6.55,6.334 8.622,9.937 3.856,6.705 6.301,13.922 8.628,21.258 3.39,10.685 6.129,21.699 0.205,32.152 -3.252,5.739 -8.565,9.807 -13.604,13.858 -11.193,8.999 -23.873,16.003 -37.165,21.438 -13.703,5.604 -27.843,8.097 -42.446,10.108 -15.633,2.151 -31.443,3.421 -47.193,4.314 -33.855,1.921 -67.714,1.041 -101.595,0.794 -25.445,-0.184 -51.072,-1.367 -76.426,-3.581 -5.569,-0.485 -11.16,-0.943 -16.712,-1.578 -7.035,-0.805 -14.615,-1.276 -21.353,-3.613 -6.725,-2.333 -12.61,-6.896 -13.803,-14.321 -0.655,-4.07 -1.334,-9.652 2.249,-12.573 2.058,-1.678 4.344,-3.037 6.63,-4.376 0.118,-0.069 0.233,-0.139 0.345,-0.212"
                           style="fill:url(#linearGradient606);stroke:none"
                           id="path764" />
                      </g>
                    </g>
                  </g>
                </g>
              </g>
              <g
                 id="g788">
                <g
                   clip-path="url(#clipPath610)"
                   id="g786">
                  <g
                     id="g784">
                    <g
                       id="g776" />
                    <g
                       mask="url(#mask622)"
                       id="g782">
                      <g
                         id="g780">
                        <path
                           d="m 699.289,115.422 c -0.449,-2.026 -0.812,-4.066 -1.223,-6.099 -0.351,-1.746 -0.794,-3.458 -1.378,-5.142 -0.427,-1.232 -0.912,-2.444 -1.414,-3.647 -0.854,-2.048 -1.821,-4.078 -2.22,-6.277 -0.593,-3.258 0.106,-6.753 -1.266,-9.867 -1.602,-3.638 -7.002,-4.739 -10.191,-6.556 -2.708,-1.542 -5.276,-3.902 -8.613,-3.117 -2.234,0.525 -4.623,2.262 -4.867,4.623 -0.082,0.784 0.225,1.623 0.198,2.414 -0.05,1.53 -0.811,2.851 -1.25,4.282 -0.76,2.483 -0.938,5.832 -3.684,7.201 -0.944,0.471 -2.296,0.429 -3.327,0.874 -1.407,0.606 -2.806,0.967 -4.258,1.454 -3.419,1.148 -6.33,3.46 -9.524,5.127 -2.533,1.324 -5.926,0.255 -8.551,-0.417 -1.617,-0.413 -3.237,-0.822 -4.901,-1.006 -1.9,-0.212 -2.086,-0.008 -3.299,-1.337 -1.559,-1.707 -2.127,-2.572 -2.218,-4.88 -0.134,-3.406 0.071,-5.785 -2.411,-8.318 -2.479,-2.529 -5.751,-4.091 -8.429,-6.383 -2.648,-2.266 -6.497,-4.095 -9.823,-5.008 -3.245,-0.892 -7.629,-0.806 -10.786,0.543 -2.341,1 -2.893,3.963 -3.666,6.13 -1.137,3.191 -2.388,7.451 -4.796,9.979 -3.243,3.405 -7.374,2.114 -11.377,1.333 -3.504,-0.684 -6.014,-0.591 -9.515,0.049 -3.714,0.68 -6.371,-0.277 -9.845,-1.483 -3.766,-1.308 -6.623,-3.867 -10.193,-5.555 -4.243,-2.006 -8.064,0.44 -11.626,2.644 -3.692,2.285 -5.433,5.031 -7.621,8.635 -1.43,2.355 -3.416,4.85 -6.235,5.466 -2.455,0.535 -5.209,0.498 -7.704,0.867 -3.147,0.466 -6.357,0.757 -9.49,1.299 -8.055,1.393 -18.541,5.661 -22.266,13.515 -2.243,4.725 -2.733,10.187 2.529,13.124 3.043,1.699 6.847,1.295 10.154,1.061 5.836,-0.412 11.441,-1.8 17.158,-2.944 10.726,-2.148 21.231,-2.201 31.985,-0.226 17.608,3.234 34.504,8.596 52.519,9.42 8.419,0.385 16.749,1.029 25.154,1.595 10.007,0.673 20.019,-0.026 30.004,1.108 4.767,0.542 9.51,1.27 14.242,2.05 7.349,1.212 14.594,3.111 21.999,3.943 4.785,0.539 9.686,1.121 14.503,0.65 4.328,-0.422 8.033,-0.992 12.371,-0.484 2.848,0.334 3.594,-0.407 2.947,-3.196 -0.939,-4.048 -2.872,-9.318 -6.331,-11.769 -2.144,-1.519 -4.394,-2.964 -6.353,-4.712 -0.869,-0.776 -2.135,-2.233 -2.326,-3.359 -0.104,-0.621 0.298,-0.879 -0.048,-1.63 -0.249,-0.541 -0.84,-0.928 -1.173,-1.42 -0.876,-1.302 -1.174,-2.817 -1.513,-4.321 -0.018,-0.078 -0.035,-0.155 -0.052,-0.233"
                           style="fill:url(#linearGradient638);stroke:none"
                           id="path778" />
                      </g>
                    </g>
                  </g>
                </g>
              </g>
              <g
                 id="g798">
                <g
                   clip-path="url(#clipPath642)"
                   id="g796">
                  <g
                     id="g794">
                    <g
                       id="g792">
                      <path
                         d="m 195.576,116.99 c 0.117,-0.337 0.274,-0.644 0.492,-0.899 0.951,-1.112 3.163,-1.707 4.458,-2.575 3.472,-2.327 6.557,-4.594 9.683,-7.425 3.04,-2.752 5.985,-6.713 9.529,-8.808 2.792,-1.652 4.514,1.685 7.383,2.645 5.849,1.956 11.18,4.606 17.429,5.224 7.072,0.701 13.556,-3.172 20.533,-3.425 6.299,-0.23 12.125,3.045 18.448,1.962 5.431,-0.93 11.116,-1.346 16.604,-0.639 7.036,0.905 14.446,-0.026 21.532,-0.283 3.604,-0.131 7.221,-0.168 10.821,-0.357 4.244,-0.222 8.356,-1.218 12.595,-1.524 4.814,-0.35 9.273,-0.501 13.983,-1.704 2.348,-0.6 6.609,-3.105 8.989,-1.997 2.892,1.346 5.007,6.325 7.153,8.637 3.482,3.752 8.497,5.491 12.48,8.55 5.049,3.879 9.999,3.626 15.922,4.652 4.12,0.714 8.702,4.253 12.765,4.186 6.253,-0.105 11.807,-3.834 17.44,-5.969 4.367,-1.654 5.369,0.532 9.198,1.87 4.818,1.685 10.424,1.173 15.489,1.572 2.985,0.235 5.687,0.511 8.636,1.082 3.202,0.62 6.31,0.213 9.508,0.596 7.158,0.858 13.611,-0.34 20.413,-2.888 8.543,-3.201 15.819,-8.476 24.162,-11.981 6.263,-2.631 12.004,-5.398 17.931,-8.68 2.051,-1.136 4.332,-1.709 6.348,-2.808 1.563,-0.852 2.516,-2.319 4.454,-2.388 3.525,-0.124 5.955,3.913 9.18,4.932 3.382,1.067 6.765,0.973 10.102,2.393 4.066,1.732 8.322,3.566 12.256,5.582 7.178,3.679 12.845,10.347 20.929,12.423 3.141,0.806 6.369,0.481 9.563,1.255 3.24,0.785 6.565,1.935 9.828,2.493 5.792,0.993 12.621,-0.284 18.483,-0.498 2.888,-0.104 5.833,-0.062 8.716,-0.272 3.469,-0.254 5.251,-2.195 8.073,-4.073 9.136,-6.08 18.511,-11.081 28.666,-14.857 3.589,-1.334 7.084,-0.563 10.613,0.522 7.273,2.233 14.189,4.36 21.89,4.724 13.889,0.657 27.509,1.807 41.393,0.135 4.045,-0.487 8.076,-1.072 12.134,-1.442 3.782,-0.346 10.458,-1.435 13.911,0.367 6.575,3.429 7.891,11.539 8.578,18.259 1.325,12.968 -1.734,25.901 -7.802,37.408 -9.445,17.911 -26.482,29.98 -44.341,38.601 -12.621,6.092 -27.542,8.582 -41.33,10.675 -15.583,2.364 -31.435,3.446 -47.15,4.476 -43.82,2.873 -87.893,2.723 -131.738,0.86 -69.639,-2.959 -140.228,1.869 -208.548,-14.457 -36.783,-8.789 -73.68,-19.606 -106.197,-39.446 -8.81,-5.376 -16.926,-16.16 -15.704,-27.174 0.601,-5.417 2.03,-10.876 3.492,-16.01 0.284,-0.998 0.246,-2.409 0.625,-3.502"
                         style="fill:url(#linearGradient648);stroke:none"
                         id="path790" />
                    </g>
                  </g>
                </g>
              </g>
              <g
                 id="g808">
                <g
                   clip-path="url(#clipPath652)"
                   id="g806">
                  <g
                     id="g804">
                    <g
                       id="g802">
                      <path
                         d="m -20.759,-28.835 c 1.556,0.123 3.095,0.681 4.54,1.194 1.261,0.449 2.492,0.974 3.744,1.446 2.461,0.926 5.372,2.32 8.014,1.275 1.666,-0.658 2.707,-2.695 4.636,-2.836 1.626,-0.117 3.855,1.235 4.823,2.374 1.004,1.185 1.388,2.274 2.577,3.44 1.594,1.563 3.227,3.204 4.852,4.776 4.849,4.691 10.49,8.465 15.859,12.5 11.323,8.509 21.146,19.234 33.526,26.097 5.415,3.002 11.452,6.897 15.695,11.414 3.14,3.343 7.158,6.625 9.342,10.64 2.182,4.014 5.113,7.457 7.62,11.283 3.211,4.902 7.728,6.202 12.17,9.493 3.709,2.748 6.009,6.891 9.371,10.034 1.179,1.103 2.827,4.109 4.098,4.654 0.952,0.409 2.867,-0.613 3.694,-1.204 2.815,-2.011 5.615,-2.936 9.01,-3.91 0.502,-0.145 2.759,-1.169 3.152,-1.16 1.244,0.027 0.771,0.422 1.719,1.018 1.601,1.007 2.507,2.219 3.783,3.563 2.936,3.089 7.733,5.012 11.109,7.57 6.16,4.671 12.133,8.856 19.009,12.393 6.155,3.166 11.675,7.042 17.997,9.862 5.423,2.419 11.444,4.796 16.235,8.379 3.972,2.97 7.819,6.142 11.793,9.127 3.424,2.571 7.538,5.904 11.537,7.637 6.147,2.665 13.315,1.159 19.775,1.985 5.135,0.657 10.612,-0.163 15.759,-0.351 8.727,-0.317 17.454,-0.634 26.18,-0.952 5.514,-0.2 11.437,0.185 16.881,-0.699 4.067,-0.661 7.71,-1.192 11.863,-1.347 4.214,-0.157 8.429,-0.297 12.643,-0.46 2.915,-0.113 5.262,-0.446 7.884,0.917 2.431,1.263 4.975,2.678 6.281,5.158 0.96,1.824 1.134,4.258 2.897,5.61 3.975,3.047 9.816,0.804 14.586,1.395 2.375,0.295 4.398,0.599 6.793,0.558 1.639,-0.027 3.294,-0.386 4.929,-0.13 2.779,0.435 4.912,1.804 7.865,1.686 2.523,-0.101 4.495,-1.266 6.972,-1.595 2.896,-0.384 5.049,1.252 7.37,3.032 2.629,2.017 5.309,3.986 8.152,5.742 1.761,1.089 3.077,1.456 5.06,1.973 2.678,0.697 4.969,2.517 7.487,3.614 5.446,2.374 14.195,4.298 19.76,1.276 5.388,-2.925 9.798,-9.094 16.749,-7.76 1.927,0.37 3.145,2.169 5.082,2.689 2.786,0.749 6.822,-0.033 9.627,-0.144 11.224,-0.442 22.254,2.313 33.451,1.806 4.282,-0.196 8.682,0.003 12.912,-0.72 5.773,-0.987 11.347,-2.415 17.178,-1.696 6.406,0.79 12.529,0.863 18.958,0.604 5.739,-0.23 12.097,0.333 17.731,-0.841 6.215,-1.294 11.924,-5.002 18.195,-5.488 8.685,-0.674 17.332,-1.192 25.414,-4.865 4.337,-1.971 8.438,-5.474 11.783,-8.823 1.295,-1.294 2.447,-2.267 3.922,-3.339 1.005,-0.73 2.577,-2.612 3.749,-2.936 1.491,-0.414 1.991,0.847 3.235,1.495 2.502,1.307 5.813,0.509 8.527,0.444 4.004,-0.097 7.802,-0.864 11.487,-2.447 3.917,-1.681 8.238,-3.749 12.378,-4.465 3.727,-0.645 5.993,-0.879 9.697,-0.09 3.236,0.688 6.429,0.733 9.668,1.626 6.79,1.871 14.583,2.324 21.621,2.067 4.063,-0.148 7.983,-0.82 12.01,-1.293 7.22,-0.847 14.523,-1.026 21.763,-1.785 3.846,-0.404 7.717,-0.688 11.583,-0.738 5.639,-0.076 13.705,-0.226 18.502,3.334 3.359,2.494 4.932,6.971 6.584,10.627 2.932,6.493 6.01,12.759 9.317,19.075 3.313,6.324 7.421,12.981 6.327,20.524 -1.738,11.99 -9.763,22.024 -18.855,29.502 -13.866,11.404 -32.435,18.683 -49.391,23.758 -26.544,7.945 -55.956,10.192 -83.285,13.196 -32.685,3.593 -65.278,6.903 -97.842,11.561 -39.462,5.644 -78.713,12.364 -118.396,16.333 -14.326,1.007 -28.653,2.013 -42.98,3.02 -31.996,1.945 -64.015,3.347 -96.058,4.208 -31.017,1.193 -61.949,0.104 -92.797,-3.268 -25.77,-3.6 -51.344,-8.265 -76.722,-13.996 -16.457,-3.573 -33.01,-7.064 -49.328,-11.208 -25.279,-6.418 -52.027,-13.58 -74.608,-27.124 -8.458,-5.073 -16.793,-11.378 -23.682,-18.553 -15.211,-15.839 -20.844,-40.177 -23.604,-61.178 -4.293,-32.659 0.044,-65.396 2.402,-98.001 1.216,-16.801 1.887,-32.424 8.506,-48.024 1.574,-3.71 2.621,-7.819 4.482,-11.389 1.75,-3.357 4.338,-5.291 6.598,-8.105 2.147,-2.672 4.223,-5.831 8,-6.075 0.356,-0.022 0.712,-0.017 1.068,0.011"
                         style="fill:url(#linearGradient658);stroke:none"
                         id="path800" />
                    </g>
                  </g>
                </g>
              </g>
              <g
                 id="g818">
                <g
                   clip-path="url(#clipPath662)"
                   id="g816">
                  <g
                     id="g814">
                    <g
                       id="g812">
                      <path
                         d="m 765.334,180.76 c 0.198,3.785 -1.884,6.523 -4.743,9.068 -2.83,2.525 -6.666,4.085 -9.921,5.944 -3.931,2.236 -7.938,4.332 -11.965,6.39 -11.131,5.689 -22.905,10.449 -34.929,13.879 -17.569,5.021 -36.375,7.397 -54.512,9.168 -24.051,2.355 -48.018,5.619 -72.071,7.915 -32.638,3.108 -65.395,5.431 -98.092,8.031 -36.32,2.872 -72.263,5.09 -108.637,4.542 -3.424,-0.046 -6.859,-0.121 -10.295,-0.216 -45.419,-1.339 -90.702,-3.635 -136.159,-3.012 -50.969,0.693 -101.752,4.552 -152.443,9.577 -1.426,0.142 -2.841,0.284 -4.268,0.416 -2.552,0.253 -5.105,0.506 -7.648,0.739 -0.359,0.043 -0.717,0.076 -1.077,0.109 -19.047,1.783 -37.991,3.113 -57.218,2.201 -11.186,-0.533 -23.874,-0.512 -34.708,-2.89 -9.603,-2.112 -20.756,-4.768 -24.571,-15.287 -2.07,-5.719 -2.41,-12.591 -2.163,-18.464 0.811,-19.802 7.055,-39.061 17.449,-55.911 8.08,-13.082 19.054,-17.574 34.134,-16.741 12.795,0.715 24.29,-0.454 36.444,-4.689 6.976,-2.434 11.76,-5.701 17.176,-10.591 2.8,-2.534 6.925,-4.945 10.717,-5.493 3.265,-0.479 5.01,0.989 7.643,2.674 6.27,4.005 11.251,9.728 18.899,10.92 6.904,1.069 13.439,-0.559 20.08,2.651 3.32,1.601 5.211,4.905 8.679,6.15 4.218,1.517 7.97,-0.151 12.045,-1.199 10.816,-2.786 21.341,-4.459 32.517,-4.786 9.636,-0.29 20.071,-1.72 29.44,-4.102 2.687,-0.689 5.899,-2.347 8.326,-1.645 0.202,0.053 0.395,0.126 0.578,0.2 4.537,1.756 5.923,7.96 9.859,10.819 3.916,2.839 9.009,3.915 13.183,6.415 6.68,4.01 12.324,4.564 19.951,4.357 3.219,-0.087 6.097,-1.292 9.253,-1.457 2.796,-0.152 6.4,0.718 9.017,1.673 4.158,1.521 7.652,4.315 12.026,5.437 2.666,0.683 5.276,1.459 7.916,2.244 4.673,1.381 9.184,-0.355 13.567,-2.245 3.941,-1.704 7.306,-4.399 11.27,-6.014 3.924,-1.603 7.709,-2.922 11.49,-4.871 3.782,-1.938 7.679,-4.572 11.967,-4.978 0.409,-0.044 0.818,-0.07 1.229,-0.065 3.183,0.024 5.725,1.974 8.557,3.342 3.279,1.581 6.595,3.072 9.865,4.654 3.259,1.563 6.118,3.4 9.554,4.606 3.507,1.223 7.017,1.425 10.589,2.266 7.065,1.655 14.494,4.786 21.219,7.534 3.301,1.351 6.448,3.137 9.859,4.214 4.484,1.418 9.417,0.578 14.034,0.41 8.744,-0.318 17.271,-0.858 25.948,-2.184 8.966,-1.367 17.338,-1.741 26.404,-1.751 14.739,-0.006 29.59,4.407 44.284,1.251 5.829,-1.253 11.33,-3.244 16.812,-5.505 2.937,-1.208 5.771,-1.15 8.87,-1.253 7.077,-0.218 14,0.291 21.02,0.186 5.351,-0.084 10.465,2.13 15.568,3.486 5.253,1.39 10.468,2.261 15.888,2.715 6.857,0.581 13.609,-0.026 20.47,0.166 6.611,0.179 13.065,1.565 19.632,2.167 7.992,0.73 15.246,-0.104 22.338,-4.055 4.599,-2.559 8.288,-6.255 12.625,-9.154 1.964,-1.303 5.21,-3.962 7.464,-4.425 2.304,-0.474 5.677,0.644 8.061,0.708 3.886,0.099 7.623,0.773 11.541,0.631 4.326,-0.168 8.312,-0.923 12.461,-2.114 2.654,-0.768 5.951,-2.559 8.764,-2.541 1.291,0.013 2.361,0.544 3.673,0.567 2.333,0.045 4.559,-1.207 6.572,-2.261 5.715,-2.989 9.216,-5.789 16.022,-5.446 5.162,0.253 10.119,2.004 15.185,2.88 2.085,0.365 3.789,0.463 5.842,-0.052 1.309,-0.328 2.537,-0.963 3.905,-0.482 1.439,0.498 2.522,1.659 3.338,3.18 2.273,4.191 2.516,11.136 2.591,14.546 0.104,5.079 1.338,9.827 1.61,14.851"
                         style="fill:url(#linearGradient668);stroke:none"
                         id="path810" />
                    </g>
                  </g>
                </g>
              </g>
              <g
                 id="g828">
                <g
                   clip-path="url(#clipPath672)"
                   id="g826">
                  <g
                     id="g824">
                    <g
                       id="g822">
                      <path
                         d="m 370.464,245.697 c -3.424,-0.046 -6.859,-0.121 -10.295,-0.216 -45.419,-1.339 -90.702,-3.635 -136.159,-3.012 -50.969,0.693 -101.752,4.552 -152.443,9.577 -1.426,0.142 -2.841,0.284 -4.268,0.416 4.314,-1.077 8.523,-3.112 11.882,-5.135 7.686,-4.642 12.015,-12.996 21.185,-15.1 7.125,-1.64 13.647,-6.641 19.846,-10.359 3.398,-2.035 5.914,-4.938 8.573,-7.786 0.828,-0.892 1.944,-2.402 3.173,-2.728 1.061,-0.278 2.303,0.317 3.293,0.582 5.923,1.625 11.651,-0.745 16.556,-3.996 0.801,-0.529 1.389,-0.59 1.322,-1.619 -0.074,-0.927 -2.362,-3.046 -2.957,-3.705 -1.334,-1.462 -2.177,-2.902 -2.985,-4.754 -0.328,-0.758 -1.163,-1.979 -1.044,-2.854 0.078,-0.593 1.429,-1.713 1.855,-2.109 2.498,-2.282 4.792,-4.967 7.448,-7.065 2.003,-1.594 4.704,-2.723 6.021,-5.013 1.318,-2.289 2.22,-4.433 3.771,-6.651 3.947,-5.667 10.262,-7.558 16.762,-8.795 4.421,-0.852 9.076,-2.191 13.589,-1.345 3.074,0.578 8.697,1.935 9.269,-2.688 0.415,-3.448 -2.696,-7.558 -4.979,-9.786 -1.909,-1.862 -4.006,-3.387 -5.489,-5.655 -0.964,-1.456 -2.637,-3.715 -2.929,-5.407 -0.315,-1.799 1.411,-3.033 2.58,-4.186 4.537,1.756 5.923,7.96 9.859,10.819 3.916,2.839 9.009,3.915 13.183,6.415 6.68,4.01 12.324,4.564 19.951,4.357 3.219,-0.087 6.097,-1.292 9.253,-1.457 2.796,-0.152 6.4,0.718 9.017,1.673 4.158,1.521 7.652,4.315 12.026,5.437 2.666,0.683 5.276,1.459 7.916,2.244 4.673,1.381 9.184,-0.355 13.567,-2.245 3.941,-1.704 7.306,-4.399 11.27,-6.014 3.924,-1.603 7.709,-2.922 11.49,-4.871 3.782,-1.938 7.679,-4.572 11.967,-4.978 -0.696,1.506 -0.868,3.093 -1.108,4.753 -0.337,2.274 0.172,4.707 -0.189,6.892 -0.428,2.567 -2.872,5.508 -4.648,7.304 -1.149,1.162 -1.357,1.5 -0.875,3.193 0.459,1.595 1.135,2.852 0.285,4.513 -1.552,3.009 -6.442,4.487 -9.067,6.303 -3.934,2.726 -7.049,5.651 -11.851,6.796 -2.807,0.673 -5.72,0.939 -8.538,1.602 -2.421,0.559 -4.197,1.783 -6.5,2.567 -0.929,0.315 -3.379,0.114 -4.011,0.868 -0.922,1.083 0.228,2.163 1.151,2.789 2.084,1.435 4.933,0.531 7.273,0.496 2.95,-0.057 6.012,0.482 8.654,1.867 2.285,1.207 4.288,2.886 6.411,4.319 3.396,2.288 7.441,3.472 10.895,5.708 8.015,5.212 14.908,11.776 23.083,16.722 5.269,3.181 10.45,6.394 16.259,8.484 5.647,2.017 11.276,3.793 15.74,7.974 1.596,1.493 2.925,3.086 3.96,4.859"
                         style="fill:url(#linearGradient678);stroke:none"
                         id="path820" />
                    </g>
                  </g>
                </g>
              </g>
              <g
                 id="g838">
                <g
                   clip-path="url(#clipPath682)"
                   id="g836">
                  <g
                     id="g834">
                    <g
                       id="g832">
                      <path
                         d="m 788.494,214.17 c -1.866,5.101 -5.99,7.533 -10.719,9.866 -11.265,5.533 -26.122,7.565 -38.205,9.896 -4.581,0.886 -9.173,1.744 -13.775,2.582 -39.593,7.244 -79.615,12.863 -119.699,15.942 -56.829,4.378 -113.991,2.075 -170.927,3.486 -24.204,0.59 -48.398,1.74 -72.607,1.96 -27.838,0.263 -55.637,-1.388 -83.424,-2.739 -32.57,-1.597 -65.029,-4.559 -97.598,-6.136 -17.122,-0.828 -34.121,-3.812 -49.352,-12.084 -6.911,-3.752 -12.906,-6.535 -15.942,-14.34 -1.644,-4.223 -2.377,-9.23 -1.57,-13.722 0.375,-2.095 1.202,-4.937 3.087,-6.206 1.397,-0.942 3.112,-0.834 4.804,-0.806 0.911,0.018 1.811,0.005 2.654,-0.206 1.825,-0.447 3.145,-1.565 4.733,-2.494 2.321,-1.365 4.698,-1.762 7.312,-2.267 6.29,-1.219 11.236,-4.712 16.867,-7.538 1.69,-0.852 3.381,-1.694 5.017,-2.654 1.067,-0.64 2.933,-2.429 4.258,-2.597 1.166,-0.142 2.168,0.722 3.1,1.308 0.952,0.606 1.039,1.323 2.276,1.789 1.369,0.5 3.345,0.068 4.743,-0.003 8.48,-0.438 16.842,1.379 25.387,1.078 7.445,-0.261 14.633,-0.982 21.87,-2.577 3.773,-0.827 7.897,-0.497 11.724,-0.666 5.634,-0.265 10.949,1.423 16.555,1.489 10.471,0.119 19.06,-3.926 28.391,-7.907 3.597,-1.532 7.075,-1.919 10.607,-0.836 4.939,1.531 10.71,2.582 15.89,2.754 2.084,0.064 3.934,-0.783 5.973,-0.857 1.32,-0.039 2.746,0.389 4.049,0.442 1.803,0.064 3.601,-0.321 5.413,-0.276 2.294,0.045 4.497,0.656 6.784,0.803 9.669,0.619 19.136,0.375 28.847,-0.068 4.465,-0.213 8.763,0.752 13.25,0.588 5.736,-0.218 10.778,-1.633 16.157,-3.409 3.292,-1.091 6.909,-1.792 10.396,-1.66 3.257,0.132 6.019,1.223 9.305,0.502 4.894,-1.068 8.964,-4.458 13.291,-6.527 1.683,-0.791 2.375,-1.547 3.12,-3.355 0.285,-0.681 0.525,-2.091 0.865,-2.614 0.608,-0.912 0.513,-0.499 1.362,-1.11 3.44,-2.507 10.247,-3.015 14.168,-1.396 2.113,0.864 4.2,1.859 6.285,2.784 2.471,1.1 5.246,1.44 7.642,2.673 2.682,1.384 4.87,4.016 7.973,4.614 2.389,0.453 4.552,-0.046 6.989,0.656 2.073,0.596 3.946,1.738 6.071,2.101 0.603,0.098 1.328,-0.329 1.943,-0.211 1.099,0.22 1.94,0.81 3.038,1.001 1.974,0.338 4.016,-0.467 6.053,-0.04 1.875,0.391 3.122,1.386 4.941,1.59 0.935,0.117 1.882,-0.257 2.833,0.047 1.57,0.504 2.996,2.034 4.542,2.707 3.569,1.562 5.966,2.255 9.838,1.413 4.309,-0.936 8.234,-2.781 12.155,-4.754 3.567,-1.811 6.948,-2.674 10.578,-4.097 2.033,-0.785 4.146,-2.673 5.726,-4.071 2.851,-2.516 4.85,-5.861 7.688,-8.456 2.469,-2.25 5.12,-4.218 7.715,-6.314 9.468,-7.649 17.965,-16.414 27.653,-23.801 2.697,-2.05 5.811,-5.315 9.263,-6.131 1.36,-0.309 2.763,-0.251 4.218,0.408 5.881,2.677 12.35,6.094 16.648,10.922 3.098,3.479 6.17,6.469 9.579,9.427 0.837,0.72 1.625,0.932 2.38,1.875 0.692,0.875 1.066,2.082 1.75,2.998 2.157,2.904 6.148,3.969 9.582,3.184 2.878,-0.665 5.228,-1.511 7.61,0.674 1.531,1.405 2.84,2.419 4.673,3.592 2.018,1.288 4.287,2.046 6.182,3.508 2.553,1.958 4.859,4.556 7.201,6.763 2.372,2.225 4.68,4.053 7.463,5.732 3.13,1.888 5.958,4.497 9.254,6.018 3.297,1.511 6.207,1.445 9.775,1.315 4.497,-0.173 8.23,-2.331 12.737,-2.504 3.188,-0.126 6.071,-0.082 9.149,-1.043 2.711,-0.85 6.051,-3.092 8.959,-2.668 2.313,0.337 4.004,1.696 6.47,1.846 5.657,0.345 10.112,-0.708 15.65,-1.97 7.88,-1.798 15.787,-2.836 23.817,-1.587 4.75,0.738 9.019,1.703 13.023,4.5 3.48,2.424 6.886,5.552 9.792,8.67 7.049,7.578 10.383,19.174 6.725,29.194"
                         style="fill:url(#linearGradient688);stroke:none"
                         id="path830" />
                    </g>
                  </g>
                </g>
              </g>
              <g
                 id="g848">
                <g
                   clip-path="url(#clipPath692)"
                   id="g846">
                  <g
                     id="g844">
                    <g
                       id="g842">
                      <path
                         d="m 788.494,214.17 c -1.866,5.101 -5.99,7.533 -10.719,9.866 -11.265,5.533 -26.122,7.565 -38.205,9.896 -4.581,0.886 -9.173,1.744 -13.775,2.582 -0.132,-0.035 -0.274,-0.08 -0.405,-0.125 -7.696,-2.502 -15.442,-4.982 -23.306,-6.898 -5.522,-1.349 -12.305,-2.374 -17.299,-5.154 -2.748,-1.531 -4.956,-3.362 -8.086,-4.129 -4.644,-1.142 -9.343,-0.181 -14.065,-1.56 -3.561,-1.051 -6.948,-2.839 -10.552,-3.699 -3.412,-0.826 -7.058,-0.904 -10.434,-1.832 -2.333,-1.155 -4.73,-2.149 -7.202,-2.97 -1.186,-0.437 -2.374,-0.874 -3.56,-1.311 -3.091,-1.078 -6.27,-1.793 -9.306,-3.024 -6.114,-2.469 -11.321,-7.813 -18.216,-4.771 -1.329,0.589 -7.206,4.355 -7.095,0.789 0.058,-2.224 3.322,-4.124 4.808,-5.358 1.729,-1.435 9.478,-5.179 7.331,-8.082 -1.085,-1.482 -6.772,-2.416 -8.549,-2.831 -3.129,-0.738 -6,-2.083 -8.995,-3.266 -5.471,-2.162 -10.181,-5.924 -16.091,-6.89 -2.546,-0.427 -5.22,0.611 -7.734,0.022 -1.443,-0.338 -2.861,-1.097 -4.289,-1.545 -1.902,-0.581 -3.863,-0.57 -5.764,-1.092 -1.434,-0.388 -2.287,-1.277 -3.532,-1.933 -1.051,-0.562 -7.877,-0.593 -5.102,-3.566 0.586,-0.622 2.163,-0.779 2.91,-1.137 0.845,-0.411 1.587,-0.928 2.454,-1.299 2.157,-0.94 4.369,-1.75 6.415,-3.006 1.41,-0.862 2.457,-2.331 3.647,-3.445 1.19,-1.124 2.254,-2.143 3.155,-3.506 1.896,-2.902 3.711,-6.11 5.473,-9.096 1.988,-3.404 4.595,-5.99 7.824,-8.26 2.987,-2.09 3.42,-5.298 4.194,-8.808 0.387,-1.746 0.806,-3.682 1.433,-5.416 1.36,-0.309 2.763,-0.251 4.218,0.408 5.881,2.677 12.35,6.094 16.648,10.922 3.098,3.479 6.17,6.469 9.579,9.427 0.837,0.72 1.625,0.932 2.38,1.875 0.692,0.875 1.066,2.082 1.75,2.998 2.157,2.904 6.148,3.969 9.582,3.184 2.878,-0.665 5.228,-1.511 7.61,0.674 1.531,1.405 2.84,2.419 4.673,3.592 2.018,1.288 4.287,2.046 6.182,3.508 2.553,1.958 4.859,4.556 7.201,6.763 2.372,2.225 4.68,4.053 7.463,5.732 3.13,1.888 5.958,4.497 9.254,6.018 3.297,1.511 6.207,1.445 9.775,1.315 4.497,-0.173 8.23,-2.331 12.737,-2.504 3.188,-0.126 6.071,-0.082 9.149,-1.043 2.711,-0.85 6.051,-3.092 8.959,-2.668 2.313,0.337 4.004,1.696 6.47,1.846 5.657,0.345 10.112,-0.708 15.65,-1.97 7.88,-1.798 15.787,-2.836 23.817,-1.587 4.75,0.738 9.019,1.703 13.023,4.5 3.48,2.424 6.886,5.552 9.792,8.67 7.049,7.578 10.383,19.174 6.725,29.194"
                         style="fill:url(#linearGradient698);stroke:none"
                         id="path840" />
                    </g>
                  </g>
                </g>
              </g>
              <g
                 id="g858">
                <g
                   clip-path="url(#clipPath702)"
                   id="g856">
                  <g
                     id="g854">
                    <g
                       id="g852">
                      <path
                         d="m 813.574,239.585 c -2.961,6.352 -9.492,11.943 -15.093,15.329 -15.215,9.179 -32.836,14.153 -49.752,18.981 -45.409,12.969 -92.55,22.309 -139.024,30.494 -55.263,9.736 -111.764,14.563 -167.676,18.828 -58.367,4.454 -117.539,6.007 -176.024,2.55 -51.455,-3.051 -102.281,-13.03 -151.478,-28.292 -1.873,-0.582 -3.756,-1.174 -5.629,-1.777 -32.744,-10.526 -65.099,-24.119 -96.643,-37.681 -15.198,-6.542 -32.991,-15.371 -43.193,-28.729 -11.894,-15.559 -16.82,-42.066 -9.748,-60.836 3.212,-8.532 6.127,-16.984 14.142,-21.679 4.869,-2.848 8.369,-7.308 12.98,-10.408 0.058,-0.043 0.117,-0.085 0.175,-0.117 4.27,-2.827 11.142,2.037 16.124,2.836 8.385,1.347 17.199,1.306 25.667,0.537 5.186,-0.478 9.863,-2.58 15.162,-1.862 9.342,1.271 13.634,7.289 20.472,12.875 4.187,3.429 9.308,6.105 13.728,9.337 3.413,2.487 6.35,5.102 9.523,7.869 6.407,5.591 13.665,10.62 20.495,15.724 3.775,2.816 7.674,5.486 11.2,8.629 4.106,3.663 8.568,5.553 13.444,8.107 7.896,4.145 14.279,9.607 23.34,10.839 7.854,1.075 14.461,-2.978 21.829,-4.807 5.822,-1.452 11.286,-3.612 17.264,-3.79 4.968,-0.16 9.488,0.056 14.22,1.104 2.198,0.48 4.023,1.945 6.224,2.475 2.473,0.601 4.608,0.974 7.03,1.796 8.267,2.812 15.509,1.087 23.924,1.882 7.641,0.722 14.545,2.362 22.26,2.061 7.204,-0.292 14.083,-0.442 20.99,-2.554 7.086,-2.169 13.647,-5.28 20.893,-6.644 10.067,-1.907 17.032,-11.266 26.152,-15.531 2.991,-1.4 6.048,-2.932 9.104,-4.203 1.932,-0.801 4.026,-0.997 5.871,-1.995 1.433,-0.763 2.397,-2.329 3.774,-2.98 1.023,-0.487 2.29,-0.333 3.598,0.15 2.15,0.782 4.402,2.461 5.846,3.62 3.731,2.986 6.297,4.494 10.911,6.167 3.619,1.299 7.102,2.683 10.823,3.739 4.56,1.285 8.206,3.034 12.559,4.686 7.66,2.904 14.243,1.224 22.231,0.994 3.977,-0.125 7.99,-0.131 11.954,-0.385 5.071,-0.335 9.775,-1.938 14.842,-2.102 8.497,-0.278 16.004,-2.953 23.928,-5.743 4.92,-1.73 12.364,-6.143 17.873,-4.893 4.309,0.974 5.817,5.562 9.521,6.968 3.358,1.269 9.484,-0.045 13.061,-0.175 9.004,-0.327 18.007,-0.695 27.023,-0.993 13.612,-0.445 26.968,-2.452 40.629,-2.968 10.012,-0.374 19.581,-2.253 29.515,-2.565 7.197,-0.231 13.204,0.151 19.877,3.13 7.793,3.499 15.881,7.417 23.433,11.465 7.888,4.226 15.891,9.669 24.684,11.511 6.283,1.312 11.936,1.037 18.321,0.764 9.271,-0.397 18.239,0.217 27.489,0.311 12.303,0.133 24.647,0.304 36.949,0.678 13.674,0.413 29.819,-1.135 42.861,3.404 11.22,3.904 15.516,12.784 10.345,23.869"
                         style="fill:url(#linearGradient708);stroke:none"
                         id="path850" />
                    </g>
                  </g>
                </g>
              </g>
              <g
                 id="g868">
                <g
                   clip-path="url(#clipPath712)"
                   id="g866">
                  <g
                     id="g864">
                    <g
                       id="g862">
                      <path
                         d="m 358.899,178.103 c -0.252,0.509 -0.563,1.041 -0.933,1.595 -1.831,2.758 -4.509,4.227 -6.283,6.883 -1.661,2.502 -4.59,3.389 -6.974,5.257 -1.158,0.902 -2.528,1.473 -3.237,2.609 -0.634,1.014 -0.697,1.767 0.743,2.014 1.229,0.216 1.713,-0.242 2.834,0.317 0.795,0.402 1.969,1.03 2.609,1.587 0.91,0.797 1.273,2.245 2.23,2.99 0.691,0.546 2.655,0.365 1.988,2.1 -0.586,1.502 -3.968,0.414 -5.356,0.765 -1.586,0.398 -2.808,1.763 -3.928,2.875 -1.179,1.153 -2.34,1.706 -3.889,2.302 -3.701,1.416 -7.631,-0.162 -11.333,0.673 -2.441,0.549 -4.681,1.972 -6.554,3.59 -2.435,2.101 -3.853,5.214 -6.568,7.034 -4.162,2.784 -9.299,2.68 -13.804,4.555 -3.095,1.293 -5.323,2.475 -8.788,2.411 -3.224,-0.063 -5.437,-0.923 -8.334,0.863 -2.477,1.501 -3.4,4.197 -5.823,5.786 -3.255,2.129 -7.061,3.419 -10.696,4.712 -7.469,2.653 -15.149,4.984 -22.919,6.517 -11.545,2.272 -23.339,4.011 -34.485,7.909 -14.327,5.014 -27.557,12.961 -40.888,20.06 -9.571,5.091 -19.149,10.283 -29.326,14.105 -8.115,3.047 -16.593,5.177 -25.051,7.035 -1.738,0.384 -3.486,0.728 -5.236,1.051 -32.744,-10.526 -65.099,-24.119 -96.643,-37.681 -15.198,-6.542 -32.991,-15.371 -43.193,-28.729 -11.894,-15.559 -16.82,-42.066 -9.748,-60.836 3.212,-8.532 6.127,-16.984 14.142,-21.679 4.869,-2.848 8.369,-7.308 12.98,-10.408 0.058,-0.043 0.117,-0.085 0.175,-0.117 4.27,-2.827 11.142,2.037 16.124,2.836 8.385,1.347 17.199,1.306 25.667,0.537 5.186,-0.478 9.863,-2.58 15.162,-1.862 9.342,1.271 13.634,7.289 20.472,12.875 4.187,3.429 9.308,6.105 13.728,9.337 3.413,2.487 6.35,5.102 9.523,7.869 6.407,5.591 13.665,10.62 20.495,15.724 3.775,2.816 7.674,5.486 11.2,8.629 4.106,3.663 8.568,5.553 13.444,8.107 7.896,4.145 14.279,9.607 23.34,10.839 7.854,1.075 14.461,-2.978 21.829,-4.807 5.822,-1.452 11.286,-3.612 17.264,-3.79 4.968,-0.16 9.488,0.056 14.22,1.104 2.198,0.48 4.023,1.945 6.224,2.475 2.473,0.601 4.608,0.974 7.03,1.796 8.267,2.812 15.509,1.087 23.924,1.882 7.641,0.722 14.545,2.362 22.26,2.061 7.204,-0.292 14.083,-0.442 20.99,-2.554 7.086,-2.169 13.647,-5.28 20.893,-6.644 10.067,-1.907 17.032,-11.266 26.152,-15.531 2.991,-1.4 6.048,-2.932 9.104,-4.203 1.932,-0.801 4.026,-0.997 5.871,-1.995 1.433,-0.763 2.397,-2.329 3.774,-2.98 1.023,-0.487 2.29,-0.333 3.598,0.15"
                         style="fill:url(#linearGradient718);stroke:none"
                         id="path860" />
                    </g>
                  </g>
                </g>
              </g>
            </g>
          </g>
        </g>
      </g>
    </g>
  </g>
</svg>
