<?xml version="1.0" encoding="UTF-8" standalone="no"?>
<!-- Generator: Adobe Illustrator 21.0.0, SVG Export Plug-In . SVG Version: 6.00 Build 0)  -->

<svg
   version="1.1"
   id="Layer_2"
   x="0px"
   y="0px"
   viewBox="0 0 1400 1400"
   style="enable-background:new 0 0 1400 1400;"
   xml:space="preserve"
   sodipodi:docname="camp.svg"
   inkscape:version="1.2 (dc2aedaf03, 2022-05-15)"
   xmlns:inkscape="http://www.inkscape.org/namespaces/inkscape"
   xmlns:sodipodi="http://sodipodi.sourceforge.net/DTD/sodipodi-0.dtd"
   xmlns="http://www.w3.org/2000/svg"
   xmlns:svg="http://www.w3.org/2000/svg"><defs
   id="defs7733" /><sodipodi:namedview
   id="namedview7731"
   pagecolor="#ffffff"
   bordercolor="#000000"
   borderopacity="0.25"
   inkscape:showpageshadow="2"
   inkscape:pageopacity="0.0"
   inkscape:pagecheckerboard="0"
   inkscape:deskcolor="#d1d1d1"
   showgrid="false"
   inkscape:zoom="0.41053452"
   inkscape:cx="651.58954"
   inkscape:cy="993.82629"
   inkscape:window-width="1600"
   inkscape:window-height="837"
   inkscape:window-x="-8"
   inkscape:window-y="-8"
   inkscape:window-maximized="1"
   inkscape:current-layer="Layer_2" />
<style
   type="text/css"
   id="style7578">
	.st0{fill:url(#SVGID_1_);}
	.st1{fill:#157E80;}
	.st2{fill:#24A3A3;}
	.st3{fill:url(#SVGID_2_);}
	.st4{fill:#0E262D;}
	.st5{fill:#071E1A;}
	.st6{fill:#3B5453;}
	.st7{fill:#4B6361;}
	.st8{opacity:0.2;fill:#FFD239;}
	.st9{fill:#0F1D3E;}
	.st10{fill:#384E5E;}
	.st11{fill:#506877;}
	.st12{fill:#2A3E3E;}
	.st13{fill:#377992;}
	.st14{fill:#2C6577;}
	.st15{fill:#5295AA;}
	.st16{fill:#202214;}
	.st17{fill:#193C44;}
	.st18{fill:#2E301A;}
	.st19{fill:#0F352F;}
	.st20{opacity:0.3;fill:#FFD239;}
	.st21{fill:#69462F;}
	.st22{fill:#7C543E;}
	.st23{fill:#9B722F;}
	.st24{fill:#11284D;}
	.st25{fill:#2B6977;}
	.st26{fill:#134662;}
	.st27{fill:#0D4056;}
	.st28{fill:#176356;}
	.st29{fill:#111A30;}
	.st30{fill:#2A917F;}
	.st31{fill:#1B5950;}
	.st32{fill:#FFAD00;}
	.st33{fill:#061C32;}
	.st34{fill:#EA9B1C;}
	.st35{fill:#FFC152;}
	.st36{fill:#FFCE43;}
	.st37{fill:#71C6CD;}
	.st38{fill:#26100D;}
	.st39{fill:#3B1C17;}
	.st40{fill:#FDC300;}
	.st41{fill:#FA7A07;}
	.st42{fill:#FFD150;}
	.st43{fill:#F4CE62;}
	.st44{fill:#FFEC66;}
	.st45{fill:#FF8A50;}
	.st46{fill:#F3701E;}
	.st47{fill:#CE5917;}
	.st48{fill:#FCAA86;}
	.st49{fill:#47B23F;}
	.st50{fill:#2E9329;}
	.st51{fill:#237C1C;}
	.st52{fill:#69C961;}
	.st53{fill:#326B9E;}
	.st54{fill:#0F406D;}
	.st55{fill:#174D87;}
	.st56{fill:#417DAA;}
	.st57{fill:#155945;}
	.st58{fill:#564E1F;}
	.st59{fill:#FFD239;}
	.st60{fill:#F88414;}
</style>
<linearGradient
   id="SVGID_1_"
   gradientUnits="userSpaceOnUse"
   x1="705.4807"
   y1="-23.0318"
   x2="699.4819"
   y2="450.8734">
	<stop
   offset="0"
   style="stop-color:#193C44"
   id="stop7580" />
	<stop
   offset="1"
   style="stop-color:#12635E"
   id="stop7582" />
</linearGradient>



<linearGradient
   id="SVGID_2_"
   gradientUnits="userSpaceOnUse"
   x1="701.4584"
   y1="888.3167"
   x2="701.4584"
   y2="465.2743">
	<stop
   offset="0"
   style="stop-color:#203736"
   id="stop7591" />
	<stop
   offset="1"
   style="stop-color:#193C44"
   id="stop7593" />
</linearGradient>


<polygon
   class="st5"
   points="203.3,985.2 254.4,990.9 196.7,886.5 236.5,889.6 169.2,788.3 205,791.7 166.5,722.1 188.6,719.6   131.1,593.6 73.7,719.6 95.7,722.1 57.3,791.7 93.1,788.3 25.8,889.6 65.6,886.5 7.9,990.9 59,985.2 0,1084.3 131.1,1084.3   262.3,1084.3 "
   id="polygon7600" />



<polygon
   class="st5"
   points="1402.9,619.3 1388.5,587.6 1331,713.6 1353.1,716.1 1314.6,785.7 1350.5,782.3 1283.1,883.6   1322.9,880.5 1265.2,984.9 1316.4,979.2 1257.3,1078.3 1388.5,1078.3 1402.9,1078.3 "
   id="polygon7608" />



<polygon
   class="st44"
   points="484.3,183.3 495.7,181.1 484.3,178.9 482,167.4 479.8,178.9 468.3,181.1 479.8,183.3 482,194.8 "
   id="polygon7616" />
<polygon
   class="st44"
   points="408.8,257 415.6,255.6 408.8,254.3 407.5,247.5 406.1,254.3 399.3,255.6 406.1,257 407.5,263.8 "
   id="polygon7618" />
<polygon
   class="st44"
   points="124.3,84.6 131.1,83.3 124.3,81.9 123,75.1 121.7,81.9 114.8,83.3 121.7,84.6 123,91.4 "
   id="polygon7620" />
<polygon
   class="st44"
   points="709.5,212 716.3,210.7 709.5,209.3 708.1,202.5 706.8,209.3 700,210.7 706.8,212 708.1,218.8 "
   id="polygon7622" />
<polygon
   class="st44"
   points="564.5,264.5 568.2,263.8 564.5,263.1 563.8,259.3 563,263.1 559.3,263.8 563,264.5 563.8,268.3 "
   id="polygon7624" />
<polygon
   class="st44"
   points="408.2,353.7 411.9,352.9 408.2,352.2 407.5,348.5 406.7,352.2 403,352.9 406.7,353.7 407.5,357.4 "
   id="polygon7626" />
<polygon
   class="st44"
   points="297.5,100.3 301.2,99.6 297.5,98.8 296.8,95.1 296.1,98.8 292.3,99.6 296.1,100.3 296.8,104 "
   id="polygon7628" />
<polygon
   class="st44"
   points="400,34.9 403.8,34.1 400,33.4 399.3,29.7 398.6,33.4 394.9,34.1 398.6,34.9 399.3,38.6 "
   id="polygon7630" />
<polygon
   class="st44"
   points="580.2,380.6 584,379.9 580.2,379.2 579.5,375.4 578.8,379.2 575,379.9 578.8,380.6 579.5,384.3 "
   id="polygon7632" />
<polygon
   class="st44"
   points="1275.6,207.7 1279.3,206.9 1275.6,206.2 1274.8,202.5 1274.1,206.2 1270.4,206.9 1274.1,207.7   1274.8,211.4 "
   id="polygon7634" />
<polygon
   class="st44"
   points="1013.3,131.6 1017,130.9 1013.3,130.2 1012.5,126.4 1011.8,130.2 1008.1,130.9 1011.8,131.6   1012.5,135.4 "
   id="polygon7636" />
<polygon
   class="st44"
   points="700.7,89.4 704.5,88.7 700.7,88 700,84.2 699.3,88 695.5,88.7 699.3,89.4 700,93.1 "
   id="polygon7638" />
<polygon
   class="st44"
   points="1296.4,95.8 1300.2,95.1 1296.4,94.4 1295.7,90.6 1295,94.4 1291.2,95.1 1295,95.8 1295.7,99.6 "
   id="polygon7640" />
<polygon
   class="st44"
   points="1292,332.9 1295.7,332.2 1292,331.4 1291.2,327.7 1290.5,331.4 1286.8,332.2 1290.5,332.9   1291.2,336.6 "
   id="polygon7642" />
<polygon
   class="st44"
   points="1091.7,349.2 1095.4,348.5 1091.7,347.7 1091,344 1090.2,347.7 1086.5,348.5 1090.2,349.2 1091,352.9   "
   id="polygon7644" />
<polygon
   class="st44"
   points="791.9,256.4 795.6,255.6 791.9,254.9 791.1,251.2 790.4,254.9 786.7,255.6 790.4,256.4 791.1,260.1   "
   id="polygon7646" />
<polygon
   class="st44"
   points="168.5,207.7 172.3,206.9 168.5,206.2 167.8,202.5 167.1,206.2 163.3,206.9 167.1,207.7 167.8,211.4   "
   id="polygon7648" />
<polygon
   class="st44"
   points="35.1,65 38.8,64.3 35.1,63.6 34.3,59.8 33.6,63.6 29.9,64.3 33.6,65 34.3,68.8 "
   id="polygon7650" />
<polygon
   class="st44"
   points="1323.3,65.6 1330.1,64.3 1323.3,63 1322,56.1 1320.7,63 1313.8,64.3 1320.7,65.6 1322,72.4 "
   id="polygon7652" />
<polygon
   class="st44"
   points="1258.7,346.1 1265.5,344.8 1258.7,343.5 1257.3,336.6 1256,343.5 1249.2,344.8 1256,346.1   1257.3,352.9 "
   id="polygon7654" />
<polygon
   class="st44"
   points="898.1,92.7 904.9,91.4 898.1,90.1 896.8,83.3 895.4,90.1 888.6,91.4 895.4,92.7 896.8,99.6 "
   id="polygon7656" />
<polygon
   class="st44"
   points="970.1,248.8 976.9,247.5 970.1,246.2 968.8,239.4 967.4,246.2 960.6,247.5 967.4,248.8 968.8,255.6   "
   id="polygon7658" />
<polygon
   class="st44"
   points="1159.6,104.6 1171.1,102.4 1159.6,100.2 1157.4,88.7 1155.2,100.2 1143.7,102.4 1155.2,104.6   1157.4,116.1 "
   id="polygon7660" />


<polygon
   fill="#3f2c36"
   points="657.965,364.694 659.839,360.361 662.052,364.973 666.192,364.038 669.715,364.973 671.674,364.15 674.567,365.897 678.314,366.845 680.689,368.244 637.85,368.1 637.848,362.035 643.066,364.47 645.705,362.462 647.153,364.47 648.601,362.781 650.303,364.47 651.665,360.682 653.878,364.694 656.007,362.873 "
   id="polygon8622"
   transform="matrix(1.9589041,0,0,3.3326926,-2.0091335,-279.31723)" /><polygon
   opacity="0.8"
   fill="#33556d"
   points="560.258,405.42 570.027,394.866 382.351,420.339 157.281,396.619 169.667,406.85 379.176,427.267 "
   id="polygon8626"
   transform="matrix(1.9589041,0,0,3.3326926,-2.0091335,-279.31723)" /><polygon
   fill="#3f2c36"
   points="691.544,364.563 693.416,360.23 695.631,364.842 699.77,363.907 703.293,364.842 705.251,364.021 709.691,362.251 712.148,361.247 717.584,368.874 671.844,368.244 671.426,361.904 676.644,364.34 679.282,362.331 680.73,364.34 682.178,362.65 683.881,364.34 685.244,360.55 687.457,364.563 689.586,362.742 "
   id="polygon8630"
   transform="matrix(1.9589041,0,0,3.3326926,-2.0091335,-279.31723)" /><polygon
   fill="#151c30"
   points="360,423.082 597.107,402.17 720,361.585 720,503.999 0,503.999 0,352.346 84.648,396.541 "
   id="polygon8632"
   transform="matrix(1.9589041,0,0,3.3326926,-2.0091335,-279.31723)" /><path
   fill="#101721"
   d="m 297.38782,1065.3077 115.23841,20.5727 9.81411,35.6631 -42.14582,4.4292 4.69353,44.1415 c -10.23527,22.509 -87.60219,-9.2949 -87.60219,-9.2949 0,0 10.6917,27.758 15.98662,32.867 5.29491,5.109 -40.23785,27.0082 -40.23785,27.0082 l 40.2398,26.8815 -34.97231,51.7833 c 0,0 -14.11195,25.1919 27.68519,35.9931 66.70656,17.24 -77.3532,65.0042 -77.3532,65.0042 l -230.7432435,-2.7028 v -143.0825 z"
   id="path8634"
   style="stroke-width:2.55508" /><g
   id="g8682"
   transform="matrix(1.9589041,0,0,3.3326926,-2.0091335,-279.31723)">
	<path
   fill="#151c30"
   d="m 135.062,326.341 13.87,5.771 c 0,0 -2.22,2.401 -4.766,1.418 -7.604,-2.939 -9.104,-7.189 -9.104,-7.189 z"
   id="path8642" />
	<path
   fill="#151c30"
   d="m 130.605,295.966 14.328,6.896 c 0,0 -2.942,0.962 -5.488,-0.021 -7.605,-2.94 -8.84,-6.875 -8.84,-6.875 z"
   id="path8644" />
	<polygon
   fill="#212c44"
   points="91.371,212.273 92.92,186.017 112.872,234.193 102.206,222.861 103.872,241.193 "
   id="polygon8646" />
	<path
   fill="#111828"
   d="m 92.539,184.527 c 0,0 -4.806,24.887 -17.333,38.666 -6.667,7.334 10,-6.332 10,-6.332 l -11.574,16.666 9.453,-2.334 c 0,0 -0.463,1.287 -1.298,3.002 -1.246,2.559 -3.319,6.068 -5.915,7.666 -4.333,2.666 10.334,-8.334 10.334,-8.334 0,0 5.334,9 2,13.666 -3.334,4.668 5.636,-2.33 4.333,-16 -0.667,-7 4.001,8.668 6.667,12.334 0,0 0.334,-5 0,-6.666 -0.334,-1.668 4.666,6.666 4.666,6.666 0,0 -5.666,-16 -9.275,-26.945 -0.78,-2.365 -2.747,-10.745 3.275,-4.721 2.333,2.333 -5.333,-27.334 -5.333,-27.334 z"
   id="path8648" />
	<polygon
   fill="#111828"
   points="102.206,222.861 112.872,234.193 102.206,227.193 "
   id="polygon8650" />
	<polygon
   fill="#151c30"
   points="102.95,231.05 109.872,244.527 103.872,240.027 "
   id="polygon8652" />
	<path
   fill="#212c44"
   d="m 121.615,358.699 c 0,0 44.111,31.846 58.438,39.346 10.8,5.654 -15.331,0 -15.331,0 l 19.233,15.038 -17.701,-6.016 13.288,10.148 c 0,0 -30.61,13 -40.579,-3.146 -2.575,-4.17 3.034,12.396 3.034,12.396 l -18.498,-13.383 2.384,9.396 -11.755,-7.894 4.17,19.63 c 0,0 -2.426,2.242 -8.426,0.334 -6.939,-2.207 -7.903,-8.349 -7.666,-8.87 0.51,-1.127 -0.514,-33.546 -4.261,-46.568 -3.746,-13.019 3.048,-30.809 23.67,-20.411 z"
   id="path8654" />
	<path
   fill="#111828"
   d="m 101.657,427.267 12.932,-37.384 9.912,0.833 -3.283,-6.622 16.551,20.789 -8.332,-31.167 c 0,0 8.639,5.14 14.391,6.638 5.752,1.498 10.588,-1.831 10.588,-1.831 l -15.421,-5.836 -11.558,-10.221 -4.75,2.617 -3.067,7.979 1.375,4.625 -5.564,-4.375 -43.289,17.904 z"
   id="path8656" />
	<path
   fill="#212c44"
   d="m 121.167,326.342 c 0,0 20.83,27.687 33.581,35.263 7.397,4.396 -9.953,0 -9.953,0 l 12.486,13.271 -11.491,-5.309 8.625,8.956 c 0,0 -21.231,-1.989 -26.871,-10.614 -5.64,-8.626 0.332,20.234 0.332,20.234 l -9.841,-13.268 1.547,8.292 -7.63,-6.966 -11.833,32.032 c 0,0 -0.091,-6.57 -3.5,-12.422 -2.935,-5.038 -7.867,-18.263 -7.867,-18.263 0.332,-0.994 15.127,-21.161 12.695,-32.653 -2.432,-11.49 6.333,-27.73 19.72,-18.553 z"
   id="path8658" />
	<path
   fill="#111828"
   d="m 100.437,381.716 9.679,-37.682 10.784,11.538 -3.713,-11.856 11.417,15.834 -4.812,-26.333 c 0,0 7.082,5.419 12.833,6.917 5.751,1.498 13.802,0.261 13.802,0.261 l -18.636,-7.928 -10.625,-6.125 -0.75,11.25 -8,-4.75 1.375,4.625 -5.564,-4.375 -16.856,10.749 z"
   id="path8660" />
	<path
   fill="#111828"
   d="m 86.783,226.447 -5.995,5.313 c 0,0 -16.5,19.683 -26.25,24.683 -9.75,4.999 9.5,-1.25 9.5,-1.25 0,0 -3.762,9.25 -12.256,11 -8.494,1.749 16.256,4.499 20.506,0 4.25,-4.5 0.23,9.337 -25.5,22.249 -8.655,4.344 16.5,-1.25 22.5,-4.75 0,0 0.186,4.436 -16.25,11.25 -10.25,4.25 18,-1.25 18,-1.25 0,0 -5.5,4.75 -6,5 -0.5,0.25 8.25,-2.25 6.25,2.25 -2,4.5 15.416,1.25 20.083,8 4.667,6.75 7.917,5.25 7.917,5.25 l -6.25,-66.75 c 0,0.001 -3.958,-20.245 -6.255,-20.995"
   id="path8662" />
	<path
   fill="#212c44"
   d="m 112.824,288.755 c 0,0 13.232,25.579 37.936,34.722 8.07,2.986 -9.953,0 -9.953,0 l 8.125,8.635 c -1.245,2.979 -14.245,-5.77 -14.245,-5.77 l 15.741,14.053 c 0,0 -21.231,-1.989 -26.871,-10.614 -5.64,-8.626 0.332,20.234 0.332,20.234 l -9.841,-13.268 1.547,8.292 -7.63,-6.966 -7.528,31.893 c 0,0 -15.638,-16.537 -16.5,-15.938 -6.513,4.528 15.955,-35.769 13.522,-47.261 -2.432,-11.49 1.979,-27.189 15.365,-18.012 z"
   id="path8664" />
	<path
   fill="#111828"
   d="m 94.832,343.883 12.673,-34.792 9.432,13.125 -1.932,-11.125 9.496,12.552 -4.371,-22.552 c 0,0 7.082,5.419 12.833,6.917 5.751,1.498 10.184,-1.366 10.184,-1.366 l -15.018,-6.301 -10.625,-6.125 -0.75,11.25 -8,-4.75 1.375,4.625 -5.564,-4.375 -9.733,13.368 z"
   id="path8666" />
	<path
   fill="#111828"
   d="m 83.247,289.331 -3.676,0.112 c 0,0 -28.338,16.304 -44.264,19.357 -15.926,3.053 15.069,0.619 15.069,0.619 0,0 -7.049,8.442 -20.601,8.517 -13.552,0.073 24.964,7.646 32.192,4.013 7.229,-3.634 -0.793,9.311 -42.785,17.089 -14.126,2.616 26.058,1.988 35.911,-0.312 0,0 -0.257,4.438 -26.903,7.984 -16.617,2.212 28.414,2.282 28.414,2.282 0,0 -9.222,3.637 -10.039,3.787 -0.815,0.15 13.23,-0.618 9.534,3.456 -3.696,4.073 24.047,4.257 30.539,11.868 l 0.139,-15.222 13.659,-43.417 c 10e-4,0.002 -13.677,-18.94 -17.189,-20.133"
   id="path8668" />
	<path
   fill="#212c44"
   d="m 109.928,261.349 c 0,0 17.259,22.117 32.813,30.034 8.8,4.479 -8.609,0 -8.609,0 l 10.8,11.479 -9.939,-4.592 8.154,8.372 c 0,0 -19.058,-2.346 -23.937,-9.807 -4.878,-7.461 0.287,17.503 0.287,17.503 l -8.512,-11.477 1.338,7.173 -6.6,-6.025 c 0,0 -4.885,16.626 -6.731,13.523 -3.28,-5.511 -7.799,-13.26 -7.616,-13.811 0.287,-0.86 3.914,-16.565 1.81,-26.506 -2.103,-9.937 5.163,-23.805 16.742,-15.866 z"
   id="path8670" />
	<path
   fill="#111828"
   d="m 91.371,389.549 6.176,-30.061 c 0,0 -17.848,-17.272 -22.299,-18.583 l -0.301,2.415 0.301,-2.415 c 0,0 -35.083,15.462 -54.994,18.02 -19.91,2.557 18.952,1.103 18.952,1.103 0,0 -8.587,8.251 -25.611,7.893 -17.024,-0.359 31.609,8.474 40.575,5.058 8.664,-3.303 -0.075,8.483 -48.059,15.116 v 2.498 c 11.975,0.443 32.666,0.191 39.958,-0.99 0,0 -0.182,4.448 -33.545,7.156 -20.807,1.69 35.771,3.199 35.771,3.199 0,0 -13.463,3.146 -12.491,3.482 22.516,7.776 -8.355,10.858 -12.868,14.831 -4.514,3.972 53.268,-3.903 61.667,3.945 8.4,7.85 17.054,5.051 17.054,5.051 z"
   id="path8672" />
	<path
   fill="#111828"
   d="m 98.573,269.526 0.412,-2.907 v 20.251 c 0,0 2.144,-14.614 4.887,-11.32 2.034,2.442 5.94,1.695 5.94,1.695 l -2.273,-5.265 c 0,0 -1.701,-5.59 0,0 1.701,5.59 10.759,8.902 10.759,8.902 0,0 -9.096,-19.026 -5.729,-15.014 3.367,4.014 18.036,1.497 18.036,1.497 l -12.664,-3.759 -7.826,-6.517 -6.546,6.778 1.166,6.251 -5.75,-3.501"
   id="path8674" />
	<path
   fill="#212c44"
   d="m 102.95,228.527 c 0,0 21.588,21.166 28.588,26.167 7,4.999 -7.5,0 -7.5,0 l 9.409,10 -8.659,-4.001 6.5,6.75 c 0,0 -16,-1.499 -20.25,-8 -4.25,-6.5 0.25,15.25 0.25,15.25 l -7.416,-9.999 1.166,6.249 -5.75,-5.249 -2.99,16.569 c 0,0 -9.76,-16.069 -9.51,-16.819 0.25,-0.75 6.416,-14.682 4.583,-23.341 -1.833,-8.659 1.491,-20.492 11.579,-13.576 z"
   id="path8676" />
	<polygon
   fill="#111828"
   points="102.95,248.637 102.95,239.06 97.103,224.883 95.27,226.447 "
   id="polygon8678" />
	<polygon
   fill="#111828"
   points="95.27,278.21 91.371,274.883 92.104,269.55 99.981,276.383 98.985,286.87 "
   id="polygon8680" />
</g><g
   id="g8724"
   transform="matrix(1.9589041,0,0,3.3326926,-2.0091335,-279.31723)">
	<path
   fill="#101726"
   d="m 66.285,336.659 20.41,8.492 c 0,0 -3.266,3.533 -7.013,2.086 -11.19,-4.324 -13.397,-10.578 -13.397,-10.578 z"
   id="path8684" />
	<path
   fill="#101726"
   d="m 59.727,291.961 21.084,10.147 c 0,0 -4.33,1.415 -8.077,-0.031 -11.19,-4.324 -13.007,-10.116 -13.007,-10.116 z"
   id="path8686" />
	<polygon
   fill="#222642"
   points="1.993,168.805 4.272,130.167 33.632,201.061 17.937,184.385 20.389,211.361 "
   id="polygon8688" />
	<path
   fill="#101726"
   d="m 20.389,214.796 c 0,0 -8.338,-23.544 -13.649,-39.651 -1.148,-3.48 -4.042,-15.813 4.82,-6.947 3.433,3.432 -7.848,-40.224 -7.848,-40.224 0,0 -1.149,5.924 -3.712,14.315 v 75.152 c 2.28,-4.384 4.593,-11.548 3.712,-20.795 -0.981,-10.301 5.887,12.755 9.811,18.15 0,0 0.491,-7.357 0,-9.809 -0.492,-2.455 6.866,9.809 6.866,9.809 z"
   id="path8690" />
	<polygon
   fill="#101726"
   points="17.937,184.385 33.632,201.061 17.937,190.76 "
   id="polygon8692" />
	<polygon
   fill="#151c30"
   points="19.032,196.437 29.218,216.268 20.389,209.646 "
   id="polygon8694" />
	<path
   fill="#222642"
   d="m 46.499,384.276 c 0,0 64.912,46.861 85.993,57.898 15.893,8.32 -22.56,0 -22.56,0 l 28.303,22.129 -26.048,-8.853 19.553,14.935 c 0,0 -45.044,19.13 -59.713,-4.629 -3.789,-6.137 4.464,18.24 4.464,18.24 l -27.22,-19.693 3.508,13.827 -17.299,-11.614 6.136,28.886 c 0,0 -3.57,3.3 -12.399,0.492 -10.211,-3.248 -11.629,-12.286 -11.281,-13.053 0.75,-1.659 -0.756,-49.364 -6.271,-68.527 -5.511,-19.161 4.486,-45.339 34.834,-30.038 z"
   id="path8696" />
	<path
   fill="#101726"
   d="m 72.072,404.858 -17.008,-15.04 -6.99,3.852 -4.514,11.741 2.023,6.806 -8.188,-6.438 L 0,421.246 v 43.008 l 17.129,20.922 19.029,-55.012 14.585,1.226 -2.184,-7.953 21.708,28.801 -12.261,-45.864 c 0,0 12.713,7.563 21.177,9.769 8.464,2.204 20.311,0.383 20.311,0.383 z"
   id="path8698" />
	<path
   fill="#222642"
   d="M 98.981,408.079 80.608,388.551 c 0,0 25.531,6.469 14.646,0 C 76.49,377.403 45.839,336.661 45.839,336.661 26.14,323.157 13.241,347.055 16.82,363.963 19.793,378.011 5.282,400.854 0,409.028 v 7.844 c 2.442,6.263 6.765,16.95 9.716,22.016 5.016,8.611 5.15,18.279 5.15,18.279 l 17.413,-47.137 11.229,10.251 -2.277,-12.202 14.481,19.523 c 0,0 -8.787,-42.469 -0.488,-29.775 8.299,12.692 39.542,15.619 39.542,15.619 L 82.074,400.267 Z"
   id="path8700" />
	<path
   fill="#101726"
   d="m 15.333,418.146 14.243,-55.449 15.87,16.979 -5.464,-17.447 16.8,23.3 -7.08,-38.75 c 0,0 10.421,7.975 18.885,10.179 8.464,2.205 20.311,0.384 20.311,0.384 l -27.423,-11.666 -15.635,-9.013 -1.104,16.555 -11.772,-6.99 2.023,6.806 -8.188,-6.438 -24.806,15.815 z"
   id="path8702" />
	<path
   fill="#101726"
   d="m 4.446,220.559 c 0,0 -2.063,-10.552 -4.446,-19.33 v 107.72 c 0.765,0.62 1.444,1.312 1.993,2.107 6.868,9.933 11.65,7.726 11.65,7.726 z"
   id="path8704" />
	<path
   fill="#222642"
   d="M 89.386,332.444 C 53.033,318.991 33.562,281.35 33.562,281.35 13.863,267.846 7.373,290.948 10.952,307.856 12.63,315.783 6.258,333.02 0,348.414 v 36.719 c 6.931,6.838 15.333,15.723 15.333,15.723 l 11.078,-46.932 11.229,10.251 -2.277,-12.202 14.481,19.523 c 0,0 -8.787,-42.469 -0.488,-29.775 8.299,12.692 39.542,15.619 39.542,15.619 L 65.734,336.661 c 0,0 19.13,12.874 20.962,8.49 L 74.74,332.444 c 0,0 26.521,4.395 14.646,0 z"
   id="path8706" />
	<path
   fill="#101726"
   d="m 7.086,362.473 18.648,-51.197 13.879,19.313 -2.842,-16.37 13.973,18.47 -6.432,-33.186 c 0,0 10.421,7.975 18.885,10.179 8.464,2.204 14.986,-2.011 14.986,-2.011 l -22.099,-9.271 -15.635,-9.014 -1.104,16.556 -11.772,-6.99 2.023,6.806 -8.188,-6.438 -14.322,19.671 z"
   id="path8708" />
	<path
   fill="#101726"
   d="m 0,291.973 v 68.592 L 15.333,311.828 C 15.333,311.827 7.24,300.622 0,291.973 Z"
   id="path8710" />
	<path
   fill="#222642"
   d="m 29.3,241.022 c 0,0 25.397,32.545 48.286,44.195 12.949,6.59 -12.668,0 -12.668,0 l 15.893,16.891 -14.626,-6.757 12,12.319 c 0,0 -28.045,-3.451 -35.224,-14.431 -7.178,-10.979 0.422,25.757 0.422,25.757 l -12.526,-16.889 1.969,10.555 -9.712,-8.866 c 0,0 -7.189,24.466 -9.906,19.9 C 8.382,315.587 1.731,304.183 2,303.373 2.422,302.107 7.76,278.997 4.664,264.369 1.568,249.747 12.261,229.339 29.3,241.022 Z"
   id="path8712" />
	<path
   fill="#101726"
   d="M 17.129,485.176 1.993,429.673 11.081,385.438 c 0,0 -4.947,-4.787 -11.081,-10.361 V 483.25 c 9.322,4.449 17.129,1.926 17.129,1.926 z"
   id="path8714" />
	<path
   fill="#101726"
   d="m 12.591,253.055 0.606,-4.278 v 29.801 c 0,0 3.155,-21.506 7.191,-16.659 2.993,3.595 8.742,2.495 8.742,2.495 l -3.346,-7.747 c 0,0 -2.502,-8.226 0,0 2.503,8.226 15.832,13.101 15.832,13.101 0,0 -13.385,-27.999 -8.43,-22.094 4.955,5.906 26.54,2.203 26.54,2.203 l -18.635,-5.531 -11.517,-9.589 -9.632,9.975 1.716,9.198 -8.461,-5.151"
   id="path8716" />
	<path
   fill="#222642"
   d="M 63.91,245.943 50.064,231.228 c 0,0 21.337,7.357 11.037,0 C 50.8,223.87 19.033,192.724 19.033,192.724 4.188,182.547 -0.703,199.958 1.994,212.699 3.289,218.82 1.867,226.729 0,233.42 v 22.787 c 4.06,7.055 9.243,15.59 9.243,15.59 l 4.4,-24.383 8.461,7.725 -1.716,-9.196 10.913,14.713 c 0,0 -6.622,-32.004 -0.368,-22.439 6.254,9.565 29.799,11.771 29.799,11.771 l -9.565,-9.931 z"
   id="path8718" />
	<polygon
   fill="#101726"
   points="19.032,222.315 19.032,208.223 10.428,187.36 7.73,189.662 "
   id="polygon8720" />
	<polygon
   fill="#101726"
   points="7.73,265.833 1.993,260.937 3.071,253.09 14.664,263.145 13.198,278.577 "
   id="polygon8722" />
</g><g
   id="g8766"
   transform="matrix(1.9589041,0,0,3.3326926,-2.0091335,-279.31723)">
	<path
   fill="#151c30"
   d="m 587.334,330.75 -14.475,6.636 c 0,0 1.764,1.984 4.309,1.001 7.605,-2.939 10.166,-7.637 10.166,-7.637 z"
   id="path8726" />
	<path
   fill="#151c30"
   d="m 590.729,300.823 -14.327,6.896 c 0,0 2.941,0.962 5.488,-0.021 7.604,-2.939 8.839,-6.875 8.839,-6.875 z"
   id="path8728" />
	<polygon
   fill="#273250"
   points="629.963,217.13 628.414,190.875 608.463,239.05 619.129,227.718 617.463,246.05 "
   id="polygon8730" />
	<path
   fill="#151c30"
   d="m 628.795,189.384 c 0,0 4.807,24.887 17.334,38.666 6.666,7.334 -10,-6.332 -10,-6.332 l 11.574,16.666 -9.453,-2.334 c 0,0 0.463,1.287 1.297,3.002 1.246,2.559 3.32,6.068 5.916,7.666 4.332,2.666 -10.334,-8.334 -10.334,-8.334 0,0 -5.334,9 -2,13.666 3.334,4.668 -5.637,-2.33 -4.334,-16 0.668,-7 -4,8.668 -6.666,12.334 0,0 -0.334,-5 0,-6.666 0.334,-1.668 -4.666,6.666 -4.666,6.666 0,0 5.666,-16 9.275,-26.945 0.779,-2.365 2.746,-10.745 -3.275,-4.721 -2.334,2.333 5.332,-27.334 5.332,-27.334 z"
   id="path8732" />
	<polygon
   fill="#151c30"
   points="619.129,227.718 608.463,239.05 619.129,232.05 "
   id="polygon8734" />
	<polygon
   fill="#151c30"
   points="618.385,235.908 611.463,249.384 617.463,244.884 "
   id="polygon8736" />
	<path
   fill="#273250"
   d="m 599.719,363.557 c 0,0 -44.111,31.846 -58.438,39.346 -10.799,5.654 15.332,0 15.332,0 l -19.234,15.038 17.701,-6.016 -13.287,10.148 c 0,0 30.609,13 40.578,-3.146 2.575,-4.17 -3.033,12.396 -3.033,12.396 l 18.498,-13.383 -2.385,9.396 11.756,-7.894 -4.17,19.63 c 0,0 1.629,4.336 7.629,2.428 6.939,-2.207 8.699,-10.442 8.463,-10.964 -0.51,-1.127 0.514,-33.546 4.261,-46.568 3.746,-13.02 -3.048,-30.81 -23.671,-20.411 z"
   id="path8738" />
	<path
   fill="#151c30"
   d="m 619.678,432.124 -12.932,-37.384 -9.912,0.833 3.283,-6.622 -16.551,20.789 8.332,-31.167 c 0,0 -8.64,5.14 -14.392,6.638 -5.752,1.498 -13.802,0.261 -13.802,0.261 l 18.635,-7.928 11.559,-10.221 4.75,2.617 3.066,7.979 -1.375,4.625 5.564,-4.375 43.289,17.904 z"
   id="path8740" />
	<path
   fill="#273250"
   d="m 600.168,331.199 c 0,0 -20.83,27.687 -33.581,35.263 -7.397,4.396 9.952,0 9.952,0 l -12.485,13.271 11.491,-5.309 -8.626,8.956 c 0,0 21.231,-1.989 26.871,-10.614 5.64,-8.626 -0.331,20.234 -0.331,20.234 l 9.84,-13.268 -1.547,8.292 7.631,-6.966 11.832,32.032 c 0,0 0.092,-6.57 3.5,-12.422 2.936,-5.038 7.867,-18.263 7.867,-18.263 -0.331,-0.994 -15.127,-21.161 -12.694,-32.653 2.432,-11.489 -6.333,-27.73 -19.72,-18.553 z"
   id="path8742" />
	<path
   fill="#151c30"
   d="m 620.898,386.573 -9.68,-37.682 -10.783,11.538 3.713,-11.856 -11.418,15.834 4.812,-26.333 c 0,0 -7.082,5.419 -12.834,6.917 -5.752,1.498 -13.379,0.636 -13.379,0.636 l 18.213,-8.303 10.625,-6.125 0.75,11.25 8,-4.75 -1.375,4.625 5.564,-4.375 16.855,10.749 z"
   id="path8744" />
	<path
   fill="#151c30"
   d="m 634.551,231.304 5.996,5.313 c 0,0 16.5,19.683 26.25,24.683 9.75,4.999 -9.5,-1.25 -9.5,-1.25 0,0 3.762,9.25 12.256,11 8.494,1.749 -16.256,4.499 -20.506,0 -4.25,-4.5 -0.23,9.337 25.5,22.249 8.654,4.344 -16.5,-1.25 -22.5,-4.75 0,0 -0.186,4.436 16.25,11.25 10.25,4.25 -18,-1.25 -18,-1.25 0,0 5.5,4.75 6,5 0.5,0.25 -8.25,-2.25 -6.25,2.25 2,4.5 -15.416,1.25 -20.084,8 -4.666,6.75 -7.916,5.25 -7.916,5.25 l 6.25,-66.75 c 0,0.001 3.957,-20.245 6.254,-20.995"
   id="path8746" />
	<path
   fill="#273250"
   d="m 608.51,294.032 c 0,0 -13.231,25.579 -37.936,34.722 -8.069,2.986 9.953,0 9.953,0 l -8.125,8.635 c 1.246,2.979 14.246,-5.77 14.246,-5.77 l -15.742,14.053 c 0,0 21.232,-1.989 26.871,-10.614 5.641,-8.626 -0.331,20.234 -0.331,20.234 l 9.841,-13.268 -1.547,8.292 7.63,-6.966 7.528,31.893 c 0,0 15.638,-16.537 16.5,-15.938 6.513,4.528 -15.955,-35.769 -13.523,-47.261 2.433,-11.489 -1.979,-27.189 -15.365,-18.012 z"
   id="path8748" />
	<path
   fill="#151c30"
   d="m 626.502,348.74 -12.672,-34.792 -9.432,13.125 1.932,-11.125 -9.496,12.552 4.371,-22.552 c 0,0 -7.082,5.419 -12.834,6.917 -5.752,1.498 -10.184,-1.366 -10.184,-1.366 l 15.018,-6.301 11.92,-6.125 -0.545,11.25 8,-4.75 -1.375,4.625 5.564,-4.375 9.732,13.368 v 29.549 z"
   id="path8750" />
	<path
   fill="#151c30"
   d="m 642.064,296.716 -0.301,-2.415 c 0,0 28.338,16.304 44.264,19.357 15.926,3.053 -15.068,0.619 -15.068,0.619 0,0 7.049,8.442 20.601,8.517 13.552,0.073 -24.964,7.646 -32.192,4.013 -7.229,-3.634 0.793,9.311 42.785,17.089 14.125,2.616 -26.059,1.988 -35.911,-0.312 0,0 0.257,4.438 26.903,7.984 16.617,2.212 -28.414,2.282 -28.414,2.282 0,0 9.223,3.637 10.039,3.787 0.814,0.15 -13.23,-0.618 -9.534,3.456 3.696,4.073 -24.048,4.257 -30.539,11.868 l -0.14,-15.222 -13.658,-43.417 c 0,0 13.677,-18.941 17.189,-20.135"
   id="path8752" />
	<path
   fill="#273250"
   d="m 611.406,266.206 c 0,0 -17.258,22.117 -32.812,30.034 -8.801,4.479 8.608,0 8.608,0 l -10.8,11.479 9.939,-4.592 -8.154,8.372 c 0,0 19.058,-2.346 23.936,-9.807 4.879,-7.461 -0.287,17.503 -0.287,17.503 l 8.513,-11.477 -1.339,7.173 6.601,-6.025 c 0,0 4.886,16.626 6.731,13.523 3.279,-5.511 7.799,-13.26 7.616,-13.811 -0.287,-0.86 -3.914,-16.565 -1.81,-26.506 2.104,-9.936 -5.162,-23.804 -16.742,-15.866 z"
   id="path8754" />
	<path
   fill="#151c30"
   d="m 629.963,394.406 -6.176,-30.061 c 0,0 17.848,-17.272 22.299,-18.583 l 0.302,2.415 -0.302,-2.415 c 0,0 35.084,15.462 54.994,18.02 19.91,2.557 -18.952,1.103 -18.952,1.103 0,0 8.587,8.251 25.61,7.893 17.024,-0.359 -31.609,8.474 -40.574,5.058 -8.664,-3.303 0.074,8.483 48.059,15.116 v 2.498 c -11.975,0.443 -32.666,0.191 -39.958,-0.99 0,0 0.182,4.448 33.545,7.156 20.808,1.69 -35.771,3.199 -35.771,3.199 0,0 13.463,3.146 12.49,3.482 -22.516,7.776 8.355,10.858 12.869,14.831 4.514,3.972 -53.268,-3.903 -61.668,3.945 -8.399,7.85 -17.053,5.051 -17.053,5.051 z"
   id="path8756" />
	<path
   fill="#151c30"
   d="m 622.762,274.384 -0.412,-2.907 v 20.251 c 0,0 -2.145,-14.614 -4.887,-11.32 -2.034,2.442 -5.941,1.695 -5.941,1.695 l 2.273,-5.265 c 0,0 1.701,-5.59 0,0 -1.7,5.59 -10.758,8.902 -10.758,8.902 0,0 9.096,-19.026 5.729,-15.014 -3.367,4.014 -18.036,1.497 -18.036,1.497 l 12.663,-3.759 7.826,-6.517 6.547,6.778 -1.166,6.251 5.75,-3.501"
   id="path8758" />
	<path
   fill="#273250"
   d="m 618.385,233.384 c 0,0 -21.588,21.167 -28.588,26.167 -7,4.999 7.5,0 7.5,0 l -9.41,10 8.66,-4.001 -6.5,6.75 c 0,0 16,-1.499 20.25,-8 4.25,-6.499 -0.25,15.25 -0.25,15.25 l 7.416,-9.999 -1.166,6.249 5.75,-5.249 2.99,16.569 c 0,0 9.76,-16.069 9.51,-16.819 -0.25,-0.75 -6.416,-14.682 -4.584,-23.341 1.834,-8.66 -1.49,-20.492 -11.578,-13.576 z"
   id="path8760" />
	<polygon
   fill="#151c30"
   points="618.385,253.494 618.385,243.917 624.231,229.74 626.064,231.304 "
   id="polygon8762" />
	<polygon
   fill="#151c30"
   points="626.064,283.067 629.963,279.74 629.23,274.407 621.354,281.24 622.35,291.728 "
   id="polygon8764" />
</g><g
   id="g8810"
   transform="matrix(1.9193219,0,0,3.3326926,21.61835,-279.31723)">
	<path
   fill="#151c30"
   d="m 652.925,359.669 -15.887,6.609 c 0,0 2.543,2.751 5.459,1.624 8.71,-3.365 10.428,-8.233 10.428,-8.233 z"
   id="path8768" />
	<path
   fill="#151c30"
   d="m 658.029,324.877 -16.41,7.898 c 0,0 3.37,1.102 6.286,-0.024 8.71,-3.366 10.124,-7.874 10.124,-7.874 z"
   id="path8770" />
	<polygon
   fill="#273250"
   points="701.194,198.94 678.341,254.122 690.559,241.142 688.65,262.14 702.969,229.015 "
   id="polygon8772" />
	<path
   fill="#151c30"
   d="m 720,262.385 c -0.88,-0.665 -1.705,-1.493 -2.456,-2.425 0.925,0.72 1.771,1.388 2.456,1.941 z"
   id="path8774" />
	<path
   fill="#151c30"
   d="m 688.65,264.813 c 0,0 6.489,-18.327 10.624,-30.864 0.894,-2.709 3.146,-12.309 -3.752,-5.407 -2.672,2.671 6.108,-31.309 6.108,-31.309 0,0 5.126,26.524 18.37,42.567 v 2.263 c -3.926,-2.837 -9.97,-7.793 -9.97,-7.793 l 9.97,14.354 v 3.923 l -7.54,-1.861 c 0,0 0.53,1.475 1.486,3.438 0.871,1.79 2.1,3.981 3.598,5.836 -3.729,-2.904 -8.659,-6.601 -8.659,-6.601 0,0 -6.109,10.309 -2.291,15.653 3.819,5.347 -6.455,-2.669 -4.963,-18.327 0.764,-8.018 -4.583,9.929 -7.637,14.128 0,0 -0.382,-5.728 0,-7.636 0.383,-1.909 -5.344,7.636 -5.344,7.636 z"
   id="path8776" />
	<polygon
   fill="#151c30"
   points="678.341,254.122 690.559,246.104 690.559,241.142 "
   id="polygon8778" />
	<polygon
   fill="#151c30"
   points="681.777,265.959 688.65,260.805 689.706,250.522 "
   id="polygon8780" />
	<path
   fill="#273250"
   d="m 668.326,396.732 c 0,0 -50.525,36.477 -66.935,45.067 -12.37,6.477 17.561,0 17.561,0 l -22.03,17.225 20.275,-6.891 -15.22,11.624 c 0,0 35.061,14.891 46.479,-3.603 2.948,-4.776 -3.475,14.198 -3.475,14.198 l 21.187,-15.329 -2.73,10.763 13.464,-9.041 -4.775,22.484 c 0,0 2.778,2.568 9.65,0.382 7.949,-2.527 9.053,-9.562 8.781,-10.159 -0.584,-1.291 0.588,-38.424 4.88,-53.341 4.291,-14.912 -3.49,-35.289 -27.112,-23.379 z"
   id="path8782" />
	<path
   fill="#151c30"
   d="m 648.421,412.754 13.238,-11.707 5.44,2.998 3.514,9.139 -1.575,5.297 6.374,-5.011 44.588,18.441 v 8.168 l -28.813,35.191 -14.812,-42.82 -11.353,0.954 3.76,-7.585 -18.958,23.812 9.544,-35.699 c 0,0 -9.896,5.887 -16.484,7.604 -6.589,1.716 -15.809,0.298 -15.809,0.298 z"
   id="path8784" />
	<path
   fill="#273250"
   d="m 668.84,359.67 c 0,0 -23.857,31.713 -38.464,40.391 -8.472,5.034 11.4,0 11.4,0 l -14.302,15.2 13.162,-6.081 -9.881,10.259 c 0,0 24.32,-2.278 30.779,-12.158 6.461,-9.88 -0.38,23.177 -0.38,23.177 l 11.272,-15.196 -1.772,9.497 8.739,-7.979 13.554,36.69 c 0,0 0.105,-7.525 4.009,-14.229 3.363,-5.771 9.012,-20.918 9.012,-20.918 -0.381,-1.139 -17.326,-24.238 -14.541,-37.401 2.787,-13.161 -7.253,-31.763 -22.587,-21.252 z"
   id="path8786" />
	<path
   fill="#151c30"
   d="m 692.585,423.096 -11.086,-43.161 -12.353,13.217 4.253,-13.581 -13.077,18.137 5.511,-30.162 c 0,0 -8.11,6.207 -14.698,7.923 -6.589,1.716 -15.811,0.299 -15.811,0.299 l 21.346,-9.081 12.17,-7.016 0.859,12.886 9.163,-5.44 -1.575,5.298 6.374,-5.012 19.308,12.312 z"
   id="path8788" />
	<path
   fill="#151c30"
   d="m 701.06,269.299 c 0,0 4.533,-23.19 7.164,-24.049 l 6.867,6.085 c 0,0 1.927,2.298 4.909,5.608 v 76.912 c -5.749,0.757 -13.897,1.353 -17.031,5.885 -5.346,7.731 -9.068,6.014 -9.068,6.014 z"
   id="path8790" />
	<path
   fill="#273250"
   d="m 678.396,316.617 c 0,0 -15.157,29.299 -43.452,39.771 -9.244,3.421 11.4,0 11.4,0 l -9.307,9.891 c 1.427,3.413 16.316,-6.608 16.316,-6.608 l -18.03,16.097 c 0,0 24.319,-2.279 30.779,-12.158 6.459,-9.88 -0.381,23.177 -0.381,23.177 l 11.273,-15.197 -1.773,9.498 8.739,-7.979 8.623,36.53 c 0,0 17.912,-18.942 18.899,-18.255 7.46,5.187 -18.275,-40.97 -15.488,-54.134 2.787,-13.162 -2.265,-31.144 -17.598,-20.633 z"
   id="path8792" />
	<path
   fill="#151c30"
   d="m 699.005,379.762 -14.516,-39.852 -10.804,15.034 2.213,-12.743 -10.876,14.377 5.006,-25.831 c 0,0 -8.111,6.207 -14.699,7.923 -6.589,1.716 -11.666,-1.564 -11.666,-1.564 l 17.202,-7.218 12.17,-7.016 0.858,12.887 9.163,-5.441 -1.574,5.298 6.373,-5.011 11.149,15.312 v 33.845 z"
   id="path8794" />
	<path
   fill="#151c30"
   d="m 712.274,317.277 4.556,2.895 -0.345,-2.766 c 0,0 1.305,0.749 3.515,1.965 v 82.247 c -4.971,1.434 -9.384,3.277 -11.61,5.888 l -0.159,-17.436 -15.646,-49.73 c 0,0 15.666,-21.695 19.689,-23.063 z"
   id="path8796" />
	<path
   fill="#273250"
   d="m 681.714,285.228 c 0,0 -19.769,25.332 -37.585,34.4 -10.08,5.129 9.86,0 9.86,0 l -12.37,13.147 11.385,-5.26 -9.341,9.59 c 0,0 21.829,-2.688 27.418,-11.233 5.587,-8.546 -0.329,20.049 -0.329,20.049 l 9.749,-13.146 -1.532,8.216 7.56,-6.901 c 0,0 5.596,19.043 7.711,15.489 3.757,-6.312 8.933,-15.188 8.723,-15.818 -0.329,-0.985 -4.483,-18.975 -2.072,-30.36 2.409,-11.383 -5.914,-27.268 -19.177,-18.173 z"
   id="path8798" />
	<path
   fill="#151c30"
   d="m 702.969,432.068 -7.074,-34.432 c 0,0 17.419,-16.854 24.105,-20.623 v 89.279 c -4.324,0.642 -7.632,1.652 -9.279,3.192 -9.622,8.991 -19.534,5.785 -19.534,5.785 z"
   id="path8800" />
	<path
   fill="#151c30"
   d="m 694.719,294.593 -0.472,-3.33 v 23.196 c 0,0 -2.455,-16.739 -5.597,-12.967 -2.33,2.798 -6.805,1.941 -6.805,1.941 l 2.604,-6.03 c 0,0 1.949,-6.402 0,0 -1.948,6.403 -12.322,10.197 -12.322,10.197 0,0 10.418,-21.793 6.561,-17.196 -3.856,4.597 -20.658,1.714 -20.658,1.714 l 14.506,-4.305 8.964,-7.465 7.498,7.765 -1.336,7.159 6.586,-4.01"
   id="path8802" />
	<path
   fill="#273250"
   d="m 689.706,247.632 c 0,0 -24.728,24.244 -32.745,29.971 -8.018,5.728 8.591,0 8.591,0 l -10.777,11.454 9.918,-4.581 -7.445,7.73 c 0,0 18.327,-1.717 23.194,-9.162 4.868,-7.445 -0.286,17.466 -0.286,17.466 l 8.495,-11.453 -1.336,7.158 6.586,-6.013 3.425,18.979 c 0,0 11.18,-18.406 10.893,-19.266 -0.286,-0.859 -7.349,-16.816 -5.249,-26.736 2.098,-9.916 -1.709,-23.469 -13.264,-15.547 z"
   id="path8804" />
	<polygon
   fill="#151c30"
   points="689.706,259.697 696.402,243.458 698.504,245.25 689.706,270.666 "
   id="polygon8806" />
	<polygon
   fill="#151c30"
   points="702.969,300.729 702.13,294.62 693.106,302.446 694.247,314.459 698.504,304.539 "
   id="polygon8808" />
</g><g
   opacity="0.4"
   id="g8964"
   transform="matrix(1.9589041,0,0,3.3326926,-2.0091335,-279.31723)">
	<g
   id="g8918">
		<path
   fill="#e4ddcc"
   d="m 190.209,152.445 c 0,0.222 0,0.444 0,0.666 0,1.451 2.25,1.451 2.25,0 0,-0.222 0,-0.444 0,-0.666 0,-1.451 -2.25,-1.451 -2.25,0 z"
   id="path8916" />
	</g>
	<g
   id="g8922">
		<path
   fill="#e4ddcc"
   d="m 384.667,156.903 c 1.451,0 1.451,-2.25 0,-2.25 -1.451,0 -1.451,2.25 0,2.25 z"
   id="path8920" />
	</g>
	<g
   id="g8926">
		<path
   fill="#e4ddcc"
   d="m 215.334,158.903 c 1.451,0 1.451,-2.25 0,-2.25 -1.451,0 -1.451,2.25 0,2.25 z"
   id="path8924" />
	</g>
	<g
   id="g8930">
		<path
   fill="#e4ddcc"
   d="m 371.205,172.574 c 0.583,0.569 1.312,0.944 2.129,0.996 0.612,0.039 1.125,-0.541 1.125,-1.125 0,-0.643 -0.513,-1.086 -1.125,-1.125 0.134,0.009 -0.173,-0.064 -0.074,-0.02 -0.114,-0.053 -0.22,-0.124 -0.323,-0.193 0.155,0.104 -0.099,-0.084 -0.14,-0.125 -1.038,-1.015 -2.63,0.575 -1.592,1.592 z"
   id="path8928" />
	</g>
	<g
   id="g8934">
		<path
   fill="#e4ddcc"
   d="m 270.001,128.236 c 0.222,0 0.444,0 0.666,0 1.451,0 1.451,-2.25 0,-2.25 -0.222,0 -0.444,0 -0.666,0 -1.451,0 -1.451,2.25 0,2.25 z"
   id="path8932" />
	</g>
	<g
   id="g8938">
		<path
   fill="#e4ddcc"
   d="m 220.667,130.903 c 0.223,0 0.444,0 0.667,0 1.451,0 1.451,-2.25 0,-2.25 -0.223,0 -0.444,0 -0.667,0 -1.451,0 -1.451,2.25 0,2.25 z"
   id="path8936" />
	</g>
	<g
   id="g8942">
		<path
   fill="#e4ddcc"
   d="m 306.876,165.111 c 0.024,1.033 0.786,1.724 1.791,1.792 0.612,0.042 1.125,-0.543 1.125,-1.125 0,-0.645 -0.514,-1.083 -1.125,-1.125 0.246,0.017 0.383,0.189 0.461,0.394 -0.103,-0.27 0,0.146 -0.002,0.064 -0.033,-1.448 -2.283,-1.452 -2.25,0 z"
   id="path8940" />
	</g>
	<g
   id="g8946">
		<path
   fill="#e4ddcc"
   d="m 379.542,133.111 c -0.004,0.164 0.062,-0.343 0.016,-0.126 -0.034,0.108 -0.021,0.083 0.037,-0.075 0.072,-0.145 0.25,-0.247 0.406,-0.257 -0.611,0.042 -1.125,0.48 -1.125,1.125 0,0.582 0.513,1.167 1.125,1.125 1.005,-0.068 1.767,-0.758 1.791,-1.792 0.033,-1.451 -2.217,-1.448 -2.25,0 z"
   id="path8944" />
	</g>
	<g
   id="g8950">
		<path
   fill="#e4ddcc"
   d="m 337.334,138.236 c 0.223,0 0.444,0 0.667,0 1.451,0 1.451,-2.25 0,-2.25 -0.223,0 -0.444,0 -0.667,0 -1.451,0 -1.451,2.25 0,2.25 z"
   id="path8948" />
	</g>
	<g
   id="g8954">
		<path
   fill="#e4ddcc"
   d="m 390.667,131.57 c 1.451,0 1.451,-2.25 0,-2.25 -1.451,0 -1.451,2.25 0,2.25 z"
   id="path8952" />
	</g>
	<g
   id="g8958">
		<path
   fill="#e4ddcc"
   d="m 357.334,126.236 c 1.451,0 1.451,-2.25 0,-2.25 -1.451,0 -1.451,2.25 0,2.25 z"
   id="path8956" />
	</g>
	<g
   id="g8962">
		<path
   fill="#e4ddcc"
   d="m 190.667,128.903 c 0.485,-0.001 0.995,-0.032 1.361,-0.397 0.385,-0.385 0.43,-0.879 0.431,-1.394 0.002,-1.451 -2.248,-1.451 -2.25,0 0,0.084 -0.053,0.54 0.016,0.17 0.159,-0.407 0.415,-0.618 0.768,-0.634 -0.107,0.01 -0.218,0.005 -0.325,0.005 -1.452,0.002 -1.452,2.252 -0.001,2.25 z"
   id="path8960" />
	</g>
</g><g
   opacity="0.1"
   id="g9014"
   transform="matrix(1.9589041,0,0,3.3326926,-2.0091335,-279.31723)">
	<g
   id="g8968">
		<path
   fill="#e4ddcc"
   d="m 231.517,213.215 c 0,0.222 0,0.444 0,0.666 0,1.451 2.25,1.451 2.25,0 0,-0.222 0,-0.444 0,-0.666 0,-1.451 -2.25,-1.451 -2.25,0 z"
   id="path8966" />
	</g>
	<g
   id="g8972">
		<path
   fill="#e4ddcc"
   d="m 425.975,217.673 c 1.451,0 1.451,-2.25 0,-2.25 -1.451,0 -1.452,2.25 0,2.25 z"
   id="path8970" />
	</g>
	<g
   id="g8976">
		<path
   fill="#e4ddcc"
   d="m 256.642,219.673 c 1.451,0 1.451,-2.25 0,-2.25 -1.451,0 -1.452,2.25 0,2.25 z"
   id="path8974" />
	</g>
	<g
   id="g8980">
		<path
   fill="#e4ddcc"
   d="m 412.513,233.344 c 0.583,0.569 1.312,0.944 2.129,0.996 0.612,0.039 1.125,-0.541 1.125,-1.125 0,-0.643 -0.513,-1.086 -1.125,-1.125 0.134,0.009 -0.173,-0.064 -0.074,-0.02 -0.114,-0.053 -0.22,-0.124 -0.323,-0.193 0.155,0.104 -0.099,-0.084 -0.14,-0.125 -1.039,-1.014 -2.63,0.576 -1.592,1.592 z"
   id="path8978" />
	</g>
	<g
   id="g8984">
		<path
   fill="#e4ddcc"
   d="m 311.309,189.007 c 0.222,0 0.444,0 0.666,0 1.451,0 1.451,-2.25 0,-2.25 -0.222,0 -0.444,0 -0.666,0 -1.452,0 -1.452,2.25 0,2.25 z"
   id="path8982" />
	</g>
	<g
   id="g8988">
		<path
   fill="#e4ddcc"
   d="m 261.975,191.673 c 0.223,0 0.444,0 0.667,0 1.451,0 1.451,-2.25 0,-2.25 -0.223,0 -0.444,0 -0.667,0 -1.452,0 -1.452,2.25 0,2.25 z"
   id="path8986" />
	</g>
	<g
   id="g8992">
		<path
   fill="#e4ddcc"
   d="m 348.184,225.881 c 0.024,1.033 0.786,1.724 1.791,1.792 0.612,0.042 1.125,-0.543 1.125,-1.125 0,-0.645 -0.514,-1.083 -1.125,-1.125 0.246,0.017 0.383,0.189 0.461,0.394 -0.103,-0.27 0,0.146 -0.002,0.064 -0.034,-1.448 -2.284,-1.452 -2.25,0 z"
   id="path8990" />
	</g>
	<g
   id="g8996">
		<path
   fill="#e4ddcc"
   d="m 420.85,193.882 c -0.004,0.164 0.062,-0.343 0.016,-0.126 -0.034,0.108 -0.021,0.083 0.037,-0.075 0.072,-0.145 0.25,-0.247 0.406,-0.257 -0.611,0.042 -1.125,0.48 -1.125,1.125 0,0.582 0.513,1.167 1.125,1.125 1.005,-0.068 1.767,-0.758 1.791,-1.792 0.033,-1.452 -2.217,-1.449 -2.25,0 z"
   id="path8994" />
	</g>
	<g
   id="g9000">
		<path
   fill="#e4ddcc"
   d="m 378.642,199.007 c 0.223,0 0.444,0 0.667,0 1.451,0 1.451,-2.25 0,-2.25 -0.223,0 -0.444,0 -0.667,0 -1.452,0 -1.452,2.25 0,2.25 z"
   id="path8998" />
	</g>
	<g
   id="g9004">
		<path
   fill="#e4ddcc"
   d="m 431.975,192.34 c 1.451,0 1.451,-2.25 0,-2.25 -1.451,0 -1.452,2.25 0,2.25 z"
   id="path9002" />
	</g>
	<g
   id="g9008">
		<path
   fill="#e4ddcc"
   d="m 398.642,187.007 c 1.451,0 1.451,-2.25 0,-2.25 -1.451,0 -1.452,2.25 0,2.25 z"
   id="path9006" />
	</g>
	<g
   id="g9012">
		<path
   fill="#e4ddcc"
   d="m 231.975,189.673 c 0.485,-0.001 0.995,-0.032 1.361,-0.397 0.385,-0.385 0.43,-0.879 0.431,-1.394 0.002,-1.451 -2.248,-1.451 -2.25,0 0,0.084 -0.053,0.54 0.016,0.17 0.159,-0.407 0.415,-0.618 0.768,-0.634 -0.107,0.01 -0.218,0.005 -0.325,0.005 -1.453,0.003 -1.453,2.253 -0.001,2.25 z"
   id="path9010" />
	</g>
</g><g
   opacity="0.1"
   id="g9064"
   transform="matrix(1.9589041,0,0,3.3326926,-2.0091335,-279.31723)">
	<g
   id="g9018">
		<path
   fill="#e4ddcc"
   d="m 436.921,188.112 c 0,0.222 0,0.444 0,0.666 0,1.451 2.25,1.451 2.25,0 0,-0.222 0,-0.444 0,-0.666 0,-1.451 -2.25,-1.451 -2.25,0 z"
   id="path9016" />
	</g>
	<g
   id="g9022">
		<path
   fill="#e4ddcc"
   d="m 631.379,192.57 c 1.451,0 1.451,-2.25 0,-2.25 -1.451,0 -1.451,2.25 0,2.25 z"
   id="path9020" />
	</g>
	<g
   id="g9026">
		<path
   fill="#e4ddcc"
   d="m 462.046,194.57 c 1.451,0 1.451,-2.25 0,-2.25 -1.451,0 -1.451,2.25 0,2.25 z"
   id="path9024" />
	</g>
	<g
   id="g9030">
		<path
   fill="#e4ddcc"
   d="m 617.917,208.241 c 0.583,0.569 1.312,0.944 2.129,0.996 0.612,0.039 1.125,-0.541 1.125,-1.125 0,-0.643 -0.513,-1.086 -1.125,-1.125 0.134,0.009 -0.173,-0.064 -0.074,-0.02 -0.114,-0.053 -0.22,-0.124 -0.323,-0.193 0.155,0.104 -0.099,-0.084 -0.14,-0.125 -1.038,-1.014 -2.63,0.576 -1.592,1.592 z"
   id="path9028" />
	</g>
	<g
   id="g9034">
		<path
   fill="#e4ddcc"
   d="m 516.713,163.904 c 0.222,0 0.444,0 0.666,0 1.451,0 1.451,-2.25 0,-2.25 -0.222,0 -0.444,0 -0.666,0 -1.451,0 -1.451,2.25 0,2.25 z"
   id="path9032" />
	</g>
	<g
   id="g9038">
		<path
   fill="#e4ddcc"
   d="m 467.379,166.57 c 0.223,0 0.444,0 0.667,0 1.451,0 1.451,-2.25 0,-2.25 -0.223,0 -0.444,0 -0.667,0 -1.451,0 -1.451,2.25 0,2.25 z"
   id="path9036" />
	</g>
	<g
   id="g9042">
		<path
   fill="#e4ddcc"
   d="m 553.588,200.778 c 0.024,1.033 0.786,1.724 1.791,1.792 0.612,0.042 1.125,-0.543 1.125,-1.125 0,-0.645 -0.514,-1.083 -1.125,-1.125 0.246,0.017 0.383,0.189 0.461,0.394 -0.103,-0.27 0,0.146 -0.002,0.064 -0.033,-1.448 -2.283,-1.452 -2.25,0 z"
   id="path9040" />
	</g>
	<g
   id="g9046">
		<path
   fill="#e4ddcc"
   d="m 626.254,168.779 c -0.004,0.164 0.062,-0.343 0.016,-0.126 -0.034,0.108 -0.021,0.083 0.037,-0.075 0.072,-0.145 0.25,-0.247 0.406,-0.257 -0.611,0.042 -1.125,0.48 -1.125,1.125 0,0.582 0.513,1.167 1.125,1.125 1.005,-0.068 1.767,-0.758 1.791,-1.792 0.033,-1.452 -2.217,-1.449 -2.25,0 z"
   id="path9044" />
	</g>
	<g
   id="g9050">
		<path
   fill="#e4ddcc"
   d="m 584.046,173.904 c 0.223,0 0.444,0 0.667,0 1.451,0 1.451,-2.25 0,-2.25 -0.223,0 -0.444,0 -0.667,0 -1.451,0 -1.451,2.25 0,2.25 z"
   id="path9048" />
	</g>
	<g
   id="g9054">
		<path
   fill="#e4ddcc"
   d="m 637.379,167.237 c 1.451,0 1.451,-2.25 0,-2.25 -1.451,0 -1.451,2.25 0,2.25 z"
   id="path9052" />
	</g>
	<g
   id="g9058">
		<path
   fill="#e4ddcc"
   d="m 604.046,161.904 c 1.451,0 1.451,-2.25 0,-2.25 -1.451,0 -1.451,2.25 0,2.25 z"
   id="path9056" />
	</g>
	<g
   id="g9062">
		<path
   fill="#e4ddcc"
   d="m 437.379,164.57 c 0.485,-0.001 0.995,-0.032 1.361,-0.397 0.385,-0.385 0.43,-0.879 0.431,-1.394 0.002,-1.451 -2.248,-1.451 -2.25,0 0,0.084 -0.053,0.54 0.016,0.17 0.159,-0.407 0.415,-0.618 0.768,-0.634 -0.107,0.01 -0.218,0.005 -0.325,0.005 -1.452,0.003 -1.452,2.253 -10e-4,2.25 z"
   id="path9060" />
	</g>
</g><g
   opacity="0.4"
   id="g9098"
   transform="matrix(1.9589041,0,0,3.3326926,-2.0091335,-279.31723)">
	<g
   id="g9068">
		<path
   fill="#e4ddcc"
   d="m 132.797,173.903 c 1.451,0 1.451,-2.25 0,-2.25 -1.451,0 -1.451,2.25 0,2.25 z"
   id="path9066" />
	</g>
	<g
   id="g9072">
		<path
   fill="#e4ddcc"
   d="m 119.335,189.574 c 0.583,0.569 1.312,0.944 2.129,0.996 0.612,0.039 1.125,-0.541 1.125,-1.125 0,-0.643 -0.513,-1.086 -1.125,-1.125 0.134,0.009 -0.173,-0.064 -0.074,-0.02 -0.114,-0.053 -0.22,-0.124 -0.323,-0.193 0.155,0.104 -0.099,-0.084 -0.14,-0.125 -1.038,-1.015 -2.63,0.575 -1.592,1.592 z"
   id="path9070" />
	</g>
	<g
   id="g9076">
		<path
   fill="#e4ddcc"
   d="m 18.131,145.236 c 0.222,0 0.444,0 0.666,0 1.451,0 1.451,-2.25 0,-2.25 -0.222,0 -0.444,0 -0.666,0 -1.451,0 -1.451,2.25 0,2.25 z"
   id="path9074" />
	</g>
	<g
   id="g9080">
		<path
   fill="#e4ddcc"
   d="m 55.006,182.111 c 0.024,1.033 0.786,1.724 1.791,1.792 0.612,0.042 1.125,-0.543 1.125,-1.125 0,-0.645 -0.514,-1.083 -1.125,-1.125 0.246,0.017 0.383,0.189 0.461,0.394 -0.103,-0.27 0,0.146 -0.002,0.064 -0.033,-1.448 -2.283,-1.452 -2.25,0 z"
   id="path9078" />
	</g>
	<g
   id="g9084">
		<path
   fill="#e4ddcc"
   d="m 127.672,150.111 c -0.004,0.164 0.062,-0.343 0.016,-0.126 -0.034,0.108 -0.021,0.083 0.037,-0.075 0.072,-0.145 0.25,-0.247 0.406,-0.257 -0.611,0.042 -1.125,0.48 -1.125,1.125 0,0.582 0.513,1.167 1.125,1.125 1.005,-0.068 1.767,-0.758 1.791,-1.792 0.033,-1.451 -2.217,-1.448 -2.25,0 z"
   id="path9082" />
	</g>
	<g
   id="g9088">
		<path
   fill="#e4ddcc"
   d="m 85.464,155.236 c 0.223,0 0.444,0 0.667,0 1.451,0 1.451,-2.25 0,-2.25 -0.223,0 -0.444,0 -0.667,0 -1.451,0 -1.451,2.25 0,2.25 z"
   id="path9086" />
	</g>
	<g
   id="g9092">
		<path
   fill="#e4ddcc"
   d="m 138.797,148.57 c 1.451,0 1.451,-2.25 0,-2.25 -1.451,0 -1.451,2.25 0,2.25 z"
   id="path9090" />
	</g>
	<g
   id="g9096">
		<path
   fill="#e4ddcc"
   d="m 105.464,143.236 c 1.451,0 1.451,-2.25 0,-2.25 -1.451,0 -1.451,2.25 0,2.25 z"
   id="path9094" />
	</g>
</g><path
   opacity="0.5"
   fill="#f88063"
   d="m 1114.6191,1022.0993 -27.5657,27.2181 22.2884,0.5532 -22.2884,32.2172 33.7167,-3.3127 c 0,0 -32.083,36.123 -42.2046,42.7684 0,0 25.7498,-9.9647 36.0536,-24.1553 10.3038,-14.1906 11.2853,-26.8815 11.2853,-26.8815 l -26.3571,1.3197 19.5009,-30.9907 -23.0916,3.526 z"
   id="path9316"
   style="stroke-width:2.55508" /><polygon
   opacity="0.5"
   fill="#f88063"
   points="592.857,407.506 588.077,411.668 585.19,420.339 600.625,409.638 600.625,421.668 609.565,411.706 601.667,416.313 602.181,405.42 588.19,416.313 "
   id="polygon9318"
   transform="matrix(1.9589041,0,0,3.3326926,-2.0091335,-279.31723)" /><path
   opacity="0.5"
   fill="#f88063"
   d="m 1126.5332,983.21679 c 0,0 34.0124,-24.04871 37.1114,-39.76569 1.4202,-7.19861 6.3939,33.70019 6.3939,51.43345 0,4.99571 13.7436,-24.89855 13.7436,-24.89855 v 23.78876 l 11.5282,-12.91751 18.304,76.39195 -14.8152,-84.58705 -12.251,6.66539 v -22.89893 l -12.155,13.55739 -7.4634,-36.46632 c 0,0 -22.9799,34.36339 -40.3965,49.69711"
   id="path9320"
   style="stroke-width:2.55508" /><path
   opacity="0.5"
   fill="#f88063"
   d="m 1261.4468,1022.0993 -21.1836,30.7408 18.6018,-2.4096 -14.3588,32.2138 14.3588,-3.8692 -12.9778,29.7409 c 0,0 16.2491,-8.6516 21.4735,-16.9834 l -10.1216,1.6664 7.6573,-22.6957 -12.2274,1.3198 10.4468,-27.4647 h -12.0786 z"
   id="path9322"
   style="stroke-width:2.55508" /><polygon
   opacity="0.5"
   fill="#f88063"
   points="602.345,341.603 602.345,336 600.435,347.75 608.918,337.699 608.463,345.917 614.924,341.875 622.047,367.028 617.463,338.623 610,341.5 610,333.575 "
   id="polygon9324"
   transform="matrix(1.9589041,0,0,3.3326926,-2.0091335,-279.31723)" /><polygon
   opacity="0.5"
   fill="#f88063"
   points="606.449,453.47 620.898,450.09 606.746,462.355 622.762,466.25 611.25,461.25 624.875,448.375 615.41,449.5 617.75,446.75 "
   id="polygon9326"
   transform="matrix(1.9589041,0,0,3.3326926,-2.0091335,-279.31723)" /><polygon
   opacity="0.5"
   fill="#f88063"
   points="609.228,411.888 606.449,439.375 610.949,410.875 "
   id="polygon9328"
   transform="matrix(1.9589041,0,0,3.3326926,-2.0091335,-279.31723)" /><path
   opacity="0.5"
   fill="#f88063"
   d="m 1227.1542,1147.6485 c -0.4407,0.6766 -46.8844,47.7508 -46.8844,47.7508 l 39.3426,-10.4146 -11.5085,24.5786 18.2668,-29.4977 -30.0202,4.9191 z"
   id="path9330"
   style="stroke-width:2.55508" /><path
   opacity="0.5"
   fill="#f88063"
   d="m 1141.1407,903.23217 c 0.1979,1.11312 -23.309,30.28751 -23.309,30.28751 l 21.2228,-7.91181 -16.6507,38.04268 27.2013,-46.90765 -18.9994,5.14235 z"
   id="path9332"
   style="stroke-width:2.55508" /><path
   opacity="0.5"
   fill="#f88063"
   d="m 1149.6051,791.58697 -16.7466,17.22002 8.3723,-2.22291 -12.2686,30.25419 25.4344,-21.3659 c 0,0 -25.7635,47.98078 -23.7928,45.50459 0.7169,-0.90316 30.649,-34.69333 30.649,-34.69333 l -11.6496,6.10216 9.2009,-24.41198 -21.3853,16.49017 9.0227,-24.302 z"
   id="path9334"
   style="stroke-width:2.55508" /><polygon
   opacity="0.5"
   fill="#f88063"
   points="605.125,312.5 612.447,302.25 611.205,310.198 621.354,300.823 613.796,306 613.796,299.073 606.449,305.787 605.875,300.125 "
   id="polygon9336"
   transform="matrix(1.9589041,0,0,3.3326926,-2.0091335,-279.31723)" /><path
   fill="#f88063"
   d="m 756.31791,1038.7961 c -0.14104,0.033 -0.3193,0.4566 -0.10186,1.1098 0.008,0.033 0.0157,0.043 0.0235,0.067 0.0353,-0.1 0.0529,-0.1799 0.0784,-0.2666 0,-0.3066 0,-0.5965 0,-0.9098 z"
   id="path9352"
   style="stroke-width:2.55508" /><path
   fill="#f88063"
   d="m 756.31791,1038.7961 c 0,0.3133 0,0.6066 0,0.9065 0.18806,-0.6665 0.1195,-0.9332 0,-0.9065 z"
   id="path9354"
   style="stroke-width:2.55508" /><rect
   style="fill:#151c30;fill-opacity:1"
   id="rect13029"
   width="297.17355"
   height="267.94336"
   x="-618.70557"
   y="606.52637" /></svg>
