<?xml version="1.0" encoding="iso-8859-1"?>
<!-- Generator: Adobe Illustrator 19.0.0, SVG Export Plug-In . SVG Version: 6.00 Build 0)  -->
<svg version="1.1" id="Layer_1" xmlns="http://www.w3.org/2000/svg" xmlns:xlink="http://www.w3.org/1999/xlink" x="0px" y="0px"
	 viewBox="0 0 512.022 512.022" style="enable-background:new 0 0 512.022 512.022;" xml:space="preserve">
<g>
	<g>
		<path d="M510.838,431.658L256.946,177.762l-37.984-82.896c-0.108-0.232-0.288-0.392-0.428-0.588
			c-0.132-0.192-0.212-0.404-0.384-0.572L132.166,7.722c-10.296-10.296-27.04-10.296-37.336,0L7.722,94.842
			C2.754,99.81,0.01,106.438,0.01,113.51c0,7.068,2.736,13.7,7.712,18.668l85.984,85.98c0.164,0.172,0.384,0.248,0.572,0.38
			c0.196,0.14,0.36,0.324,0.584,0.428l82.892,37.992L431.646,510.85c0.78,0.78,1.804,1.172,2.828,1.172
			c1.024,0,2.048-0.392,2.828-1.172l17.084-17.084c4.968,4.048,11.124,6.252,17.624,6.252c7.484,0,14.516-2.916,19.796-8.2
			c5.288-5.288,8.204-12.32,8.204-19.8c0-6.5-2.204-12.656-6.248-17.628l17.08-17.084
			C512.402,435.746,512.402,433.214,510.838,431.658z"/>
	</g>
</g>
<g>
</g>
<g>
</g>
<g>
</g>
<g>
</g>
<g>
</g>
<g>
</g>
<g>
</g>
<g>
</g>
<g>
</g>
<g>
</g>
<g>
</g>
<g>
</g>
<g>
</g>
<g>
</g>
<g>
</g>
</svg>
