<?xml version="1.0" encoding="UTF-8" standalone="no"?>
<!-- Generator: Adobe Illustrator 21.0.0, SVG Export Plug-In . SVG Version: 6.00 Build 0)  -->

<svg
   version="1.1"
   id="Layer_2"
   x="0px"
   y="0px"
   viewBox="0 0 1400 1400"
   style="enable-background:new 0 0 1400 1400;"
   xml:space="preserve"
   sodipodi:docname="lake.svg"
   inkscape:version="1.2 (dc2aedaf03, 2022-05-15)"
   inkscape:export-filename="lake.png"
   inkscape:export-xdpi="96"
   inkscape:export-ydpi="96"
   xmlns:inkscape="http://www.inkscape.org/namespaces/inkscape"
   xmlns:sodipodi="http://sodipodi.sourceforge.net/DTD/sodipodi-0.dtd"
   xmlns="http://www.w3.org/2000/svg"
   xmlns:svg="http://www.w3.org/2000/svg"><defs
   id="defs6295"><linearGradient
     id="linearGradient1765"
     inkscape:swatch="gradient"><stop
       style="stop-color:#006680;stop-opacity:1;"
       offset="0"
       id="stop1761" /><stop
       style="stop-color:#006680;stop-opacity:0;"
       offset="1"
       id="stop1763" /></linearGradient></defs><sodipodi:namedview
   id="namedview6293"
   pagecolor="#ffffff"
   bordercolor="#000000"
   borderopacity="0.25"
   inkscape:showpageshadow="2"
   inkscape:pageopacity="0.0"
   inkscape:pagecheckerboard="0"
   inkscape:deskcolor="#d1d1d1"
   showgrid="false"
   inkscape:zoom="0.43852551"
   inkscape:cx="798.12917"
   inkscape:cy="545.00821"
   inkscape:window-width="1600"
   inkscape:window-height="837"
   inkscape:window-x="-8"
   inkscape:window-y="-8"
   inkscape:window-maximized="1"
   inkscape:current-layer="Layer_2" />
<style
   type="text/css"
   id="style6140">
	.st0{fill:url(#SVGID_1_);}
	.st1{fill:#157E80;}
	.st2{fill:#24A3A3;}
	.st3{fill:url(#SVGID_2_);}
	.st4{fill:#0E262D;}
	.st5{fill:#071E1A;}
	.st6{fill:#3B5453;}
	.st7{fill:#4B6361;}
	.st8{opacity:0.2;fill:#FFD239;}
	.st9{fill:#0F1D3E;}
	.st10{fill:#384E5E;}
	.st11{fill:#506877;}
	.st12{fill:#2A3E3E;}
	.st13{fill:#377992;}
	.st14{fill:#2C6577;}
	.st15{fill:#5295AA;}
	.st16{fill:#202214;}
	.st17{fill:#193C44;}
	.st18{fill:#2E301A;}
	.st19{fill:#0F352F;}
	.st20{opacity:0.3;fill:#FFD239;}
	.st21{fill:#69462F;}
	.st22{fill:#7C543E;}
	.st23{fill:#9B722F;}
	.st24{fill:#11284D;}
	.st25{fill:#2B6977;}
	.st26{fill:#134662;}
	.st27{fill:#0D4056;}
	.st28{fill:#176356;}
	.st29{fill:#111A30;}
	.st30{fill:#2A917F;}
	.st31{fill:#1B5950;}
	.st32{fill:#FFAD00;}
	.st33{fill:#061C32;}
	.st34{fill:#EA9B1C;}
	.st35{fill:#FFC152;}
	.st36{fill:#FFCE43;}
	.st37{fill:#71C6CD;}
	.st38{fill:#26100D;}
	.st39{fill:#3B1C17;}
	.st40{fill:#FDC300;}
	.st41{fill:#FA7A07;}
	.st42{fill:#FFD150;}
	.st43{fill:#F4CE62;}
	.st44{fill:#FFEC66;}
	.st45{fill:#FF8A50;}
	.st46{fill:#F3701E;}
	.st47{fill:#CE5917;}
	.st48{fill:#FCAA86;}
	.st49{fill:#47B23F;}
	.st50{fill:#2E9329;}
	.st51{fill:#237C1C;}
	.st52{fill:#69C961;}
	.st53{fill:#326B9E;}
	.st54{fill:#0F406D;}
	.st55{fill:#174D87;}
	.st56{fill:#417DAA;}
	.st57{fill:#155945;}
	.st58{fill:#564E1F;}
	.st59{fill:#FFD239;}
	.st60{fill:#F88414;}
</style>
<linearGradient
   id="SVGID_1_"
   gradientUnits="userSpaceOnUse"
   x1="705.4807"
   y1="-23.0318"
   x2="699.4819"
   y2="450.8734">
	<stop
   offset="0"
   style="stop-color:#193C44"
   id="stop6142" />
	<stop
   offset="1"
   style="stop-color:#12635E"
   id="stop6144" />
</linearGradient>



<linearGradient
   id="SVGID_2_"
   gradientUnits="userSpaceOnUse"
   x1="701.4584"
   y1="888.3167"
   x2="701.4584"
   y2="465.2743">
	<stop
   offset="0"
   style="stop-color:#203736"
   id="stop6153" />
	<stop
   offset="1"
   style="stop-color:#193C44"
   id="stop6155" />
</linearGradient>

















<polygon
   class="st44"
   points="400,34.9 403.8,34.1 400,33.4 399.3,29.7 398.6,33.4 394.9,34.1 398.6,34.9 399.3,38.6 "
   id="polygon6192" />









<rect
   style="fill:#0e262d;fill-opacity:1;stroke:none;stroke-width:1.50377"
   id="rect11131"
   width="1400.5179"
   height="238.31458"
   x="0.30221134"
   y="780.39868"
   inkscape:export-filename="lake.png"
   inkscape:export-xdpi="96"
   inkscape:export-ydpi="96" /><polygon
   class="st44"
   points="35.1,65 38.8,64.3 35.1,63.6 34.3,59.8 33.6,63.6 29.9,64.3 33.6,65 34.3,68.8 "
   id="polygon6212" />
<polygon
   class="st44"
   points="1323.3,65.6 1330.1,64.3 1323.3,63 1322,56.1 1320.7,63 1313.8,64.3 1320.7,65.6 1322,72.4 "
   id="polygon6214" /><path
   style="fill:#4b6361;fill-opacity:1;stroke:#000000;stroke-width:1.02439"
   id="path15182"
   sodipodi:type="arc"
   sodipodi:cx="700.61597"
   sodipodi:cy="1005.3693"
   sodipodi:rx="699.3078"
   sodipodi:ry="116.77264"
   sodipodi:start="3.124115"
   sodipodi:end="0.016930126"
   sodipodi:arc-type="slice"
   d="m 1.414972,1007.4101 a 699.3078,116.77264 0 0 1 345.914638,-102.81621 699.3078,116.77264 0 0 1 706.24219,-0.0323 699.3078,116.77264 0 0 1 346.2517,102.7846 l -699.20753,-1.9769 z" />






<polygon
   class="st5"
   points="0,1084.3 131.1,1084.3 262.3,1084.3 203.3,985.2 254.4,990.9 196.7,886.5 236.5,889.6 169.2,788.3 205,791.7 166.5,722.1 188.6,719.6 131.1,593.6 73.7,719.6 95.7,722.1 57.3,791.7 93.1,788.3 25.8,889.6 65.6,886.5 7.9,990.9 59,985.2 "
   id="polygon6162"
   style="fill:#071e1a"
   transform="translate(71.285323,-99.52838)" /><polygon
   class="st5"
   points="408.9,656.2 430.9,658.6 392.5,728.3 428.3,724.8 361,826.1 400.8,823 343.1,927.4 394.2,921.7 335.2,1020.8 466.4,1020.8 597.5,1020.8 538.5,921.7 589.6,927.4 531.9,823 571.7,826.1 504.4,724.8 540.2,728.3 501.8,658.6 523.8,656.2 466.4,530.1 "
   id="polygon6164"
   inkscape:export-filename="lake.png"
   inkscape:export-xdpi="96"
   inkscape:export-ydpi="96"
   transform="translate(40.803734,-53.075564)"
   style="fill:#071e1a" /><polygon
   class="st5"
   points="672.3,952.2 723.5,946.5 664.4,1045.6 795.6,1045.6 926.7,1045.6 867.7,946.5 918.9,952.2 861.2,847.8 900.9,850.9 833.6,749.6 869.5,753 831,683.4 853,681 795.6,554.9 738.1,681 760.2,683.4 721.7,753 757.6,749.6 690.2,850.9 730,847.8 "
   id="polygon6166"
   style="fill:#071e1a"
   transform="translate(71.725499,-99.184551)" /><polygon
   class="st5"
   points="1012.5,1084.3 1143.7,1084.3 1274.8,1084.3 1215.8,985.2 1267,990.9 1209.3,886.5 1249,889.6 1181.7,788.3 1217.6,791.7 1179.1,722.1 1201.1,719.6 1143.7,593.6 1086.2,719.6 1108.3,722.1 1069.8,791.7 1105.7,788.3 1038.3,889.6 1078.1,886.5 1020.4,990.9 1071.6,985.2 "
   id="polygon6168"
   style="fill:#071e1a"
   transform="translate(62.438288,-95.266581)" /></svg>
