<?xml version="1.0" encoding="UTF-8" standalone="no"?>
<!-- Generator: Adobe Illustrator 21.0.0, SVG Export Plug-In . SVG Version: 6.00 Build 0)  -->

<svg
   version="1.1"
   id="Layer_2"
   x="0px"
   y="0px"
   viewBox="0 0 1400 1400"
   style="enable-background:new 0 0 1400 1400;"
   xml:space="preserve"
   sodipodi:docname="trees.svg"
   inkscape:version="1.2 (dc2aedaf03, 2022-05-15)"
   xmlns:inkscape="http://www.inkscape.org/namespaces/inkscape"
   xmlns:sodipodi="http://sodipodi.sourceforge.net/DTD/sodipodi-0.dtd"
   xmlns="http://www.w3.org/2000/svg"
   xmlns:svg="http://www.w3.org/2000/svg"><defs
   id="defs6295" /><sodipodi:namedview
   id="namedview6293"
   pagecolor="#ffffff"
   bordercolor="#000000"
   borderopacity="0.25"
   inkscape:showpageshadow="2"
   inkscape:pageopacity="0.0"
   inkscape:pagecheckerboard="0"
   inkscape:deskcolor="#d1d1d1"
   showgrid="false"
   inkscape:zoom="0.33589188"
   inkscape:cx="506.11525"
   inkscape:cy="500.16095"
   inkscape:window-width="1600"
   inkscape:window-height="837"
   inkscape:window-x="-8"
   inkscape:window-y="-8"
   inkscape:window-maximized="1"
   inkscape:current-layer="Layer_2" />
<style
   type="text/css"
   id="style6140">
	.st0{fill:url(#SVGID_1_);}
	.st1{fill:#157E80;}
	.st2{fill:#24A3A3;}
	.st3{fill:url(#SVGID_2_);}
	.st4{fill:#0E262D;}
	.st5{fill:#071E1A;}
	.st6{fill:#3B5453;}
	.st7{fill:#4B6361;}
	.st8{opacity:0.2;fill:#FFD239;}
	.st9{fill:#0F1D3E;}
	.st10{fill:#384E5E;}
	.st11{fill:#506877;}
	.st12{fill:#2A3E3E;}
	.st13{fill:#377992;}
	.st14{fill:#2C6577;}
	.st15{fill:#5295AA;}
	.st16{fill:#202214;}
	.st17{fill:#193C44;}
	.st18{fill:#2E301A;}
	.st19{fill:#0F352F;}
	.st20{opacity:0.3;fill:#FFD239;}
	.st21{fill:#69462F;}
	.st22{fill:#7C543E;}
	.st23{fill:#9B722F;}
	.st24{fill:#11284D;}
	.st25{fill:#2B6977;}
	.st26{fill:#134662;}
	.st27{fill:#0D4056;}
	.st28{fill:#176356;}
	.st29{fill:#111A30;}
	.st30{fill:#2A917F;}
	.st31{fill:#1B5950;}
	.st32{fill:#FFAD00;}
	.st33{fill:#061C32;}
	.st34{fill:#EA9B1C;}
	.st35{fill:#FFC152;}
	.st36{fill:#FFCE43;}
	.st37{fill:#71C6CD;}
	.st38{fill:#26100D;}
	.st39{fill:#3B1C17;}
	.st40{fill:#FDC300;}
	.st41{fill:#FA7A07;}
	.st42{fill:#FFD150;}
	.st43{fill:#F4CE62;}
	.st44{fill:#FFEC66;}
	.st45{fill:#FF8A50;}
	.st46{fill:#F3701E;}
	.st47{fill:#CE5917;}
	.st48{fill:#FCAA86;}
	.st49{fill:#47B23F;}
	.st50{fill:#2E9329;}
	.st51{fill:#237C1C;}
	.st52{fill:#69C961;}
	.st53{fill:#326B9E;}
	.st54{fill:#0F406D;}
	.st55{fill:#174D87;}
	.st56{fill:#417DAA;}
	.st57{fill:#155945;}
	.st58{fill:#564E1F;}
	.st59{fill:#FFD239;}
	.st60{fill:#F88414;}
</style>
<linearGradient
   id="SVGID_1_"
   gradientUnits="userSpaceOnUse"
   x1="705.4807"
   y1="-23.0318"
   x2="699.4819"
   y2="450.8734">
	<stop
   offset="0"
   style="stop-color:#193C44"
   id="stop6142" />
	<stop
   offset="1"
   style="stop-color:#12635E"
   id="stop6144" />
</linearGradient>



<linearGradient
   id="SVGID_2_"
   gradientUnits="userSpaceOnUse"
   x1="701.4584"
   y1="888.3167"
   x2="701.4584"
   y2="465.2743"
   gradientTransform="matrix(1,0,0,0.74027867,0,116.66682)">
	<stop
   offset="0"
   style="stop-color:#203736"
   id="stop6153" />
	<stop
   offset="1"
   style="stop-color:#193C44"
   id="stop6155" />
</linearGradient>
<path
   class="st3"
   d="M 1402.9,1043.1996 V 713.99768 674.54083 l -6.6,-9.10543 6.6,0.59222 v -33.31254 l -10.5,-15.61988 10.5,0.66625 v -15.47182 l -27,-33.23851 21.4,1.70264 -23,-34.12685 13.2,-1.18445 -34.4,-61.73923 -34.4,61.73923 13.2,1.18445 -23,34.12685 21.4,-1.70264 -21.4,26.42795 -31.4,-38.64255 21.4,1.70264 -23,-34.12684 13.2,-1.18446 -34.4,-61.73923 -31.9,57.29757 -31.8,-57.14952 -37,66.47703 14.2,1.25847 -11.4,16.80432 -25,-44.93491 -34.4,61.73924 13.2,1.18445 -23,34.12685 21.4,-1.70265 -24.6,30.2774 -14.9,-22.0603 23.8,1.55458 -40.3,-49.59867 21.4,1.70264 -23,-34.12684 13.2,-1.18445 -34.4,-61.73924 -34.4,61.73924 11.1,1.03639 -10.2,18.28488 -10.8,15.99002 15.9,-1.25847 -16.8,24.87336 -30.1,-37.53213 21.4,1.70264 -23,-34.12684 13.2,-1.18445 -34.4,-61.73924 -33,59.29632 -26.1,-47.00769 -34.4,61.73923 13.2,1.18446 -12.5,18.58098 -30,-53.89228 -8.5,15.32377 -17,-30.64754 -34.4,61.73924 13.2,1.18445 -20.1,29.83323 -17.5,-25.90975 13,-1.25848 -34.4,-61.73924 -34.3,61.73924 13.2,1.18445 -23,34.12684 21.4,-1.70264 -39.4,48.56228 -20.2,-24.94739 21.4,1.70265 -23,-34.12685 13.2,-1.18445 -34.4,-61.73924 -15.5,27.98253 -11.5,-17.10043 13.2,-1.18445 L 550.3,449.2 526,492.80242 l -10.6,-19.02517 -23.8,42.71408 -30.6,-55.0027 -34.4,61.73923 13.2,1.18446 -23,34.12684 21.4,-1.70264 -40.3,49.59867 23.8,-1.55458 -18.6,27.53836 -25,-30.79559 21.4,1.70263 -23,-34.12683 13.2,-1.18446 -34.4,-61.73923 -34.4,61.73923 13.2,1.18446 -21.8,32.27614 -13.9,-17.10044 21.4,1.70265 -22.8,-34.12685 13.2,-1.18445 -34.3,-61.73924 -34.4,61.73924 13.2,1.18445 -19.6,29.01892 -19.6,-24.13308 21.4,1.70264 -23,-34.12684 13.2,-1.18446 -34.4,-61.73923 -34.4,61.73923 13.2,1.18446 -23,34.12684 21.4,-1.70264 -40.3,49.59867 23.8,-1.55458 -29,43.01018 H 79 l -7,-10.51195 23.8,1.55458 -40.3,-49.59867 21.4,1.70264 -23,-34.12684 L 67.1,555.7261 32.7,493.98686 0,552.83901 v 3.03514 l 11.6,1.0364 L 0,574.01098 v 16.06405 l 10,-0.81431 -10,12.36266 v 294.85298 11.17822 h 132.1 v 135.47102 h 1270.8 z m -94.4,-375.61739 -1.4,-1.8507 2.9,-0.29611 z m 5.5,-50.41298 -5.8,8.58723 -5.3,-7.84695 z m -13,-11.84446 -3.6,4.44167 -3.3,-4.88583 z m -80.2,-34.64504 -5.2,-6.3664 9.7,0.74028 z m 7.4,-42.56602 -2.5,-4.44168 8,0.74029 -11.6,17.10043 -8.2,-12.06654 z m -61.6,36.27365 -7.3,9.0314 -5.4,-7.99501 z m -80.4,89.94385 -3.2,4.73779 -3.6,-5.40403 z m -98.7,-49.22852 -4.2,5.18195 -3.2,-4.66376 z m -9.2,-12.06655 -3.6,4.44168 -3.3,-4.88584 z m -80.7,-33.90476 -1.9,-2.29486 3.5,0.29611 z m 10.9,-13.47307 -0.7,-0.96236 1.6,-0.14806 z m 2.5,-33.53462 -5.4,7.995 -5,-8.88334 z m -7.7,11.47431 -4.8,7.18071 -4.3,-6.36639 z m -53.1,33.23852 -9,11.10418 -6.7,-9.84571 z m -16.8,-5.18195 -1.6,2.29486 -1.4,-2.07278 z m -85.5,23.02266 -2.9,-4.36764 16,-1.25847 -18.8,23.17072 -15.7,-19.32127 z m -90.5,99.04929 -2.6,-3.84945 5.8,-0.5182 z m 7.1,-52.70784 -10.6,15.69391 -11.6,-14.28739 z m -16.4,24.35517 -4.9,7.32876 -5.4,-7.99502 z m -73.7,-100.75193 -0.5,0.96236 -0.8,-1.03639 z m -80.2,-7.92098 -1.9,2.81305 -2.1,-3.18319 z m -6.7,-12.80683 -2.6,4.58974 -2.8,-4.07153 z m -69.6,129.32669 -10.8,14.8796 -8.8,-13.10293 z m -85.2,-51.59742 -10,12.36265 -8.8,-10.8821 z m -79.6,-17.2485 -7.6,9.40154 -6.7,-8.29112 z m -16.9,20.80184 -2.2,2.73903 -2,-3.03514 z"
   id="path6158"
   inkscape:export-filename="trees.png"
   inkscape:export-xdpi="96"
   inkscape:export-ydpi="96"
   style="fill:url(#SVGID_2_);stroke-width:0.860395" />
<path
   class="st4"
   d="m 1335.3,787.64586 -18.6,-25.73076 28.2,1.69653 -47.8,-54.78388 25.4,1.8379 -27.3,-37.67718 15.6,-1.34309 -40.7,-68.21478 -40.7,68.21478 15.6,1.34309 -27.3,37.67718 25.4,-1.8379 -47.8,54.78388 28.2,-1.69653 -18.6,25.73076 h -67 l -6.4,-8.27061 36.3,3.11032 -40.9,-56.48043 28.2,1.69654 -47.8,-54.78389 25.4,1.8379 -27.3,-37.67718 15.6,-1.34309 -40.7,-68.21478 -40.7,68.21478 15.6,1.34309 -27.3,37.67718 25.4,-1.8379 -23.3,26.64971 -23.2,-32.09277 15.6,-1.34308 -40.7,-68.21478 -40.7,68.21478 15.6,1.34308 -27.3,37.67719 25.4,-1.83791 -47.8,54.78389 28.2,-1.69653 -22.6,31.1738 h -92.9 l -6.4,-8.2706 36.3,3.11031 -40.9,-56.48043 28.2,1.69653 -47.6,-54.78389 25.4,1.83792 -27.3,-37.67719 15.6,-1.34308 -40.6,-68.1441 -40.7,68.21478 15.6,1.34309 -27.3,37.67718 25.4,-1.8379 -20.1,23.04457 -31.9,-36.61684 25.4,1.83791 -27.3,-37.67719 15.6,-1.34308 -40.7,-68.21479 -40.7,68.21479 15.6,1.34308 -27.3,37.67719 25.4,-1.83791 -47.8,54.78389 28.2,-1.69654 -40.9,56.48043 36.3,-3.1103 -17,21.77217 h -35.5 l -31.7,-43.75643 28.2,1.69653 -47.8,-54.78389 25.4,1.83792 -27.3,-37.67718 15.6,-1.34309 -40.7,-68.21478 -40.7,68.21478 15.6,1.34309 -27.2,37.67718 25.4,-1.83792 -41.1,47.1495 -30.2,-34.63756 25.4,1.8379 -27.3,-37.67717 15.6,-1.34309 -40.7,-68.21479 -40.7,68.21479 15.6,1.34309 -27.3,37.67717 25.4,-1.8379 -42.9,49.48222 -29.2,-40.29267 28.2,1.69654 -47.8,-54.78389 25.4,1.83791 -27.3,-37.67719 15.6,-1.34308 -40.7,-68.21479 -40.7,68.21479 15.6,1.34308 -27.3,37.67719 25.4,-1.83791 -37.2,42.76677 -25.4,-29.2652 25.4,1.83792 -27.3,-37.67719 15.6,-1.34308 -40.7,-68.1441 -40.7,68.21478 15.6,1.34309 -27.3,37.67718 25.4,-1.8379 L 12,727.70168 40.2,726.00514 -0.7,782.48557 35.6,779.37525 0,825.04028 V 1046.5086 H 1402.9 V 787.64586 Z m -1195.5,-5.86718 -1.9,-2.40343 3.5,0.28277 z m 0.4,-46.30123 -6.9,-9.47231 13.2,0.77757 z m 12.8,-17.60152 -4.3,-4.94824 8.2,-0.49482 z m 127.1,69.76993 h -8.5 l -17,-21.77218 36.3,3.11031 -8.2,-11.31022 20,-1.20171 z m 127.2,-15.2688 -11.6,-15.97569 22.1,1.34309 z m 13.2,-18.23773 -8.1,-9.33094 15.6,-0.91896 z m 293.7,-26.01352 -1.4,-1.9086 2.9,-0.14139 z m 303.7,-14.42053 -9,-10.39127 17,1.27239 z m 13.6,15.62224 -2.6,-3.03962 5.1,-0.28276 z"
   id="path6160"
   style="stroke-width:0.840774" />















<polygon
   class="st44"
   points="400,34.9 403.8,34.1 400,33.4 399.3,29.7 398.6,33.4 394.9,34.1 398.6,34.9 399.3,38.6 "
   id="polygon6192" />









<polygon
   class="st44"
   points="35.1,65 38.8,64.3 35.1,63.6 34.3,59.8 33.6,63.6 29.9,64.3 33.6,65 34.3,68.8 "
   id="polygon6212" />
<polygon
   class="st44"
   points="1323.3,65.6 1330.1,64.3 1323.3,63 1322,56.1 1320.7,63 1313.8,64.3 1320.7,65.6 1322,72.4 "
   id="polygon6214" />






</svg>
